<svg width="808" height="120" viewBox="0 0 808 120" fill="none" xmlns="http://www.w3.org/2000/svg">
<rect width="392" height="120" fill="#EFF1F3"/>
<path d="M29.1855 67V54.373H24.4688V52.6836H35.8164V54.373H31.0801V67H29.1855ZM43.5996 67V65.4766C42.7923 66.6484 41.6953 67.2344 40.3086 67.2344C39.6966 67.2344 39.1237 67.1172 38.5898 66.8828C38.0625 66.6484 37.6686 66.3555 37.4082 66.0039C37.1543 65.6458 36.9753 65.2096 36.8711 64.6953C36.7995 64.3503 36.7637 63.8034 36.7637 63.0547V56.6289H38.5215V62.3809C38.5215 63.2988 38.5573 63.9173 38.6289 64.2363C38.7396 64.6986 38.974 65.0632 39.332 65.3301C39.6901 65.5905 40.1328 65.7207 40.6602 65.7207C41.1875 65.7207 41.6823 65.5872 42.1445 65.3203C42.6068 65.0469 42.9323 64.679 43.1211 64.2168C43.3164 63.748 43.4141 63.071 43.4141 62.1855V56.6289H45.1719V67H43.5996ZM51.7734 65.4277L52.0273 66.9805C51.5326 67.0846 51.0898 67.1367 50.6992 67.1367C50.0612 67.1367 49.5664 67.0358 49.2148 66.834C48.8633 66.6322 48.6159 66.3685 48.4727 66.043C48.3294 65.7109 48.2578 65.0176 48.2578 63.9629V57.9961H46.9688V56.6289H48.2578V54.0605L50.0059 53.0059V56.6289H51.7734V57.9961H50.0059V64.0605C50.0059 64.5618 50.0352 64.8841 50.0938 65.0273C50.1589 65.1706 50.2598 65.2845 50.3965 65.3691C50.5397 65.4538 50.7415 65.4961 51.002 65.4961C51.1973 65.4961 51.4544 65.4733 51.7734 65.4277ZM52.8477 61.8145C52.8477 59.8939 53.3815 58.4714 54.4492 57.5469C55.3411 56.7786 56.4284 56.3945 57.7109 56.3945C59.1367 56.3945 60.3021 56.8633 61.207 57.8008C62.112 58.7318 62.5645 60.0208 62.5645 61.668C62.5645 63.0026 62.3626 64.054 61.959 64.8223C61.5618 65.584 60.9792 66.1764 60.2109 66.5996C59.4492 67.0228 58.6159 67.2344 57.7109 67.2344C56.2591 67.2344 55.084 66.7689 54.1855 65.8379C53.2936 64.9069 52.8477 63.5658 52.8477 61.8145ZM54.6543 61.8145C54.6543 63.1426 54.944 64.1387 55.5234 64.8027C56.1029 65.4603 56.832 65.7891 57.7109 65.7891C58.5833 65.7891 59.3092 65.457 59.8887 64.793C60.4681 64.1289 60.7578 63.1165 60.7578 61.7559C60.7578 60.4733 60.4648 59.5033 59.8789 58.8457C59.2995 58.1816 58.5768 57.8496 57.7109 57.8496C56.832 57.8496 56.1029 58.1784 55.5234 58.8359C54.944 59.4935 54.6543 60.4863 54.6543 61.8145ZM64.6152 67V56.6289H66.1973V58.2012C66.6009 57.4655 66.972 56.9805 67.3105 56.7461C67.6556 56.5117 68.0332 56.3945 68.4434 56.3945C69.0358 56.3945 69.638 56.5833 70.25 56.9609L69.6445 58.5918C69.2148 58.3379 68.7852 58.2109 68.3555 58.2109C67.9714 58.2109 67.6263 58.3281 67.3203 58.5625C67.0143 58.7904 66.7962 59.1094 66.666 59.5195C66.4707 60.1445 66.373 60.8281 66.373 61.5703V67H64.6152ZM71.3047 54.7051V52.6836H73.0625V54.7051H71.3047ZM71.3047 67V56.6289H73.0625V67H71.3047ZM82.5156 65.7207C81.8646 66.2741 81.2363 66.6647 80.6309 66.8926C80.0319 67.1204 79.3874 67.2344 78.6973 67.2344C77.5579 67.2344 76.6823 66.9577 76.0703 66.4043C75.4583 65.8444 75.1523 65.1315 75.1523 64.2656C75.1523 63.7578 75.2663 63.2956 75.4941 62.8789C75.7285 62.4557 76.0312 62.1172 76.4023 61.8633C76.7799 61.6094 77.2031 61.4173 77.6719 61.2871C78.0169 61.196 78.5378 61.1081 79.2344 61.0234C80.6536 60.8542 81.6986 60.6523 82.3691 60.418C82.3757 60.1771 82.3789 60.0241 82.3789 59.959C82.3789 59.2428 82.2129 58.7383 81.8809 58.4453C81.4316 58.0482 80.7643 57.8496 79.8789 57.8496C79.0521 57.8496 78.4401 57.9961 78.043 58.2891C77.6523 58.5755 77.3626 59.0866 77.1738 59.8223L75.4551 59.5879C75.6113 58.8522 75.8685 58.2598 76.2266 57.8105C76.5846 57.3548 77.1022 57.0065 77.7793 56.7656C78.4564 56.5182 79.2409 56.3945 80.1328 56.3945C81.0182 56.3945 81.7376 56.4987 82.291 56.707C82.8444 56.9154 83.2513 57.179 83.5117 57.498C83.7721 57.8105 83.9544 58.2077 84.0586 58.6895C84.1172 58.9889 84.1465 59.5293 84.1465 60.3105V62.6543C84.1465 64.2884 84.1823 65.3236 84.2539 65.7598C84.332 66.1895 84.4818 66.6029 84.7031 67H82.8672C82.6849 66.6354 82.5677 66.209 82.5156 65.7207ZM82.3691 61.7949C81.7311 62.0553 80.7741 62.2767 79.498 62.459C78.7754 62.5632 78.2643 62.6803 77.9648 62.8105C77.6654 62.9408 77.4342 63.1328 77.2715 63.3867C77.1087 63.6341 77.0273 63.9108 77.0273 64.2168C77.0273 64.6855 77.2031 65.0762 77.5547 65.3887C77.9128 65.7012 78.4336 65.8574 79.1172 65.8574C79.7943 65.8574 80.3965 65.7109 80.9238 65.418C81.4512 65.1185 81.8385 64.7116 82.0859 64.1973C82.2747 63.8001 82.3691 63.2142 82.3691 62.4395V61.7949ZM86.8418 67V52.6836H88.5996V67H86.8418ZM100.396 67V54.373H95.6797V52.6836H107.027V54.373H102.291V67H100.396ZM108.023 54.7051V52.6836H109.781V54.7051H108.023ZM108.023 67V56.6289H109.781V67H108.023ZM116.305 65.4277L116.559 66.9805C116.064 67.0846 115.621 67.1367 115.23 67.1367C114.592 67.1367 114.098 67.0358 113.746 66.834C113.395 66.6322 113.147 66.3685 113.004 66.043C112.861 65.7109 112.789 65.0176 112.789 63.9629V57.9961H111.5V56.6289H112.789V54.0605L114.537 53.0059V56.6289H116.305V57.9961H114.537V64.0605C114.537 64.5618 114.566 64.8841 114.625 65.0273C114.69 65.1706 114.791 65.2845 114.928 65.3691C115.071 65.4538 115.273 65.4961 115.533 65.4961C115.729 65.4961 115.986 65.4733 116.305 65.4277ZM117.994 67V52.6836H119.752V67H117.994ZM129.586 63.6602L131.402 63.8848C131.116 64.946 130.585 65.7695 129.811 66.3555C129.036 66.9414 128.046 67.2344 126.842 67.2344C125.325 67.2344 124.12 66.7689 123.229 65.8379C122.343 64.9004 121.9 63.5885 121.9 61.9023C121.9 60.1576 122.35 58.8034 123.248 57.8398C124.146 56.8763 125.312 56.3945 126.744 56.3945C128.131 56.3945 129.264 56.8665 130.143 57.8105C131.021 58.7546 131.461 60.0827 131.461 61.7949C131.461 61.8991 131.458 62.0553 131.451 62.2637H123.717C123.782 63.403 124.104 64.2754 124.684 64.8809C125.263 65.4863 125.986 65.7891 126.852 65.7891C127.496 65.7891 128.046 65.6198 128.502 65.2812C128.958 64.9427 129.319 64.4023 129.586 63.6602ZM123.814 60.8184H129.605C129.527 59.946 129.306 59.2917 128.941 58.8555C128.382 58.1784 127.656 57.8398 126.764 57.8398C125.956 57.8398 125.276 58.11 124.723 58.6504C124.176 59.1908 123.873 59.9134 123.814 60.8184Z" fill="black"/>
<path d="M345.002 59.9531L366.602 59.9991" stroke="#00A6D6" stroke-width="1.5" stroke-linecap="round" stroke-linejoin="round"/>
<path d="M360.43 54L367.062 60L360.43 66" stroke="#00A6D6" stroke-width="1.5" stroke-linecap="round" stroke-linejoin="round"/>
<rect width="392" height="120" transform="translate(416)" fill="#EFF1F3"/>
<path d="M445.186 67V54.373H440.469V52.6836H451.816V54.373H447.08V67H445.186ZM459.6 67V65.4766C458.792 66.6484 457.695 67.2344 456.309 67.2344C455.697 67.2344 455.124 67.1172 454.59 66.8828C454.062 66.6484 453.669 66.3555 453.408 66.0039C453.154 65.6458 452.975 65.2096 452.871 64.6953C452.799 64.3503 452.764 63.8034 452.764 63.0547V56.6289H454.521V62.3809C454.521 63.2988 454.557 63.9173 454.629 64.2363C454.74 64.6986 454.974 65.0632 455.332 65.3301C455.69 65.5905 456.133 65.7207 456.66 65.7207C457.188 65.7207 457.682 65.5872 458.145 65.3203C458.607 65.0469 458.932 64.679 459.121 64.2168C459.316 63.748 459.414 63.071 459.414 62.1855V56.6289H461.172V67H459.6ZM467.773 65.4277L468.027 66.9805C467.533 67.0846 467.09 67.1367 466.699 67.1367C466.061 67.1367 465.566 67.0358 465.215 66.834C464.863 66.6322 464.616 66.3685 464.473 66.043C464.329 65.7109 464.258 65.0176 464.258 63.9629V57.9961H462.969V56.6289H464.258V54.0605L466.006 53.0059V56.6289H467.773V57.9961H466.006V64.0605C466.006 64.5618 466.035 64.8841 466.094 65.0273C466.159 65.1706 466.26 65.2845 466.396 65.3691C466.54 65.4538 466.742 65.4961 467.002 65.4961C467.197 65.4961 467.454 65.4733 467.773 65.4277ZM468.848 61.8145C468.848 59.8939 469.382 58.4714 470.449 57.5469C471.341 56.7786 472.428 56.3945 473.711 56.3945C475.137 56.3945 476.302 56.8633 477.207 57.8008C478.112 58.7318 478.564 60.0208 478.564 61.668C478.564 63.0026 478.363 64.054 477.959 64.8223C477.562 65.584 476.979 66.1764 476.211 66.5996C475.449 67.0228 474.616 67.2344 473.711 67.2344C472.259 67.2344 471.084 66.7689 470.186 65.8379C469.294 64.9069 468.848 63.5658 468.848 61.8145ZM470.654 61.8145C470.654 63.1426 470.944 64.1387 471.523 64.8027C472.103 65.4603 472.832 65.7891 473.711 65.7891C474.583 65.7891 475.309 65.457 475.889 64.793C476.468 64.1289 476.758 63.1165 476.758 61.7559C476.758 60.4733 476.465 59.5033 475.879 58.8457C475.299 58.1816 474.577 57.8496 473.711 57.8496C472.832 57.8496 472.103 58.1784 471.523 58.8359C470.944 59.4935 470.654 60.4863 470.654 61.8145ZM480.615 67V56.6289H482.197V58.2012C482.601 57.4655 482.972 56.9805 483.311 56.7461C483.656 56.5117 484.033 56.3945 484.443 56.3945C485.036 56.3945 485.638 56.5833 486.25 56.9609L485.645 58.5918C485.215 58.3379 484.785 58.2109 484.355 58.2109C483.971 58.2109 483.626 58.3281 483.32 58.5625C483.014 58.7904 482.796 59.1094 482.666 59.5195C482.471 60.1445 482.373 60.8281 482.373 61.5703V67H480.615ZM487.305 54.7051V52.6836H489.062V54.7051H487.305ZM487.305 67V56.6289H489.062V67H487.305ZM498.516 65.7207C497.865 66.2741 497.236 66.6647 496.631 66.8926C496.032 67.1204 495.387 67.2344 494.697 67.2344C493.558 67.2344 492.682 66.9577 492.07 66.4043C491.458 65.8444 491.152 65.1315 491.152 64.2656C491.152 63.7578 491.266 63.2956 491.494 62.8789C491.729 62.4557 492.031 62.1172 492.402 61.8633C492.78 61.6094 493.203 61.4173 493.672 61.2871C494.017 61.196 494.538 61.1081 495.234 61.0234C496.654 60.8542 497.699 60.6523 498.369 60.418C498.376 60.1771 498.379 60.0241 498.379 59.959C498.379 59.2428 498.213 58.7383 497.881 58.4453C497.432 58.0482 496.764 57.8496 495.879 57.8496C495.052 57.8496 494.44 57.9961 494.043 58.2891C493.652 58.5755 493.363 59.0866 493.174 59.8223L491.455 59.5879C491.611 58.8522 491.868 58.2598 492.227 57.8105C492.585 57.3548 493.102 57.0065 493.779 56.7656C494.456 56.5182 495.241 56.3945 496.133 56.3945C497.018 56.3945 497.738 56.4987 498.291 56.707C498.844 56.9154 499.251 57.179 499.512 57.498C499.772 57.8105 499.954 58.2077 500.059 58.6895C500.117 58.9889 500.146 59.5293 500.146 60.3105V62.6543C500.146 64.2884 500.182 65.3236 500.254 65.7598C500.332 66.1895 500.482 66.6029 500.703 67H498.867C498.685 66.6354 498.568 66.209 498.516 65.7207ZM498.369 61.7949C497.731 62.0553 496.774 62.2767 495.498 62.459C494.775 62.5632 494.264 62.6803 493.965 62.8105C493.665 62.9408 493.434 63.1328 493.271 63.3867C493.109 63.6341 493.027 63.9108 493.027 64.2168C493.027 64.6855 493.203 65.0762 493.555 65.3887C493.913 65.7012 494.434 65.8574 495.117 65.8574C495.794 65.8574 496.396 65.7109 496.924 65.418C497.451 65.1185 497.839 64.7116 498.086 64.1973C498.275 63.8001 498.369 63.2142 498.369 62.4395V61.7949ZM502.842 67V52.6836H504.6V67H502.842ZM516.396 67V54.373H511.68V52.6836H523.027V54.373H518.291V67H516.396ZM524.023 54.7051V52.6836H525.781V54.7051H524.023ZM524.023 67V56.6289H525.781V67H524.023ZM532.305 65.4277L532.559 66.9805C532.064 67.0846 531.621 67.1367 531.23 67.1367C530.592 67.1367 530.098 67.0358 529.746 66.834C529.395 66.6322 529.147 66.3685 529.004 66.043C528.861 65.7109 528.789 65.0176 528.789 63.9629V57.9961H527.5V56.6289H528.789V54.0605L530.537 53.0059V56.6289H532.305V57.9961H530.537V64.0605C530.537 64.5618 530.566 64.8841 530.625 65.0273C530.69 65.1706 530.791 65.2845 530.928 65.3691C531.071 65.4538 531.273 65.4961 531.533 65.4961C531.729 65.4961 531.986 65.4733 532.305 65.4277ZM533.994 67V52.6836H535.752V67H533.994ZM545.586 63.6602L547.402 63.8848C547.116 64.946 546.585 65.7695 545.811 66.3555C545.036 66.9414 544.046 67.2344 542.842 67.2344C541.325 67.2344 540.12 66.7689 539.229 65.8379C538.343 64.9004 537.9 63.5885 537.9 61.9023C537.9 60.1576 538.35 58.8034 539.248 57.8398C540.146 56.8763 541.312 56.3945 542.744 56.3945C544.131 56.3945 545.264 56.8665 546.143 57.8105C547.021 58.7546 547.461 60.0827 547.461 61.7949C547.461 61.8991 547.458 62.0553 547.451 62.2637H539.717C539.782 63.403 540.104 64.2754 540.684 64.8809C541.263 65.4863 541.986 65.7891 542.852 65.7891C543.496 65.7891 544.046 65.6198 544.502 65.2812C544.958 64.9427 545.319 64.4023 545.586 63.6602ZM539.814 60.8184H545.605C545.527 59.946 545.306 59.2917 544.941 58.8555C544.382 58.1784 543.656 57.8398 542.764 57.8398C541.956 57.8398 541.276 58.11 540.723 58.6504C540.176 59.1908 539.873 59.9134 539.814 60.8184Z" fill="black"/>
<path d="M761.002 59.9531L782.602 59.9991" stroke="#00A6D6" stroke-width="1.5" stroke-linecap="round" stroke-linejoin="round"/>
<path d="M776.43 54L783.062 60L776.43 66" stroke="#00A6D6" stroke-width="1.5" stroke-linecap="round" stroke-linejoin="round"/>
</svg>