<svg width="336" height="76" viewBox="0 0 336 76" fill="none" xmlns="http://www.w3.org/2000/svg">
<rect width="72" height="76" fill="#00A6D6"/>
<path d="M36 29V45" stroke="white" stroke-width="1.5" stroke-linecap="round" stroke-linejoin="round"/>
<path d="M42 39L36 45L30 39" stroke="white" stroke-width="1.5" stroke-linecap="round" stroke-linejoin="round"/>
<path d="M28 49H44" stroke="white" stroke-width="1.5" stroke-linecap="round" stroke-linejoin="round"/>
<rect width="264" height="76" transform="translate(72)" fill="#00A6D6" fill-opacity="0.2"/>
<path d="M97.2344 34V22.5469H101.18C102.07 22.5469 102.75 22.6016 103.219 22.7109C103.875 22.862 104.435 23.1354 104.898 23.5312C105.503 24.0417 105.953 24.6953 106.25 25.4922C106.552 26.2839 106.703 27.1901 106.703 28.2109C106.703 29.0807 106.602 29.8516 106.398 30.5234C106.195 31.1953 105.935 31.7526 105.617 32.1953C105.299 32.6328 104.951 32.9792 104.57 33.2344C104.195 33.4844 103.74 33.6745 103.203 33.8047C102.672 33.9349 102.06 34 101.367 34H97.2344ZM98.75 32.6484H101.195C101.951 32.6484 102.542 32.5781 102.969 32.4375C103.401 32.2969 103.745 32.099 104 31.8438C104.359 31.4844 104.638 31.0026 104.836 30.3984C105.039 29.7891 105.141 29.0521 105.141 28.1875C105.141 26.9896 104.943 26.0703 104.547 25.4297C104.156 24.7839 103.68 24.3516 103.117 24.1328C102.711 23.9766 102.057 23.8984 101.156 23.8984H98.75V32.6484ZM108.094 29.8516C108.094 28.3151 108.521 27.1771 109.375 26.4375C110.089 25.8229 110.958 25.5156 111.984 25.5156C113.125 25.5156 114.057 25.8906 114.781 26.6406C115.505 27.3854 115.867 28.4167 115.867 29.7344C115.867 30.8021 115.706 31.6432 115.383 32.2578C115.065 32.8672 114.599 33.3411 113.984 33.6797C113.375 34.0182 112.708 34.1875 111.984 34.1875C110.823 34.1875 109.883 33.8151 109.164 33.0703C108.451 32.3255 108.094 31.2526 108.094 29.8516ZM109.539 29.8516C109.539 30.9141 109.771 31.7109 110.234 32.2422C110.698 32.7682 111.281 33.0312 111.984 33.0312C112.682 33.0312 113.263 32.7656 113.727 32.2344C114.19 31.7031 114.422 30.8932 114.422 29.8047C114.422 28.7786 114.188 28.0026 113.719 27.4766C113.255 26.9453 112.677 26.6797 111.984 26.6797C111.281 26.6797 110.698 26.9427 110.234 27.4688C109.771 27.9948 109.539 28.7891 109.539 29.8516ZM119.055 34L116.516 25.7031H117.969L119.289 30.4922L119.781 32.2734C119.802 32.1849 119.945 31.6146 120.211 30.5625L121.531 25.7031H122.977L124.219 30.5156L124.633 32.1016L125.109 30.5L126.531 25.7031H127.898L125.305 34H123.844L122.523 29.0312L122.203 27.6172L120.523 34H119.055ZM129.086 34V25.7031H130.352V26.8828C130.961 25.9714 131.841 25.5156 132.992 25.5156C133.492 25.5156 133.951 25.6068 134.367 25.7891C134.789 25.9661 135.104 26.2005 135.312 26.4922C135.521 26.7839 135.667 27.1302 135.75 27.5312C135.802 27.7917 135.828 28.2474 135.828 28.8984V34H134.422V28.9531C134.422 28.3802 134.367 27.9531 134.258 27.6719C134.148 27.3854 133.953 27.1589 133.672 26.9922C133.396 26.8203 133.07 26.7344 132.695 26.7344C132.096 26.7344 131.578 26.9245 131.141 27.3047C130.708 27.6849 130.492 28.4062 130.492 29.4688V34H129.086ZM137.961 34V22.5469H139.367V34H137.961ZM141.031 29.8516C141.031 28.3151 141.458 27.1771 142.312 26.4375C143.026 25.8229 143.896 25.5156 144.922 25.5156C146.062 25.5156 146.995 25.8906 147.719 26.6406C148.443 27.3854 148.805 28.4167 148.805 29.7344C148.805 30.8021 148.643 31.6432 148.32 32.2578C148.003 32.8672 147.536 33.3411 146.922 33.6797C146.312 34.0182 145.646 34.1875 144.922 34.1875C143.76 34.1875 142.82 33.8151 142.102 33.0703C141.388 32.3255 141.031 31.2526 141.031 29.8516ZM142.477 29.8516C142.477 30.9141 142.708 31.7109 143.172 32.2422C143.635 32.7682 144.219 33.0312 144.922 33.0312C145.62 33.0312 146.201 32.7656 146.664 32.2344C147.128 31.7031 147.359 30.8932 147.359 29.8047C147.359 28.7786 147.125 28.0026 146.656 27.4766C146.193 26.9453 145.615 26.6797 144.922 26.6797C144.219 26.6797 143.635 26.9427 143.172 27.4688C142.708 27.9948 142.477 28.7891 142.477 29.8516ZM155.875 32.9766C155.354 33.4193 154.852 33.7318 154.367 33.9141C153.888 34.0964 153.372 34.1875 152.82 34.1875C151.909 34.1875 151.208 33.9661 150.719 33.5234C150.229 33.0755 149.984 32.5052 149.984 31.8125C149.984 31.4062 150.076 31.0365 150.258 30.7031C150.445 30.3646 150.688 30.0938 150.984 29.8906C151.286 29.6875 151.625 29.5339 152 29.4297C152.276 29.3568 152.693 29.2865 153.25 29.2188C154.385 29.0833 155.221 28.9219 155.758 28.7344C155.763 28.5417 155.766 28.4193 155.766 28.3672C155.766 27.7943 155.633 27.3906 155.367 27.1562C155.008 26.8385 154.474 26.6797 153.766 26.6797C153.104 26.6797 152.615 26.7969 152.297 27.0312C151.984 27.2604 151.753 27.6693 151.602 28.2578L150.227 28.0703C150.352 27.4818 150.557 27.0078 150.844 26.6484C151.13 26.2839 151.544 26.0052 152.086 25.8125C152.628 25.6146 153.255 25.5156 153.969 25.5156C154.677 25.5156 155.253 25.599 155.695 25.7656C156.138 25.9323 156.464 26.1432 156.672 26.3984C156.88 26.6484 157.026 26.9661 157.109 27.3516C157.156 27.5911 157.18 28.0234 157.18 28.6484V30.5234C157.18 31.8307 157.208 32.6589 157.266 33.0078C157.328 33.3516 157.448 33.6823 157.625 34H156.156C156.01 33.7083 155.917 33.3672 155.875 32.9766ZM155.758 29.8359C155.247 30.0443 154.482 30.2214 153.461 30.3672C152.883 30.4505 152.474 30.5443 152.234 30.6484C151.995 30.7526 151.81 30.9062 151.68 31.1094C151.549 31.3073 151.484 31.5286 151.484 31.7734C151.484 32.1484 151.625 32.4609 151.906 32.7109C152.193 32.9609 152.609 33.0859 153.156 33.0859C153.698 33.0859 154.18 32.9688 154.602 32.7344C155.023 32.4948 155.333 32.1693 155.531 31.7578C155.682 31.4401 155.758 30.9714 155.758 30.3516V29.8359ZM164.75 34V32.9531C164.224 33.776 163.451 34.1875 162.43 34.1875C161.768 34.1875 161.159 34.0052 160.602 33.6406C160.049 33.276 159.62 32.7682 159.312 32.1172C159.01 31.4609 158.859 30.7083 158.859 29.8594C158.859 29.0312 158.997 28.2812 159.273 27.6094C159.549 26.9323 159.964 26.4141 160.516 26.0547C161.068 25.6953 161.685 25.5156 162.367 25.5156C162.867 25.5156 163.312 25.6224 163.703 25.8359C164.094 26.0443 164.411 26.3177 164.656 26.6562V22.5469H166.055V34H164.75ZM160.305 29.8594C160.305 30.9219 160.529 31.7161 160.977 32.2422C161.424 32.7682 161.953 33.0312 162.562 33.0312C163.177 33.0312 163.698 32.7812 164.125 32.2812C164.557 31.776 164.773 31.0078 164.773 29.9766C164.773 28.8411 164.555 28.0078 164.117 27.4766C163.68 26.9453 163.141 26.6797 162.5 26.6797C161.875 26.6797 161.352 26.9349 160.93 27.4453C160.513 27.9557 160.305 28.7604 160.305 29.8594ZM172.164 31.5234L173.555 31.3047C173.633 31.862 173.849 32.2891 174.203 32.5859C174.562 32.8828 175.062 33.0312 175.703 33.0312C176.349 33.0312 176.828 32.901 177.141 32.6406C177.453 32.375 177.609 32.0651 177.609 31.7109C177.609 31.3932 177.471 31.1432 177.195 30.9609C177.003 30.8359 176.523 30.6771 175.758 30.4844C174.727 30.224 174.01 30 173.609 29.8125C173.214 29.6198 172.911 29.3568 172.703 29.0234C172.5 28.6849 172.398 28.3125 172.398 27.9062C172.398 27.5365 172.482 27.1953 172.648 26.8828C172.82 26.5651 173.052 26.3021 173.344 26.0938C173.562 25.9323 173.859 25.7969 174.234 25.6875C174.615 25.5729 175.021 25.5156 175.453 25.5156C176.104 25.5156 176.674 25.6094 177.164 25.7969C177.659 25.9844 178.023 26.2396 178.258 26.5625C178.492 26.8802 178.654 27.3073 178.742 27.8438L177.367 28.0312C177.305 27.6042 177.122 27.2708 176.82 27.0312C176.523 26.7917 176.102 26.6719 175.555 26.6719C174.909 26.6719 174.448 26.7786 174.172 26.9922C173.896 27.2057 173.758 27.4557 173.758 27.7422C173.758 27.9245 173.815 28.0885 173.93 28.2344C174.044 28.3854 174.224 28.5104 174.469 28.6094C174.609 28.6615 175.023 28.7812 175.711 28.9688C176.706 29.2344 177.398 29.4531 177.789 29.625C178.185 29.7917 178.495 30.0365 178.719 30.3594C178.943 30.6823 179.055 31.0833 179.055 31.5625C179.055 32.0312 178.917 32.474 178.641 32.8906C178.37 33.3021 177.977 33.6224 177.461 33.8516C176.945 34.0755 176.362 34.1875 175.711 34.1875C174.633 34.1875 173.81 33.9635 173.242 33.5156C172.68 33.0677 172.32 32.4036 172.164 31.5234ZM186.141 32.9766C185.62 33.4193 185.117 33.7318 184.633 33.9141C184.154 34.0964 183.638 34.1875 183.086 34.1875C182.174 34.1875 181.474 33.9661 180.984 33.5234C180.495 33.0755 180.25 32.5052 180.25 31.8125C180.25 31.4062 180.341 31.0365 180.523 30.7031C180.711 30.3646 180.953 30.0938 181.25 29.8906C181.552 29.6875 181.891 29.5339 182.266 29.4297C182.542 29.3568 182.958 29.2865 183.516 29.2188C184.651 29.0833 185.487 28.9219 186.023 28.7344C186.029 28.5417 186.031 28.4193 186.031 28.3672C186.031 27.7943 185.898 27.3906 185.633 27.1562C185.273 26.8385 184.74 26.6797 184.031 26.6797C183.37 26.6797 182.88 26.7969 182.562 27.0312C182.25 27.2604 182.018 27.6693 181.867 28.2578L180.492 28.0703C180.617 27.4818 180.823 27.0078 181.109 26.6484C181.396 26.2839 181.81 26.0052 182.352 25.8125C182.893 25.6146 183.521 25.5156 184.234 25.5156C184.943 25.5156 185.518 25.599 185.961 25.7656C186.404 25.9323 186.729 26.1432 186.938 26.3984C187.146 26.6484 187.292 26.9661 187.375 27.3516C187.422 27.5911 187.445 28.0234 187.445 28.6484V30.5234C187.445 31.8307 187.474 32.6589 187.531 33.0078C187.594 33.3516 187.714 33.6823 187.891 34H186.422C186.276 33.7083 186.182 33.3672 186.141 32.9766ZM186.023 29.8359C185.513 30.0443 184.747 30.2214 183.727 30.3672C183.148 30.4505 182.74 30.5443 182.5 30.6484C182.26 30.7526 182.076 30.9062 181.945 31.1094C181.815 31.3073 181.75 31.5286 181.75 31.7734C181.75 32.1484 181.891 32.4609 182.172 32.7109C182.458 32.9609 182.875 33.0859 183.422 33.0859C183.964 33.0859 184.445 32.9688 184.867 32.7344C185.289 32.4948 185.599 32.1693 185.797 31.7578C185.948 31.4401 186.023 30.9714 186.023 30.3516V29.8359ZM189.633 34V25.7031H190.891V26.8672C191.151 26.4609 191.497 26.1354 191.93 25.8906C192.362 25.6406 192.854 25.5156 193.406 25.5156C194.021 25.5156 194.523 25.6432 194.914 25.8984C195.31 26.1536 195.589 26.5104 195.75 26.9688C196.406 26 197.26 25.5156 198.312 25.5156C199.135 25.5156 199.768 25.7448 200.211 26.2031C200.654 26.6562 200.875 27.3568 200.875 28.3047V34H199.477V28.7734C199.477 28.2109 199.43 27.8073 199.336 27.5625C199.247 27.3125 199.083 27.112 198.844 26.9609C198.604 26.8099 198.323 26.7344 198 26.7344C197.417 26.7344 196.932 26.9297 196.547 27.3203C196.161 27.7057 195.969 28.3255 195.969 29.1797V34H194.562V28.6094C194.562 27.9844 194.448 27.5156 194.219 27.2031C193.99 26.8906 193.615 26.7344 193.094 26.7344C192.698 26.7344 192.331 26.8385 191.992 27.0469C191.659 27.2552 191.417 27.5599 191.266 27.9609C191.115 28.362 191.039 28.9401 191.039 29.6953V34H189.633ZM202.961 37.1797V25.7031H204.242V26.7812C204.544 26.3594 204.885 26.0443 205.266 25.8359C205.646 25.6224 206.107 25.5156 206.648 25.5156C207.357 25.5156 207.982 25.6979 208.523 26.0625C209.065 26.4271 209.474 26.9427 209.75 27.6094C210.026 28.2708 210.164 28.9974 210.164 29.7891C210.164 30.638 210.01 31.4036 209.703 32.0859C209.401 32.763 208.958 33.2839 208.375 33.6484C207.797 34.0078 207.188 34.1875 206.547 34.1875C206.078 34.1875 205.656 34.0885 205.281 33.8906C204.911 33.6927 204.607 33.4427 204.367 33.1406V37.1797H202.961ZM204.234 29.8984C204.234 30.9661 204.451 31.7552 204.883 32.2656C205.315 32.776 205.839 33.0312 206.453 33.0312C207.078 33.0312 207.612 32.7682 208.055 32.2422C208.503 31.7109 208.727 30.8906 208.727 29.7812C208.727 28.724 208.508 27.9323 208.07 27.4062C207.638 26.8802 207.12 26.6172 206.516 26.6172C205.917 26.6172 205.385 26.8984 204.922 27.4609C204.464 28.0182 204.234 28.8307 204.234 29.8984ZM211.836 34V22.5469H213.242V34H211.836ZM221.109 31.3281L222.562 31.5078C222.333 32.3568 221.909 33.0156 221.289 33.4844C220.669 33.9531 219.878 34.1875 218.914 34.1875C217.701 34.1875 216.737 33.8151 216.023 33.0703C215.315 32.3203 214.961 31.2708 214.961 29.9219C214.961 28.526 215.32 27.4427 216.039 26.6719C216.758 25.901 217.69 25.5156 218.836 25.5156C219.945 25.5156 220.852 25.8932 221.555 26.6484C222.258 27.4036 222.609 28.4661 222.609 29.8359C222.609 29.9193 222.607 30.0443 222.602 30.2109H216.414C216.466 31.1224 216.724 31.8203 217.188 32.3047C217.651 32.7891 218.229 33.0312 218.922 33.0312C219.438 33.0312 219.878 32.8958 220.242 32.625C220.607 32.3542 220.896 31.9219 221.109 31.3281ZM216.492 29.0547H221.125C221.062 28.3568 220.885 27.8333 220.594 27.4844C220.146 26.9427 219.565 26.6719 218.852 26.6719C218.206 26.6719 217.661 26.888 217.219 27.3203C216.781 27.7526 216.539 28.3307 216.492 29.0547ZM229.125 34V26.7969H227.883V25.7031H229.125V24.8203C229.125 24.263 229.174 23.849 229.273 23.5781C229.409 23.2135 229.646 22.9193 229.984 22.6953C230.328 22.4661 230.807 22.3516 231.422 22.3516C231.818 22.3516 232.255 22.3984 232.734 22.4922L232.523 23.7188C232.232 23.6667 231.956 23.6406 231.695 23.6406C231.268 23.6406 230.966 23.7318 230.789 23.9141C230.612 24.0964 230.523 24.4375 230.523 24.9375V25.7031H232.141V26.7969H230.523V34H229.125ZM233.25 24.1641V22.5469H234.656V24.1641H233.25ZM233.25 34V25.7031H234.656V34H233.25ZM236.773 34V22.5469H238.18V34H236.773ZM246.047 31.3281L247.5 31.5078C247.271 32.3568 246.846 33.0156 246.227 33.4844C245.607 33.9531 244.815 34.1875 243.852 34.1875C242.638 34.1875 241.674 33.8151 240.961 33.0703C240.253 32.3203 239.898 31.2708 239.898 29.9219C239.898 28.526 240.258 27.4427 240.977 26.6719C241.695 25.901 242.628 25.5156 243.773 25.5156C244.883 25.5156 245.789 25.8932 246.492 26.6484C247.195 27.4036 247.547 28.4661 247.547 29.8359C247.547 29.9193 247.544 30.0443 247.539 30.2109H241.352C241.404 31.1224 241.661 31.8203 242.125 32.3047C242.589 32.7891 243.167 33.0312 243.859 33.0312C244.375 33.0312 244.815 32.8958 245.18 32.625C245.544 32.3542 245.833 31.9219 246.047 31.3281ZM241.43 29.0547H246.062C246 28.3568 245.823 27.8333 245.531 27.4844C245.083 26.9427 244.503 26.6719 243.789 26.6719C243.143 26.6719 242.599 26.888 242.156 27.3203C241.719 27.7526 241.477 28.3307 241.43 29.0547ZM248.711 31.5234L250.102 31.3047C250.18 31.862 250.396 32.2891 250.75 32.5859C251.109 32.8828 251.609 33.0312 252.25 33.0312C252.896 33.0312 253.375 32.901 253.688 32.6406C254 32.375 254.156 32.0651 254.156 31.7109C254.156 31.3932 254.018 31.1432 253.742 30.9609C253.549 30.8359 253.07 30.6771 252.305 30.4844C251.273 30.224 250.557 30 250.156 29.8125C249.76 29.6198 249.458 29.3568 249.25 29.0234C249.047 28.6849 248.945 28.3125 248.945 27.9062C248.945 27.5365 249.029 27.1953 249.195 26.8828C249.367 26.5651 249.599 26.3021 249.891 26.0938C250.109 25.9323 250.406 25.7969 250.781 25.6875C251.161 25.5729 251.568 25.5156 252 25.5156C252.651 25.5156 253.221 25.6094 253.711 25.7969C254.206 25.9844 254.57 26.2396 254.805 26.5625C255.039 26.8802 255.201 27.3073 255.289 27.8438L253.914 28.0312C253.852 27.6042 253.669 27.2708 253.367 27.0312C253.07 26.7917 252.648 26.6719 252.102 26.6719C251.456 26.6719 250.995 26.7786 250.719 26.9922C250.443 27.2057 250.305 27.4557 250.305 27.7422C250.305 27.9245 250.362 28.0885 250.477 28.2344C250.591 28.3854 250.771 28.5104 251.016 28.6094C251.156 28.6615 251.57 28.7812 252.258 28.9688C253.253 29.2344 253.945 29.4531 254.336 29.625C254.732 29.7917 255.042 30.0365 255.266 30.3594C255.49 30.6823 255.602 31.0833 255.602 31.5625C255.602 32.0312 255.464 32.474 255.188 32.8906C254.917 33.3021 254.523 33.6224 254.008 33.8516C253.492 34.0755 252.909 34.1875 252.258 34.1875C251.18 34.1875 250.357 33.9635 249.789 33.5156C249.227 33.0677 248.867 32.4036 248.711 31.5234Z" fill="black"/>
<path d="M96.5391 51.2402L97.6113 51.1465C97.6621 51.5762 97.7793 51.9297 97.9629 52.207C98.1504 52.4805 98.4395 52.7031 98.8301 52.875C99.2207 53.043 99.6602 53.127 100.148 53.127C100.582 53.127 100.965 53.0625 101.297 52.9336C101.629 52.8047 101.875 52.6289 102.035 52.4062C102.199 52.1797 102.281 51.9336 102.281 51.668C102.281 51.3984 102.203 51.1641 102.047 50.9648C101.891 50.7617 101.633 50.5918 101.273 50.4551C101.043 50.3652 100.533 50.2266 99.7441 50.0391C98.9551 49.8477 98.4023 49.668 98.0859 49.5C97.6758 49.2852 97.3691 49.0195 97.166 48.7031C96.9668 48.3828 96.8672 48.0254 96.8672 47.6309C96.8672 47.1973 96.9902 46.793 97.2363 46.418C97.4824 46.0391 97.8418 45.752 98.3145 45.5566C98.7871 45.3613 99.3125 45.2637 99.8906 45.2637C100.527 45.2637 101.088 45.3672 101.572 45.5742C102.061 45.7773 102.436 46.0781 102.697 46.4766C102.959 46.875 103.1 47.3262 103.119 47.8301L102.029 47.9121C101.971 47.3691 101.771 46.959 101.432 46.6816C101.096 46.4043 100.598 46.2656 99.9375 46.2656C99.25 46.2656 98.748 46.3926 98.4316 46.6465C98.1191 46.8965 97.9629 47.1992 97.9629 47.5547C97.9629 47.8633 98.0742 48.1172 98.2969 48.3164C98.5156 48.5156 99.0859 48.7207 100.008 48.9316C100.934 49.1387 101.568 49.3203 101.912 49.4766C102.412 49.707 102.781 50 103.02 50.3555C103.258 50.707 103.377 51.1133 103.377 51.5742C103.377 52.0312 103.246 52.4629 102.984 52.8691C102.723 53.2715 102.346 53.5859 101.854 53.8125C101.365 54.0352 100.814 54.1465 100.201 54.1465C99.4238 54.1465 98.7715 54.0332 98.2441 53.8066C97.7207 53.5801 97.3086 53.2402 97.0078 52.7871C96.7109 52.3301 96.5547 51.8145 96.5391 51.2402ZM108.855 53.2324C108.465 53.5645 108.088 53.7988 107.725 53.9355C107.365 54.0723 106.979 54.1406 106.564 54.1406C105.881 54.1406 105.355 53.9746 104.988 53.6426C104.621 53.3066 104.438 52.8789 104.438 52.3594C104.438 52.0547 104.506 51.7773 104.643 51.5273C104.783 51.2734 104.965 51.0703 105.188 50.918C105.414 50.7656 105.668 50.6504 105.949 50.5723C106.156 50.5176 106.469 50.4648 106.887 50.4141C107.738 50.3125 108.365 50.1914 108.768 50.0508C108.771 49.9062 108.773 49.8145 108.773 49.7754C108.773 49.3457 108.674 49.043 108.475 48.8672C108.205 48.6289 107.805 48.5098 107.273 48.5098C106.777 48.5098 106.41 48.5977 106.172 48.7734C105.938 48.9453 105.764 49.252 105.65 49.6934L104.619 49.5527C104.713 49.1113 104.867 48.7559 105.082 48.4863C105.297 48.2129 105.607 48.0039 106.014 47.8594C106.42 47.7109 106.891 47.6367 107.426 47.6367C107.957 47.6367 108.389 47.6992 108.721 47.8242C109.053 47.9492 109.297 48.1074 109.453 48.2988C109.609 48.4863 109.719 48.7246 109.781 49.0137C109.816 49.1934 109.834 49.5176 109.834 49.9863V51.3926C109.834 52.373 109.855 52.9941 109.898 53.2559C109.945 53.5137 110.035 53.7617 110.168 54H109.066C108.957 53.7812 108.887 53.5254 108.855 53.2324ZM108.768 50.877C108.385 51.0332 107.811 51.166 107.045 51.2754C106.611 51.3379 106.305 51.4082 106.125 51.4863C105.945 51.5645 105.807 51.6797 105.709 51.832C105.611 51.9805 105.562 52.1465 105.562 52.3301C105.562 52.6113 105.668 52.8457 105.879 53.0332C106.094 53.2207 106.406 53.3145 106.816 53.3145C107.223 53.3145 107.584 53.2266 107.9 53.0508C108.217 52.8711 108.449 52.627 108.598 52.3184C108.711 52.0801 108.768 51.7285 108.768 51.2637V50.877ZM111.475 54V47.7773H112.418V48.6504C112.613 48.3457 112.873 48.1016 113.197 47.918C113.521 47.7305 113.891 47.6367 114.305 47.6367C114.766 47.6367 115.143 47.7324 115.436 47.9238C115.732 48.1152 115.941 48.3828 116.062 48.7266C116.555 48 117.195 47.6367 117.984 47.6367C118.602 47.6367 119.076 47.8086 119.408 48.1523C119.74 48.4922 119.906 49.0176 119.906 49.7285V54H118.857V50.0801C118.857 49.6582 118.822 49.3555 118.752 49.1719C118.686 48.9844 118.562 48.834 118.383 48.7207C118.203 48.6074 117.992 48.5508 117.75 48.5508C117.312 48.5508 116.949 48.6973 116.66 48.9902C116.371 49.2793 116.227 49.7441 116.227 50.3848V54H115.172V49.957C115.172 49.4883 115.086 49.1367 114.914 48.9023C114.742 48.668 114.461 48.5508 114.07 48.5508C113.773 48.5508 113.498 48.6289 113.244 48.7852C112.994 48.9414 112.812 49.1699 112.699 49.4707C112.586 49.7715 112.529 50.2051 112.529 50.7715V54H111.475ZM121.471 56.3848V47.7773H122.432V48.5859C122.658 48.2695 122.914 48.0332 123.199 47.877C123.484 47.7168 123.83 47.6367 124.236 47.6367C124.768 47.6367 125.236 47.7734 125.643 48.0469C126.049 48.3203 126.355 48.707 126.562 49.207C126.77 49.7031 126.873 50.248 126.873 50.8418C126.873 51.4785 126.758 52.0527 126.527 52.5645C126.301 53.0723 125.969 53.4629 125.531 53.7363C125.098 54.0059 124.641 54.1406 124.16 54.1406C123.809 54.1406 123.492 54.0664 123.211 53.918C122.934 53.7695 122.705 53.582 122.525 53.3555V56.3848H121.471ZM122.426 50.9238C122.426 51.7246 122.588 52.3164 122.912 52.6992C123.236 53.082 123.629 53.2734 124.09 53.2734C124.559 53.2734 124.959 53.0762 125.291 52.6816C125.627 52.2832 125.795 51.668 125.795 50.8359C125.795 50.043 125.631 49.4492 125.303 49.0547C124.979 48.6602 124.59 48.4629 124.137 48.4629C123.688 48.4629 123.289 48.6738 122.941 49.0957C122.598 49.5137 122.426 50.123 122.426 50.9238ZM128.127 54V45.4102H129.182V54H128.127ZM135.082 51.9961L136.172 52.1309C136 52.7676 135.682 53.2617 135.217 53.6133C134.752 53.9648 134.158 54.1406 133.436 54.1406C132.525 54.1406 131.803 53.8613 131.268 53.3027C130.736 52.7402 130.471 51.9531 130.471 50.9414C130.471 49.8945 130.74 49.082 131.279 48.5039C131.818 47.9258 132.518 47.6367 133.377 47.6367C134.209 47.6367 134.889 47.9199 135.416 48.4863C135.943 49.0527 136.207 49.8496 136.207 50.877C136.207 50.9395 136.205 51.0332 136.201 51.1582H131.561C131.6 51.8418 131.793 52.3652 132.141 52.7285C132.488 53.0918 132.922 53.2734 133.441 53.2734C133.828 53.2734 134.158 53.1719 134.432 52.9688C134.705 52.7656 134.922 52.4414 135.082 51.9961ZM131.619 50.291H135.094C135.047 49.7676 134.914 49.375 134.695 49.1133C134.359 48.707 133.924 48.5039 133.389 48.5039C132.904 48.5039 132.496 48.666 132.164 48.9902C131.836 49.3145 131.654 49.748 131.619 50.291ZM141.094 54V48.5977H140.162V47.7773H141.094V47.1152C141.094 46.6973 141.131 46.3867 141.205 46.1836C141.307 45.9102 141.484 45.6895 141.738 45.5215C141.996 45.3496 142.355 45.2637 142.816 45.2637C143.113 45.2637 143.441 45.2988 143.801 45.3691L143.643 46.2891C143.424 46.25 143.217 46.2305 143.021 46.2305C142.701 46.2305 142.475 46.2988 142.342 46.4355C142.209 46.5723 142.143 46.8281 142.143 47.2031V47.7773H143.355V48.5977H142.143V54H141.094ZM144.188 46.623V45.4102H145.242V46.623H144.188ZM144.188 54V47.7773H145.242V54H144.188ZM146.83 54V45.4102H147.885V54H146.83ZM153.785 51.9961L154.875 52.1309C154.703 52.7676 154.385 53.2617 153.92 53.6133C153.455 53.9648 152.861 54.1406 152.139 54.1406C151.229 54.1406 150.506 53.8613 149.971 53.3027C149.439 52.7402 149.174 51.9531 149.174 50.9414C149.174 49.8945 149.443 49.082 149.982 48.5039C150.521 47.9258 151.221 47.6367 152.08 47.6367C152.912 47.6367 153.592 47.9199 154.119 48.4863C154.646 49.0527 154.91 49.8496 154.91 50.877C154.91 50.9395 154.908 51.0332 154.904 51.1582H150.264C150.303 51.8418 150.496 52.3652 150.844 52.7285C151.191 53.0918 151.625 53.2734 152.145 53.2734C152.531 53.2734 152.861 53.1719 153.135 52.9688C153.408 52.7656 153.625 52.4414 153.785 51.9961ZM150.322 50.291H153.797C153.75 49.7676 153.617 49.375 153.398 49.1133C153.062 48.707 152.627 48.5039 152.092 48.5039C151.607 48.5039 151.199 48.666 150.867 48.9902C150.539 49.3145 150.357 49.748 150.322 50.291ZM155.783 52.1426L156.826 51.9785C156.885 52.3965 157.047 52.7168 157.312 52.9395C157.582 53.1621 157.957 53.2734 158.438 53.2734C158.922 53.2734 159.281 53.1758 159.516 52.9805C159.75 52.7812 159.867 52.5488 159.867 52.2832C159.867 52.0449 159.764 51.8574 159.557 51.7207C159.412 51.627 159.053 51.5078 158.479 51.3633C157.705 51.168 157.168 51 156.867 50.8594C156.57 50.7148 156.344 50.5176 156.188 50.2676C156.035 50.0137 155.959 49.7344 155.959 49.4297C155.959 49.1523 156.021 48.8965 156.146 48.6621C156.275 48.4238 156.449 48.2266 156.668 48.0703C156.832 47.9492 157.055 47.8477 157.336 47.7656C157.621 47.6797 157.926 47.6367 158.25 47.6367C158.738 47.6367 159.166 47.707 159.533 47.8477C159.904 47.9883 160.178 48.1797 160.354 48.4219C160.529 48.6602 160.65 48.9805 160.717 49.3828L159.686 49.5234C159.639 49.2031 159.502 48.9531 159.275 48.7734C159.053 48.5938 158.736 48.5039 158.326 48.5039C157.842 48.5039 157.496 48.584 157.289 48.7441C157.082 48.9043 156.979 49.0918 156.979 49.3066C156.979 49.4434 157.021 49.5664 157.107 49.6758C157.193 49.7891 157.328 49.8828 157.512 49.957C157.617 49.9961 157.928 50.0859 158.443 50.2266C159.189 50.4258 159.709 50.5898 160.002 50.7188C160.299 50.8438 160.531 51.0273 160.699 51.2695C160.867 51.5117 160.951 51.8125 160.951 52.1719C160.951 52.5234 160.848 52.8555 160.641 53.168C160.438 53.4766 160.143 53.7168 159.756 53.8887C159.369 54.0566 158.932 54.1406 158.443 54.1406C157.635 54.1406 157.018 53.9727 156.592 53.6367C156.17 53.3008 155.9 52.8027 155.783 52.1426ZM167.848 53.0566L168 53.9883C167.703 54.0508 167.438 54.082 167.203 54.082C166.82 54.082 166.523 54.0215 166.312 53.9004C166.102 53.7793 165.953 53.6211 165.867 53.4258C165.781 53.2266 165.738 52.8105 165.738 52.1777V48.5977H164.965V47.7773H165.738V46.2363L166.787 45.6035V47.7773H167.848V48.5977H166.787V52.2363C166.787 52.5371 166.805 52.7305 166.84 52.8164C166.879 52.9023 166.939 52.9707 167.021 53.0215C167.107 53.0723 167.229 53.0977 167.385 53.0977C167.502 53.0977 167.656 53.084 167.848 53.0566ZM168.492 50.8887C168.492 49.7363 168.812 48.8828 169.453 48.3281C169.988 47.8672 170.641 47.6367 171.41 47.6367C172.266 47.6367 172.965 47.918 173.508 48.4805C174.051 49.0391 174.322 49.8125 174.322 50.8008C174.322 51.6016 174.201 52.2324 173.959 52.6934C173.721 53.1504 173.371 53.5059 172.91 53.7598C172.453 54.0137 171.953 54.1406 171.41 54.1406C170.539 54.1406 169.834 53.8613 169.295 53.3027C168.76 52.7441 168.492 51.9395 168.492 50.8887ZM169.576 50.8887C169.576 51.6855 169.75 52.2832 170.098 52.6816C170.445 53.0762 170.883 53.2734 171.41 53.2734C171.934 53.2734 172.369 53.0742 172.717 52.6758C173.064 52.2773 173.238 51.6699 173.238 50.8535C173.238 50.084 173.062 49.502 172.711 49.1074C172.363 48.709 171.93 48.5098 171.41 48.5098C170.883 48.5098 170.445 48.707 170.098 49.1016C169.75 49.4961 169.576 50.0918 169.576 50.8887ZM178.904 56.3848V47.7773H179.865V48.5859C180.092 48.2695 180.348 48.0332 180.633 47.877C180.918 47.7168 181.264 47.6367 181.67 47.6367C182.201 47.6367 182.67 47.7734 183.076 48.0469C183.482 48.3203 183.789 48.707 183.996 49.207C184.203 49.7031 184.307 50.248 184.307 50.8418C184.307 51.4785 184.191 52.0527 183.961 52.5645C183.734 53.0723 183.402 53.4629 182.965 53.7363C182.531 54.0059 182.074 54.1406 181.594 54.1406C181.242 54.1406 180.926 54.0664 180.645 53.918C180.367 53.7695 180.139 53.582 179.959 53.3555V56.3848H178.904ZM179.859 50.9238C179.859 51.7246 180.021 52.3164 180.346 52.6992C180.67 53.082 181.062 53.2734 181.523 53.2734C181.992 53.2734 182.393 53.0762 182.725 52.6816C183.061 52.2832 183.229 51.668 183.229 50.8359C183.229 50.043 183.064 49.4492 182.736 49.0547C182.412 48.6602 182.023 48.4629 181.57 48.4629C181.121 48.4629 180.723 48.6738 180.375 49.0957C180.031 49.5137 179.859 50.123 179.859 50.9238ZM185.572 54V47.7773H186.521V48.7207C186.764 48.2793 186.986 47.9883 187.189 47.8477C187.396 47.707 187.623 47.6367 187.869 47.6367C188.225 47.6367 188.586 47.75 188.953 47.9766L188.59 48.9551C188.332 48.8027 188.074 48.7266 187.816 48.7266C187.586 48.7266 187.379 48.7969 187.195 48.9375C187.012 49.0742 186.881 49.2656 186.803 49.5117C186.686 49.8867 186.627 50.2969 186.627 50.7422V54H185.572ZM193.641 53.2324C193.25 53.5645 192.873 53.7988 192.51 53.9355C192.15 54.0723 191.764 54.1406 191.35 54.1406C190.666 54.1406 190.141 53.9746 189.773 53.6426C189.406 53.3066 189.223 52.8789 189.223 52.3594C189.223 52.0547 189.291 51.7773 189.428 51.5273C189.568 51.2734 189.75 51.0703 189.973 50.918C190.199 50.7656 190.453 50.6504 190.734 50.5723C190.941 50.5176 191.254 50.4648 191.672 50.4141C192.523 50.3125 193.15 50.1914 193.553 50.0508C193.557 49.9062 193.559 49.8145 193.559 49.7754C193.559 49.3457 193.459 49.043 193.26 48.8672C192.99 48.6289 192.59 48.5098 192.059 48.5098C191.562 48.5098 191.195 48.5977 190.957 48.7734C190.723 48.9453 190.549 49.252 190.436 49.6934L189.404 49.5527C189.498 49.1113 189.652 48.7559 189.867 48.4863C190.082 48.2129 190.393 48.0039 190.799 47.8594C191.205 47.7109 191.676 47.6367 192.211 47.6367C192.742 47.6367 193.174 47.6992 193.506 47.8242C193.838 47.9492 194.082 48.1074 194.238 48.2988C194.395 48.4863 194.504 48.7246 194.566 49.0137C194.602 49.1934 194.619 49.5176 194.619 49.9863V51.3926C194.619 52.373 194.641 52.9941 194.684 53.2559C194.73 53.5137 194.82 53.7617 194.953 54H193.852C193.742 53.7812 193.672 53.5254 193.641 53.2324ZM193.553 50.877C193.17 51.0332 192.596 51.166 191.83 51.2754C191.396 51.3379 191.09 51.4082 190.91 51.4863C190.73 51.5645 190.592 51.6797 190.494 51.832C190.396 51.9805 190.348 52.1465 190.348 52.3301C190.348 52.6113 190.453 52.8457 190.664 53.0332C190.879 53.2207 191.191 53.3145 191.602 53.3145C192.008 53.3145 192.369 53.2266 192.686 53.0508C193.002 52.8711 193.234 52.627 193.383 52.3184C193.496 52.0801 193.553 51.7285 193.553 51.2637V50.877ZM200.32 51.7207L201.357 51.8555C201.244 52.5703 200.953 53.1309 200.484 53.5371C200.02 53.9395 199.447 54.1406 198.768 54.1406C197.916 54.1406 197.23 53.8633 196.711 53.3086C196.195 52.75 195.938 51.9512 195.938 50.9121C195.938 50.2402 196.049 49.6523 196.271 49.1484C196.494 48.6445 196.832 48.2676 197.285 48.0176C197.742 47.7637 198.238 47.6367 198.773 47.6367C199.449 47.6367 200.002 47.8086 200.432 48.1523C200.861 48.4922 201.137 48.9766 201.258 49.6055L200.232 49.7637C200.135 49.3457 199.961 49.0312 199.711 48.8203C199.465 48.6094 199.166 48.5039 198.814 48.5039C198.283 48.5039 197.852 48.6953 197.52 49.0781C197.188 49.457 197.021 50.0586 197.021 50.8828C197.021 51.7188 197.182 52.3262 197.502 52.7051C197.822 53.084 198.24 53.2734 198.756 53.2734C199.17 53.2734 199.516 53.1465 199.793 52.8926C200.07 52.6387 200.246 52.248 200.32 51.7207ZM204.562 53.0566L204.715 53.9883C204.418 54.0508 204.152 54.082 203.918 54.082C203.535 54.082 203.238 54.0215 203.027 53.9004C202.816 53.7793 202.668 53.6211 202.582 53.4258C202.496 53.2266 202.453 52.8105 202.453 52.1777V48.5977H201.68V47.7773H202.453V46.2363L203.502 45.6035V47.7773H204.562V48.5977H203.502V52.2363C203.502 52.5371 203.52 52.7305 203.555 52.8164C203.594 52.9023 203.654 52.9707 203.736 53.0215C203.822 53.0723 203.943 53.0977 204.1 53.0977C204.217 53.0977 204.371 53.084 204.562 53.0566ZM205.605 46.623V45.4102H206.66V46.623H205.605ZM205.605 54V47.7773H206.66V54H205.605ZM212.332 51.7207L213.369 51.8555C213.256 52.5703 212.965 53.1309 212.496 53.5371C212.031 53.9395 211.459 54.1406 210.779 54.1406C209.928 54.1406 209.242 53.8633 208.723 53.3086C208.207 52.75 207.949 51.9512 207.949 50.9121C207.949 50.2402 208.061 49.6523 208.283 49.1484C208.506 48.6445 208.844 48.2676 209.297 48.0176C209.754 47.7637 210.25 47.6367 210.785 47.6367C211.461 47.6367 212.014 47.8086 212.443 48.1523C212.873 48.4922 213.148 48.9766 213.27 49.6055L212.244 49.7637C212.146 49.3457 211.973 49.0312 211.723 48.8203C211.477 48.6094 211.178 48.5039 210.826 48.5039C210.295 48.5039 209.863 48.6953 209.531 49.0781C209.199 49.457 209.033 50.0586 209.033 50.8828C209.033 51.7188 209.193 52.3262 209.514 52.7051C209.834 53.084 210.252 53.2734 210.768 53.2734C211.182 53.2734 211.527 53.1465 211.805 52.8926C212.082 52.6387 212.258 52.248 212.332 51.7207ZM218.531 51.9961L219.621 52.1309C219.449 52.7676 219.131 53.2617 218.666 53.6133C218.201 53.9648 217.607 54.1406 216.885 54.1406C215.975 54.1406 215.252 53.8613 214.717 53.3027C214.186 52.7402 213.92 51.9531 213.92 50.9414C213.92 49.8945 214.189 49.082 214.729 48.5039C215.268 47.9258 215.967 47.6367 216.826 47.6367C217.658 47.6367 218.338 47.9199 218.865 48.4863C219.393 49.0527 219.656 49.8496 219.656 50.877C219.656 50.9395 219.654 51.0332 219.65 51.1582H215.01C215.049 51.8418 215.242 52.3652 215.59 52.7285C215.938 53.0918 216.371 53.2734 216.891 53.2734C217.277 53.2734 217.607 53.1719 217.881 52.9688C218.154 52.7656 218.371 52.4414 218.531 51.9961ZM215.068 50.291H218.543C218.496 49.7676 218.363 49.375 218.145 49.1133C217.809 48.707 217.373 48.5039 216.838 48.5039C216.354 48.5039 215.945 48.666 215.613 48.9902C215.285 49.3145 215.104 49.748 215.068 50.291ZM225.439 54L223.535 47.7773H224.625L225.615 51.3691L225.984 52.7051C226 52.6387 226.107 52.2109 226.307 51.4219L227.297 47.7773H228.381L229.312 51.3867L229.623 52.5762L229.98 51.375L231.047 47.7773H232.072L230.127 54H229.031L228.041 50.2734L227.801 49.2129L226.541 54H225.439ZM232.969 46.623V45.4102H234.023V46.623H232.969ZM232.969 54V47.7773H234.023V54H232.969ZM237.938 53.0566L238.09 53.9883C237.793 54.0508 237.527 54.082 237.293 54.082C236.91 54.082 236.613 54.0215 236.402 53.9004C236.191 53.7793 236.043 53.6211 235.957 53.4258C235.871 53.2266 235.828 52.8105 235.828 52.1777V48.5977H235.055V47.7773H235.828V46.2363L236.877 45.6035V47.7773H237.938V48.5977H236.877V52.2363C236.877 52.5371 236.895 52.7305 236.93 52.8164C236.969 52.9023 237.029 52.9707 237.111 53.0215C237.197 53.0723 237.318 53.0977 237.475 53.0977C237.592 53.0977 237.746 53.084 237.938 53.0566ZM238.975 54V45.4102H240.029V48.4922C240.521 47.9219 241.143 47.6367 241.893 47.6367C242.354 47.6367 242.754 47.7285 243.094 47.9121C243.434 48.0918 243.676 48.3418 243.82 48.6621C243.969 48.9824 244.043 49.4473 244.043 50.0566V54H242.988V50.0566C242.988 49.5293 242.873 49.1465 242.643 48.9082C242.416 48.666 242.094 48.5449 241.676 48.5449C241.363 48.5449 241.068 48.627 240.791 48.791C240.518 48.9512 240.322 49.1699 240.205 49.4473C240.088 49.7246 240.029 50.1074 240.029 50.5957V54H238.975ZM251.01 56.5254C250.428 55.791 249.936 54.9316 249.533 53.9473C249.131 52.9629 248.93 51.9434 248.93 50.8887C248.93 49.959 249.08 49.0684 249.381 48.2168C249.732 47.2285 250.275 46.2441 251.01 45.2637H251.766C251.293 46.0762 250.98 46.6562 250.828 47.0039C250.59 47.543 250.402 48.1055 250.266 48.6914C250.098 49.4219 250.014 50.1562 250.014 50.8945C250.014 52.7734 250.598 54.6504 251.766 56.5254H251.01ZM252.439 54V52.9453L256.84 47.4434C257.152 47.0527 257.449 46.7129 257.73 46.4238H252.938V45.4102H259.09V46.4238L254.268 52.3828L253.746 52.9863H259.23V54H252.439ZM260.654 54V45.4102H261.791V54H260.654ZM263.801 54V45.4102H267.041C267.611 45.4102 268.047 45.4375 268.348 45.4922C268.77 45.5625 269.123 45.6973 269.408 45.8965C269.693 46.0918 269.922 46.3672 270.094 46.7227C270.27 47.0781 270.357 47.4688 270.357 47.8945C270.357 48.625 270.125 49.2441 269.66 49.752C269.195 50.2559 268.355 50.5078 267.141 50.5078H264.938V54H263.801ZM264.938 49.4941H267.158C267.893 49.4941 268.414 49.3574 268.723 49.084C269.031 48.8105 269.186 48.4258 269.186 47.9297C269.186 47.5703 269.094 47.2637 268.91 47.0098C268.73 46.752 268.492 46.582 268.195 46.5C268.004 46.4492 267.65 46.4238 267.135 46.4238H264.938V49.4941ZM270.398 54V52.7988H271.6V54C271.6 54.4414 271.521 54.7969 271.365 55.0664C271.209 55.3398 270.961 55.5508 270.621 55.6992L270.328 55.248C270.551 55.1504 270.715 55.0059 270.82 54.8145C270.926 54.627 270.984 54.3555 270.996 54H270.398ZM280.482 54H279.428V47.2793C279.174 47.5215 278.84 47.7637 278.426 48.0059C278.016 48.248 277.646 48.4297 277.318 48.5508V47.5312C277.908 47.2539 278.424 46.918 278.865 46.5234C279.307 46.1289 279.619 45.7461 279.803 45.375H280.482V54ZM283.189 51.75L284.297 51.6562C284.379 52.1953 284.568 52.6016 284.865 52.875C285.166 53.1445 285.527 53.2793 285.949 53.2793C286.457 53.2793 286.887 53.0879 287.238 52.7051C287.59 52.3223 287.766 51.8145 287.766 51.1816C287.766 50.5801 287.596 50.1055 287.256 49.7578C286.92 49.4102 286.479 49.2363 285.932 49.2363C285.592 49.2363 285.285 49.3145 285.012 49.4707C284.738 49.623 284.523 49.8223 284.367 50.0684L283.377 49.9395L284.209 45.5273H288.48V46.5352H285.053L284.59 48.8438C285.105 48.4844 285.646 48.3047 286.213 48.3047C286.963 48.3047 287.596 48.5645 288.111 49.084C288.627 49.6035 288.885 50.2715 288.885 51.0879C288.885 51.8652 288.658 52.5371 288.205 53.1035C287.654 53.7988 286.902 54.1465 285.949 54.1465C285.168 54.1465 284.529 53.9277 284.033 53.4902C283.541 53.0527 283.26 52.4727 283.189 51.75ZM290.262 54V45.4102H291.973L294.006 51.4922C294.193 52.0586 294.33 52.4824 294.416 52.7637C294.514 52.4512 294.666 51.9922 294.873 51.3867L296.93 45.4102H298.459V54H297.363V46.8105L294.867 54H293.842L291.357 46.6875V54H290.262ZM300.246 54V45.4102H303.469C304.125 45.4102 304.65 45.498 305.045 45.6738C305.443 45.8457 305.754 46.1133 305.977 46.4766C306.203 46.8359 306.316 47.2129 306.316 47.6074C306.316 47.9746 306.217 48.3203 306.018 48.6445C305.818 48.9688 305.518 49.2305 305.115 49.4297C305.635 49.582 306.033 49.8418 306.311 50.209C306.592 50.5762 306.732 51.0098 306.732 51.5098C306.732 51.9121 306.646 52.2871 306.475 52.6348C306.307 52.9785 306.098 53.2441 305.848 53.4316C305.598 53.6191 305.283 53.7617 304.904 53.8594C304.529 53.9531 304.068 54 303.521 54H300.246ZM301.383 49.0195H303.24C303.744 49.0195 304.105 48.9863 304.324 48.9199C304.613 48.834 304.83 48.6914 304.975 48.4922C305.123 48.293 305.197 48.043 305.197 47.7422C305.197 47.457 305.129 47.207 304.992 46.9922C304.855 46.7734 304.66 46.625 304.406 46.5469C304.152 46.4648 303.717 46.4238 303.1 46.4238H301.383V49.0195ZM301.383 52.9863H303.521C303.889 52.9863 304.146 52.9727 304.295 52.9453C304.557 52.8984 304.775 52.8203 304.951 52.7109C305.127 52.6016 305.271 52.4434 305.385 52.2363C305.498 52.0254 305.555 51.7832 305.555 51.5098C305.555 51.1895 305.473 50.9121 305.309 50.6777C305.145 50.4395 304.916 50.2734 304.623 50.1797C304.334 50.082 303.916 50.0332 303.369 50.0332H301.383V52.9863ZM308.854 56.5254H308.098C309.266 54.6504 309.85 52.7734 309.85 50.8945C309.85 50.1602 309.766 49.4316 309.598 48.709C309.465 48.123 309.279 47.5605 309.041 47.0215C308.889 46.6699 308.574 46.084 308.098 45.2637H308.854C309.588 46.2441 310.131 47.2285 310.482 48.2168C310.783 49.0684 310.934 49.959 310.934 50.8887C310.934 51.9434 310.73 52.9629 310.324 53.9473C309.922 54.9316 309.432 55.791 308.854 56.5254Z" fill="#666666"/>
</svg>