<svg width="704" height="361" viewBox="0 0 704 361" fill="none" xmlns="http://www.w3.org/2000/svg">
<g clip-path="url(#clip0_516_584)">
<rect width="704" height="360" transform="translate(0 0.861267)" fill="#BFC6CE"/>
<path d="M-1 360.861L704 -0.138733" stroke="#E5E5E5" stroke-width="2"/>
<path d="M704 360.861L1.16941 1.75482" stroke="#E5E5E5" stroke-width="2"/>
<path d="M209.602 313.385L210.992 313.166C211.07 313.723 211.286 314.15 211.641 314.447C212 314.744 212.5 314.893 213.141 314.893C213.786 314.893 214.266 314.762 214.578 314.502C214.891 314.236 215.047 313.926 215.047 313.572C215.047 313.254 214.909 313.004 214.633 312.822C214.44 312.697 213.961 312.538 213.195 312.346C212.164 312.085 211.448 311.861 211.047 311.674C210.651 311.481 210.349 311.218 210.141 310.885C209.938 310.546 209.836 310.174 209.836 309.768C209.836 309.398 209.919 309.057 210.086 308.744C210.258 308.426 210.49 308.163 210.781 307.955C211 307.794 211.297 307.658 211.672 307.549C212.052 307.434 212.458 307.377 212.891 307.377C213.542 307.377 214.112 307.471 214.602 307.658C215.096 307.846 215.461 308.101 215.695 308.424C215.93 308.741 216.091 309.169 216.18 309.705L214.805 309.893C214.742 309.465 214.56 309.132 214.258 308.893C213.961 308.653 213.539 308.533 212.992 308.533C212.346 308.533 211.885 308.64 211.609 308.853C211.333 309.067 211.195 309.317 211.195 309.603C211.195 309.786 211.253 309.95 211.367 310.096C211.482 310.247 211.661 310.372 211.906 310.471C212.047 310.523 212.461 310.643 213.148 310.83C214.143 311.096 214.836 311.314 215.227 311.486C215.622 311.653 215.932 311.898 216.156 312.221C216.38 312.544 216.492 312.945 216.492 313.424C216.492 313.893 216.354 314.335 216.078 314.752C215.807 315.163 215.414 315.484 214.898 315.713C214.383 315.937 213.799 316.049 213.148 316.049C212.07 316.049 211.247 315.825 210.68 315.377C210.117 314.929 209.758 314.265 209.602 313.385ZM223.844 313.189L225.297 313.369C225.068 314.218 224.643 314.877 224.023 315.346C223.404 315.814 222.612 316.049 221.648 316.049C220.435 316.049 219.471 315.676 218.758 314.932C218.049 314.182 217.695 313.132 217.695 311.783C217.695 310.387 218.055 309.304 218.773 308.533C219.492 307.762 220.424 307.377 221.57 307.377C222.68 307.377 223.586 307.754 224.289 308.51C224.992 309.265 225.344 310.327 225.344 311.697C225.344 311.781 225.341 311.906 225.336 312.072H219.148C219.201 312.984 219.458 313.682 219.922 314.166C220.385 314.65 220.964 314.893 221.656 314.893C222.172 314.893 222.612 314.757 222.977 314.486C223.341 314.215 223.63 313.783 223.844 313.189ZM219.227 310.916H223.859C223.797 310.218 223.62 309.695 223.328 309.346C222.88 308.804 222.299 308.533 221.586 308.533C220.94 308.533 220.396 308.749 219.953 309.182C219.516 309.614 219.273 310.192 219.227 310.916ZM227.039 315.861V304.408H228.445V315.861H227.039ZM236.312 313.189L237.766 313.369C237.536 314.218 237.112 314.877 236.492 315.346C235.872 315.814 235.081 316.049 234.117 316.049C232.904 316.049 231.94 315.676 231.227 314.932C230.518 314.182 230.164 313.132 230.164 311.783C230.164 310.387 230.523 309.304 231.242 308.533C231.961 307.762 232.893 307.377 234.039 307.377C235.148 307.377 236.055 307.754 236.758 308.51C237.461 309.265 237.812 310.327 237.812 311.697C237.812 311.781 237.81 311.906 237.805 312.072H231.617C231.669 312.984 231.927 313.682 232.391 314.166C232.854 314.65 233.432 314.893 234.125 314.893C234.641 314.893 235.081 314.757 235.445 314.486C235.81 314.215 236.099 313.783 236.312 313.189ZM231.695 310.916H236.328C236.266 310.218 236.089 309.695 235.797 309.346C235.349 308.804 234.768 308.533 234.055 308.533C233.409 308.533 232.865 308.749 232.422 309.182C231.984 309.614 231.742 310.192 231.695 310.916ZM244.953 312.822L246.336 313.002C246.185 313.955 245.797 314.702 245.172 315.244C244.552 315.781 243.789 316.049 242.883 316.049C241.747 316.049 240.833 315.679 240.141 314.939C239.453 314.195 239.109 313.129 239.109 311.744C239.109 310.848 239.258 310.064 239.555 309.393C239.852 308.721 240.302 308.218 240.906 307.885C241.516 307.546 242.177 307.377 242.891 307.377C243.792 307.377 244.529 307.606 245.102 308.064C245.674 308.518 246.042 309.163 246.203 310.002L244.836 310.213C244.706 309.656 244.474 309.236 244.141 308.955C243.812 308.674 243.414 308.533 242.945 308.533C242.237 308.533 241.661 308.788 241.219 309.299C240.776 309.804 240.555 310.606 240.555 311.705C240.555 312.82 240.768 313.629 241.195 314.135C241.622 314.64 242.18 314.893 242.867 314.893C243.419 314.893 243.88 314.723 244.25 314.385C244.62 314.046 244.854 313.525 244.953 312.822ZM250.609 314.603L250.812 315.846C250.417 315.929 250.062 315.971 249.75 315.971C249.24 315.971 248.844 315.89 248.562 315.728C248.281 315.567 248.083 315.356 247.969 315.096C247.854 314.83 247.797 314.275 247.797 313.432V308.658H246.766V307.564H247.797V305.51L249.195 304.666V307.564H250.609V308.658H249.195V313.51C249.195 313.911 249.219 314.169 249.266 314.283C249.318 314.398 249.398 314.489 249.508 314.557C249.622 314.624 249.784 314.658 249.992 314.658C250.148 314.658 250.354 314.64 250.609 314.603ZM256.383 319.057L256.227 317.736C256.534 317.82 256.802 317.861 257.031 317.861C257.344 317.861 257.594 317.809 257.781 317.705C257.969 317.601 258.122 317.455 258.242 317.268C258.331 317.127 258.474 316.778 258.672 316.221C258.698 316.143 258.74 316.028 258.797 315.877L255.648 307.564H257.164L258.891 312.369C259.115 312.978 259.315 313.619 259.492 314.291C259.654 313.645 259.846 313.015 260.07 312.4L261.844 307.564H263.25L260.094 316.002C259.755 316.913 259.492 317.541 259.305 317.885C259.055 318.348 258.768 318.687 258.445 318.9C258.122 319.119 257.737 319.228 257.289 319.228C257.018 319.228 256.716 319.171 256.383 319.057ZM263.922 311.713C263.922 310.176 264.349 309.038 265.203 308.299C265.917 307.684 266.786 307.377 267.812 307.377C268.953 307.377 269.885 307.752 270.609 308.502C271.333 309.247 271.695 310.278 271.695 311.596C271.695 312.663 271.534 313.504 271.211 314.119C270.893 314.728 270.427 315.202 269.812 315.541C269.203 315.879 268.536 316.049 267.812 316.049C266.651 316.049 265.711 315.676 264.992 314.932C264.279 314.187 263.922 313.114 263.922 311.713ZM265.367 311.713C265.367 312.775 265.599 313.572 266.062 314.103C266.526 314.629 267.109 314.893 267.812 314.893C268.51 314.893 269.091 314.627 269.555 314.096C270.018 313.564 270.25 312.754 270.25 311.666C270.25 310.64 270.016 309.864 269.547 309.338C269.083 308.807 268.505 308.541 267.812 308.541C267.109 308.541 266.526 308.804 266.062 309.33C265.599 309.856 265.367 310.65 265.367 311.713ZM278.789 315.861V314.643C278.143 315.58 277.266 316.049 276.156 316.049C275.667 316.049 275.208 315.955 274.781 315.768C274.359 315.58 274.044 315.346 273.836 315.064C273.633 314.778 273.49 314.429 273.406 314.018C273.349 313.741 273.32 313.304 273.32 312.705V307.564H274.727V312.166C274.727 312.9 274.755 313.395 274.812 313.65C274.901 314.02 275.089 314.312 275.375 314.525C275.661 314.734 276.016 314.838 276.438 314.838C276.859 314.838 277.255 314.731 277.625 314.518C277.995 314.299 278.255 314.004 278.406 313.635C278.562 313.26 278.641 312.718 278.641 312.01V307.564H280.047V315.861H278.789ZM282.242 315.861V307.564H283.508V308.822C283.831 308.234 284.128 307.846 284.398 307.658C284.674 307.471 284.977 307.377 285.305 307.377C285.779 307.377 286.26 307.528 286.75 307.83L286.266 309.135C285.922 308.932 285.578 308.83 285.234 308.83C284.927 308.83 284.651 308.924 284.406 309.111C284.161 309.294 283.987 309.549 283.883 309.877C283.727 310.377 283.648 310.924 283.648 311.518V315.861H282.242ZM292.047 306.025V304.408H293.453V306.025H292.047ZM292.047 315.861V307.564H293.453V315.861H292.047ZM295.602 315.861V307.564H296.859V308.728C297.12 308.322 297.466 307.997 297.898 307.752C298.331 307.502 298.823 307.377 299.375 307.377C299.99 307.377 300.492 307.504 300.883 307.76C301.279 308.015 301.557 308.372 301.719 308.83C302.375 307.861 303.229 307.377 304.281 307.377C305.104 307.377 305.737 307.606 306.18 308.064C306.622 308.518 306.844 309.218 306.844 310.166V315.861H305.445V310.635C305.445 310.072 305.398 309.669 305.305 309.424C305.216 309.174 305.052 308.973 304.812 308.822C304.573 308.671 304.292 308.596 303.969 308.596C303.385 308.596 302.901 308.791 302.516 309.182C302.13 309.567 301.938 310.187 301.938 311.041V315.861H300.531V310.471C300.531 309.846 300.417 309.377 300.188 309.064C299.958 308.752 299.583 308.596 299.062 308.596C298.667 308.596 298.299 308.7 297.961 308.908C297.628 309.116 297.385 309.421 297.234 309.822C297.083 310.223 297.008 310.801 297.008 311.557V315.861H295.602ZM314.344 314.838C313.823 315.281 313.32 315.593 312.836 315.775C312.357 315.958 311.841 316.049 311.289 316.049C310.378 316.049 309.677 315.827 309.188 315.385C308.698 314.937 308.453 314.366 308.453 313.674C308.453 313.268 308.544 312.898 308.727 312.564C308.914 312.226 309.156 311.955 309.453 311.752C309.755 311.549 310.094 311.395 310.469 311.291C310.745 311.218 311.161 311.148 311.719 311.08C312.854 310.945 313.69 310.783 314.227 310.596C314.232 310.403 314.234 310.281 314.234 310.228C314.234 309.656 314.102 309.252 313.836 309.018C313.477 308.7 312.943 308.541 312.234 308.541C311.573 308.541 311.083 308.658 310.766 308.893C310.453 309.122 310.221 309.531 310.07 310.119L308.695 309.932C308.82 309.343 309.026 308.869 309.312 308.51C309.599 308.145 310.013 307.866 310.555 307.674C311.096 307.476 311.724 307.377 312.438 307.377C313.146 307.377 313.721 307.46 314.164 307.627C314.607 307.794 314.932 308.004 315.141 308.26C315.349 308.51 315.495 308.827 315.578 309.213C315.625 309.452 315.648 309.885 315.648 310.51V312.385C315.648 313.692 315.677 314.52 315.734 314.869C315.797 315.213 315.917 315.544 316.094 315.861H314.625C314.479 315.57 314.385 315.228 314.344 314.838ZM314.227 311.697C313.716 311.906 312.951 312.083 311.93 312.228C311.352 312.312 310.943 312.406 310.703 312.51C310.464 312.614 310.279 312.768 310.148 312.971C310.018 313.169 309.953 313.39 309.953 313.635C309.953 314.01 310.094 314.322 310.375 314.572C310.661 314.822 311.078 314.947 311.625 314.947C312.167 314.947 312.648 314.83 313.07 314.596C313.492 314.356 313.802 314.031 314 313.619C314.151 313.301 314.227 312.833 314.227 312.213V311.697ZM317.578 316.549L318.945 316.752C319.003 317.174 319.161 317.481 319.422 317.674C319.771 317.934 320.247 318.064 320.852 318.064C321.503 318.064 322.005 317.934 322.359 317.674C322.714 317.413 322.953 317.049 323.078 316.58C323.151 316.294 323.185 315.692 323.18 314.775C322.565 315.499 321.799 315.861 320.883 315.861C319.742 315.861 318.859 315.45 318.234 314.627C317.609 313.804 317.297 312.817 317.297 311.666C317.297 310.874 317.44 310.145 317.727 309.478C318.013 308.807 318.427 308.288 318.969 307.924C319.516 307.559 320.156 307.377 320.891 307.377C321.87 307.377 322.677 307.773 323.312 308.564V307.564H324.609V314.736C324.609 316.028 324.477 316.942 324.211 317.478C323.951 318.02 323.534 318.447 322.961 318.76C322.393 319.072 321.693 319.228 320.859 319.228C319.87 319.228 319.07 319.004 318.461 318.557C317.852 318.114 317.557 317.445 317.578 316.549ZM318.742 311.564C318.742 312.653 318.958 313.447 319.391 313.947C319.823 314.447 320.365 314.697 321.016 314.697C321.661 314.697 322.203 314.45 322.641 313.955C323.078 313.455 323.297 312.674 323.297 311.611C323.297 310.596 323.07 309.83 322.617 309.314C322.169 308.799 321.628 308.541 320.992 308.541C320.367 308.541 319.836 308.796 319.398 309.307C318.961 309.812 318.742 310.564 318.742 311.564ZM332.422 313.189L333.875 313.369C333.646 314.218 333.221 314.877 332.602 315.346C331.982 315.814 331.19 316.049 330.227 316.049C329.013 316.049 328.049 315.676 327.336 314.932C326.628 314.182 326.273 313.132 326.273 311.783C326.273 310.387 326.633 309.304 327.352 308.533C328.07 307.762 329.003 307.377 330.148 307.377C331.258 307.377 332.164 307.754 332.867 308.51C333.57 309.265 333.922 310.327 333.922 311.697C333.922 311.781 333.919 311.906 333.914 312.072H327.727C327.779 312.984 328.036 313.682 328.5 314.166C328.964 314.65 329.542 314.893 330.234 314.893C330.75 314.893 331.19 314.757 331.555 314.486C331.919 314.215 332.208 313.783 332.422 313.189ZM327.805 310.916H332.438C332.375 310.218 332.198 309.695 331.906 309.346C331.458 308.804 330.878 308.533 330.164 308.533C329.518 308.533 328.974 308.749 328.531 309.182C328.094 309.614 327.852 310.192 327.805 310.916ZM340.438 315.861V308.658H339.195V307.564H340.438V306.682C340.438 306.124 340.487 305.71 340.586 305.439C340.721 305.075 340.958 304.781 341.297 304.557C341.641 304.327 342.12 304.213 342.734 304.213C343.13 304.213 343.568 304.26 344.047 304.353L343.836 305.58C343.544 305.528 343.268 305.502 343.008 305.502C342.581 305.502 342.279 305.593 342.102 305.775C341.924 305.958 341.836 306.299 341.836 306.799V307.564H343.453V308.658H341.836V315.861H340.438ZM344.539 315.861V307.564H345.805V308.822C346.128 308.234 346.424 307.846 346.695 307.658C346.971 307.471 347.273 307.377 347.602 307.377C348.076 307.377 348.557 307.528 349.047 307.83L348.562 309.135C348.219 308.932 347.875 308.83 347.531 308.83C347.224 308.83 346.948 308.924 346.703 309.111C346.458 309.294 346.284 309.549 346.18 309.877C346.023 310.377 345.945 310.924 345.945 311.518V315.861H344.539ZM349.359 311.713C349.359 310.176 349.786 309.038 350.641 308.299C351.354 307.684 352.224 307.377 353.25 307.377C354.391 307.377 355.323 307.752 356.047 308.502C356.771 309.247 357.133 310.278 357.133 311.596C357.133 312.663 356.971 313.504 356.648 314.119C356.331 314.728 355.865 315.202 355.25 315.541C354.641 315.879 353.974 316.049 353.25 316.049C352.089 316.049 351.148 315.676 350.43 314.932C349.716 314.187 349.359 313.114 349.359 311.713ZM350.805 311.713C350.805 312.775 351.036 313.572 351.5 314.103C351.964 314.629 352.547 314.893 353.25 314.893C353.948 314.893 354.529 314.627 354.992 314.096C355.456 313.564 355.688 312.754 355.688 311.666C355.688 310.64 355.453 309.864 354.984 309.338C354.521 308.807 353.943 308.541 353.25 308.541C352.547 308.541 351.964 308.804 351.5 309.33C351.036 309.856 350.805 310.65 350.805 311.713ZM358.789 315.861V307.564H360.047V308.728C360.307 308.322 360.654 307.997 361.086 307.752C361.518 307.502 362.01 307.377 362.562 307.377C363.177 307.377 363.68 307.504 364.07 307.76C364.466 308.015 364.745 308.372 364.906 308.83C365.562 307.861 366.417 307.377 367.469 307.377C368.292 307.377 368.924 307.606 369.367 308.064C369.81 308.518 370.031 309.218 370.031 310.166V315.861H368.633V310.635C368.633 310.072 368.586 309.669 368.492 309.424C368.404 309.174 368.24 308.973 368 308.822C367.76 308.671 367.479 308.596 367.156 308.596C366.573 308.596 366.089 308.791 365.703 309.182C365.318 309.567 365.125 310.187 365.125 311.041V315.861H363.719V310.471C363.719 309.846 363.604 309.377 363.375 309.064C363.146 308.752 362.771 308.596 362.25 308.596C361.854 308.596 361.487 308.7 361.148 308.908C360.815 309.116 360.573 309.421 360.422 309.822C360.271 310.223 360.195 310.801 360.195 311.557V315.861H358.789ZM379.641 314.603L379.844 315.846C379.448 315.929 379.094 315.971 378.781 315.971C378.271 315.971 377.875 315.89 377.594 315.728C377.312 315.567 377.115 315.356 377 315.096C376.885 314.83 376.828 314.275 376.828 313.432V308.658H375.797V307.564H376.828V305.51L378.227 304.666V307.564H379.641V308.658H378.227V313.51C378.227 313.911 378.25 314.169 378.297 314.283C378.349 314.398 378.43 314.489 378.539 314.557C378.654 314.624 378.815 314.658 379.023 314.658C379.18 314.658 379.385 314.64 379.641 314.603ZM381.023 315.861V304.408H382.43V308.518C383.086 307.757 383.914 307.377 384.914 307.377C385.529 307.377 386.062 307.499 386.516 307.744C386.969 307.984 387.292 308.317 387.484 308.744C387.682 309.171 387.781 309.791 387.781 310.603V315.861H386.375V310.603C386.375 309.9 386.221 309.39 385.914 309.072C385.612 308.749 385.182 308.588 384.625 308.588C384.208 308.588 383.815 308.697 383.445 308.916C383.081 309.129 382.82 309.421 382.664 309.791C382.508 310.161 382.43 310.671 382.43 311.322V315.861H381.023ZM395.609 313.189L397.062 313.369C396.833 314.218 396.409 314.877 395.789 315.346C395.169 315.814 394.378 316.049 393.414 316.049C392.201 316.049 391.237 315.676 390.523 314.932C389.815 314.182 389.461 313.132 389.461 311.783C389.461 310.387 389.82 309.304 390.539 308.533C391.258 307.762 392.19 307.377 393.336 307.377C394.445 307.377 395.352 307.754 396.055 308.51C396.758 309.265 397.109 310.327 397.109 311.697C397.109 311.781 397.107 311.906 397.102 312.072H390.914C390.966 312.984 391.224 313.682 391.688 314.166C392.151 314.65 392.729 314.893 393.422 314.893C393.938 314.893 394.378 314.757 394.742 314.486C395.107 314.215 395.396 313.783 395.609 313.189ZM390.992 310.916H395.625C395.562 310.218 395.385 309.695 395.094 309.346C394.646 308.804 394.065 308.533 393.352 308.533C392.706 308.533 392.161 308.749 391.719 309.182C391.281 309.614 391.039 310.192 390.992 310.916ZM403.289 315.861V307.564H404.547V308.728C404.807 308.322 405.154 307.997 405.586 307.752C406.018 307.502 406.51 307.377 407.062 307.377C407.677 307.377 408.18 307.504 408.57 307.76C408.966 308.015 409.245 308.372 409.406 308.83C410.062 307.861 410.917 307.377 411.969 307.377C412.792 307.377 413.424 307.606 413.867 308.064C414.31 308.518 414.531 309.218 414.531 310.166V315.861H413.133V310.635C413.133 310.072 413.086 309.669 412.992 309.424C412.904 309.174 412.74 308.973 412.5 308.822C412.26 308.671 411.979 308.596 411.656 308.596C411.073 308.596 410.589 308.791 410.203 309.182C409.818 309.567 409.625 310.187 409.625 311.041V315.861H408.219V310.471C408.219 309.846 408.104 309.377 407.875 309.064C407.646 308.752 407.271 308.596 406.75 308.596C406.354 308.596 405.987 308.7 405.648 308.908C405.315 309.116 405.073 309.421 404.922 309.822C404.771 310.223 404.695 310.801 404.695 311.557V315.861H403.289ZM422.297 313.189L423.75 313.369C423.521 314.218 423.096 314.877 422.477 315.346C421.857 315.814 421.065 316.049 420.102 316.049C418.888 316.049 417.924 315.676 417.211 314.932C416.503 314.182 416.148 313.132 416.148 311.783C416.148 310.387 416.508 309.304 417.227 308.533C417.945 307.762 418.878 307.377 420.023 307.377C421.133 307.377 422.039 307.754 422.742 308.51C423.445 309.265 423.797 310.327 423.797 311.697C423.797 311.781 423.794 311.906 423.789 312.072H417.602C417.654 312.984 417.911 313.682 418.375 314.166C418.839 314.65 419.417 314.893 420.109 314.893C420.625 314.893 421.065 314.757 421.43 314.486C421.794 314.215 422.083 313.783 422.297 313.189ZM417.68 310.916H422.312C422.25 310.218 422.073 309.695 421.781 309.346C421.333 308.804 420.753 308.533 420.039 308.533C419.393 308.533 418.849 308.749 418.406 309.182C417.969 309.614 417.727 310.192 417.68 310.916ZM430.906 315.861V314.814C430.38 315.637 429.607 316.049 428.586 316.049C427.924 316.049 427.315 315.866 426.758 315.502C426.206 315.137 425.776 314.629 425.469 313.978C425.167 313.322 425.016 312.57 425.016 311.721C425.016 310.893 425.154 310.143 425.43 309.471C425.706 308.794 426.12 308.275 426.672 307.916C427.224 307.557 427.841 307.377 428.523 307.377C429.023 307.377 429.469 307.484 429.859 307.697C430.25 307.906 430.568 308.179 430.812 308.518V304.408H432.211V315.861H430.906ZM426.461 311.721C426.461 312.783 426.685 313.577 427.133 314.103C427.581 314.629 428.109 314.893 428.719 314.893C429.333 314.893 429.854 314.643 430.281 314.143C430.714 313.637 430.93 312.869 430.93 311.838C430.93 310.702 430.711 309.869 430.273 309.338C429.836 308.807 429.297 308.541 428.656 308.541C428.031 308.541 427.508 308.796 427.086 309.307C426.669 309.817 426.461 310.622 426.461 311.721ZM434.438 306.025V304.408H435.844V306.025H434.438ZM434.438 315.861V307.564H435.844V315.861H434.438ZM443.406 314.838C442.885 315.281 442.383 315.593 441.898 315.775C441.419 315.958 440.904 316.049 440.352 316.049C439.44 316.049 438.74 315.827 438.25 315.385C437.76 314.937 437.516 314.366 437.516 313.674C437.516 313.268 437.607 312.898 437.789 312.564C437.977 312.226 438.219 311.955 438.516 311.752C438.818 311.549 439.156 311.395 439.531 311.291C439.807 311.218 440.224 311.148 440.781 311.08C441.917 310.945 442.753 310.783 443.289 310.596C443.294 310.403 443.297 310.281 443.297 310.228C443.297 309.656 443.164 309.252 442.898 309.018C442.539 308.7 442.005 308.541 441.297 308.541C440.635 308.541 440.146 308.658 439.828 308.893C439.516 309.122 439.284 309.531 439.133 310.119L437.758 309.932C437.883 309.343 438.089 308.869 438.375 308.51C438.661 308.145 439.076 307.866 439.617 307.674C440.159 307.476 440.786 307.377 441.5 307.377C442.208 307.377 442.784 307.46 443.227 307.627C443.669 307.794 443.995 308.004 444.203 308.26C444.411 308.51 444.557 308.827 444.641 309.213C444.688 309.452 444.711 309.885 444.711 310.51V312.385C444.711 313.692 444.74 314.52 444.797 314.869C444.859 315.213 444.979 315.544 445.156 315.861H443.688C443.542 315.57 443.448 315.228 443.406 314.838ZM443.289 311.697C442.779 311.906 442.013 312.083 440.992 312.228C440.414 312.312 440.005 312.406 439.766 312.51C439.526 312.614 439.341 312.768 439.211 312.971C439.081 313.169 439.016 313.39 439.016 313.635C439.016 314.01 439.156 314.322 439.438 314.572C439.724 314.822 440.141 314.947 440.688 314.947C441.229 314.947 441.711 314.83 442.133 314.596C442.555 314.356 442.865 314.031 443.062 313.619C443.214 313.301 443.289 312.833 443.289 312.213V311.697ZM451.32 315.861V304.408H452.727V315.861H451.32ZM454.922 306.025V304.408H456.328V306.025H454.922ZM454.922 315.861V307.564H456.328V315.861H454.922ZM459.773 315.861H458.469V304.408H459.875V308.494C460.469 307.749 461.227 307.377 462.148 307.377C462.659 307.377 463.141 307.481 463.594 307.689C464.052 307.893 464.427 308.182 464.719 308.557C465.016 308.926 465.247 309.374 465.414 309.9C465.581 310.426 465.664 310.989 465.664 311.588C465.664 313.01 465.312 314.109 464.609 314.885C463.906 315.661 463.062 316.049 462.078 316.049C461.099 316.049 460.331 315.64 459.773 314.822V315.861ZM459.758 311.65C459.758 312.645 459.893 313.364 460.164 313.807C460.607 314.531 461.206 314.893 461.961 314.893C462.576 314.893 463.107 314.627 463.555 314.096C464.003 313.559 464.227 312.762 464.227 311.705C464.227 310.622 464.01 309.822 463.578 309.307C463.151 308.791 462.633 308.533 462.023 308.533C461.409 308.533 460.878 308.801 460.43 309.338C459.982 309.869 459.758 310.64 459.758 311.65ZM467.367 315.861V307.564H468.633V308.822C468.956 308.234 469.253 307.846 469.523 307.658C469.799 307.471 470.102 307.377 470.43 307.377C470.904 307.377 471.385 307.528 471.875 307.83L471.391 309.135C471.047 308.932 470.703 308.83 470.359 308.83C470.052 308.83 469.776 308.924 469.531 309.111C469.286 309.294 469.112 309.549 469.008 309.877C468.852 310.377 468.773 310.924 468.773 311.518V315.861H467.367ZM478.125 314.838C477.604 315.281 477.102 315.593 476.617 315.775C476.138 315.958 475.622 316.049 475.07 316.049C474.159 316.049 473.458 315.827 472.969 315.385C472.479 314.937 472.234 314.366 472.234 313.674C472.234 313.268 472.326 312.898 472.508 312.564C472.695 312.226 472.938 311.955 473.234 311.752C473.536 311.549 473.875 311.395 474.25 311.291C474.526 311.218 474.943 311.148 475.5 311.08C476.635 310.945 477.471 310.783 478.008 310.596C478.013 310.403 478.016 310.281 478.016 310.228C478.016 309.656 477.883 309.252 477.617 309.018C477.258 308.7 476.724 308.541 476.016 308.541C475.354 308.541 474.865 308.658 474.547 308.893C474.234 309.122 474.003 309.531 473.852 310.119L472.477 309.932C472.602 309.343 472.807 308.869 473.094 308.51C473.38 308.145 473.794 307.866 474.336 307.674C474.878 307.476 475.505 307.377 476.219 307.377C476.927 307.377 477.503 307.46 477.945 307.627C478.388 307.794 478.714 308.004 478.922 308.26C479.13 308.51 479.276 308.827 479.359 309.213C479.406 309.452 479.43 309.885 479.43 310.51V312.385C479.43 313.692 479.458 314.52 479.516 314.869C479.578 315.213 479.698 315.544 479.875 315.861H478.406C478.26 315.57 478.167 315.228 478.125 314.838ZM478.008 311.697C477.497 311.906 476.732 312.083 475.711 312.228C475.133 312.312 474.724 312.406 474.484 312.51C474.245 312.614 474.06 312.768 473.93 312.971C473.799 313.169 473.734 313.39 473.734 313.635C473.734 314.01 473.875 314.322 474.156 314.572C474.443 314.822 474.859 314.947 475.406 314.947C475.948 314.947 476.43 314.83 476.852 314.596C477.273 314.356 477.583 314.031 477.781 313.619C477.932 313.301 478.008 312.833 478.008 312.213V311.697ZM481.602 315.861V307.564H482.867V308.822C483.19 308.234 483.487 307.846 483.758 307.658C484.034 307.471 484.336 307.377 484.664 307.377C485.138 307.377 485.62 307.528 486.109 307.83L485.625 309.135C485.281 308.932 484.938 308.83 484.594 308.83C484.286 308.83 484.01 308.924 483.766 309.111C483.521 309.294 483.346 309.549 483.242 309.877C483.086 310.377 483.008 310.924 483.008 311.518V315.861H481.602ZM486.883 319.057L486.727 317.736C487.034 317.82 487.302 317.861 487.531 317.861C487.844 317.861 488.094 317.809 488.281 317.705C488.469 317.601 488.622 317.455 488.742 317.268C488.831 317.127 488.974 316.778 489.172 316.221C489.198 316.143 489.24 316.028 489.297 315.877L486.148 307.564H487.664L489.391 312.369C489.615 312.978 489.815 313.619 489.992 314.291C490.154 313.645 490.346 313.015 490.57 312.4L492.344 307.564H493.75L490.594 316.002C490.255 316.913 489.992 317.541 489.805 317.885C489.555 318.348 489.268 318.687 488.945 318.9C488.622 319.119 488.237 319.228 487.789 319.228C487.518 319.228 487.216 319.171 486.883 319.057Z" fill="#666666"/>
</g>
<defs>
<clipPath id="clip0_516_584">
<rect width="704" height="360" fill="white" transform="translate(0 0.861267)"/>
</clipPath>
</defs>
</svg>
