<svg width="705" height="361" viewBox="0 0 705 361" fill="none" xmlns="http://www.w3.org/2000/svg">
<rect width="705" height="360" transform="translate(0 0.861267)" fill="#BFC6CE"/>
<g clip-path="url(#clip0_516_1261)">
<path d="M370.927 178.933C372.411 179.79 372.411 181.933 370.927 182.79L344.207 198.216C342.722 199.073 340.867 198.002 340.867 196.288L340.867 165.434C340.867 163.72 342.722 162.649 344.207 163.506L370.927 178.933Z" fill="white"/>
</g>
<path d="M214.766 273.385L216.156 273.166C216.234 273.723 216.451 274.15 216.805 274.447C217.164 274.744 217.664 274.893 218.305 274.893C218.951 274.893 219.43 274.762 219.742 274.502C220.055 274.236 220.211 273.926 220.211 273.572C220.211 273.254 220.073 273.004 219.797 272.822C219.604 272.697 219.125 272.538 218.359 272.346C217.328 272.085 216.612 271.861 216.211 271.674C215.815 271.481 215.513 271.218 215.305 270.885C215.102 270.546 215 270.174 215 269.768C215 269.398 215.083 269.057 215.25 268.744C215.422 268.426 215.654 268.163 215.945 267.955C216.164 267.794 216.461 267.658 216.836 267.549C217.216 267.434 217.622 267.377 218.055 267.377C218.706 267.377 219.276 267.471 219.766 267.658C220.26 267.846 220.625 268.101 220.859 268.424C221.094 268.741 221.255 269.169 221.344 269.705L219.969 269.893C219.906 269.465 219.724 269.132 219.422 268.893C219.125 268.653 218.703 268.533 218.156 268.533C217.51 268.533 217.049 268.64 216.773 268.853C216.497 269.067 216.359 269.317 216.359 269.603C216.359 269.786 216.417 269.95 216.531 270.096C216.646 270.247 216.826 270.372 217.07 270.471C217.211 270.523 217.625 270.643 218.312 270.83C219.307 271.096 220 271.314 220.391 271.486C220.786 271.653 221.096 271.898 221.32 272.221C221.544 272.544 221.656 272.945 221.656 273.424C221.656 273.893 221.518 274.335 221.242 274.752C220.971 275.163 220.578 275.484 220.062 275.713C219.547 275.937 218.964 276.049 218.312 276.049C217.234 276.049 216.411 275.825 215.844 275.377C215.281 274.929 214.922 274.265 214.766 273.385ZM229.008 273.189L230.461 273.369C230.232 274.218 229.807 274.877 229.188 275.346C228.568 275.814 227.776 276.049 226.812 276.049C225.599 276.049 224.635 275.676 223.922 274.932C223.214 274.182 222.859 273.132 222.859 271.783C222.859 270.387 223.219 269.304 223.938 268.533C224.656 267.762 225.589 267.377 226.734 267.377C227.844 267.377 228.75 267.754 229.453 268.51C230.156 269.265 230.508 270.327 230.508 271.697C230.508 271.781 230.505 271.906 230.5 272.072H224.312C224.365 272.984 224.622 273.682 225.086 274.166C225.549 274.65 226.128 274.893 226.82 274.893C227.336 274.893 227.776 274.757 228.141 274.486C228.505 274.215 228.794 273.783 229.008 273.189ZM224.391 270.916H229.023C228.961 270.218 228.784 269.695 228.492 269.346C228.044 268.804 227.464 268.533 226.75 268.533C226.104 268.533 225.56 268.749 225.117 269.182C224.68 269.614 224.438 270.192 224.391 270.916ZM232.203 275.861V264.408H233.609V275.861H232.203ZM241.477 273.189L242.93 273.369C242.701 274.218 242.276 274.877 241.656 275.346C241.036 275.814 240.245 276.049 239.281 276.049C238.068 276.049 237.104 275.676 236.391 274.932C235.682 274.182 235.328 273.132 235.328 271.783C235.328 270.387 235.688 269.304 236.406 268.533C237.125 267.762 238.057 267.377 239.203 267.377C240.312 267.377 241.219 267.754 241.922 268.51C242.625 269.265 242.977 270.327 242.977 271.697C242.977 271.781 242.974 271.906 242.969 272.072H236.781C236.833 272.984 237.091 273.682 237.555 274.166C238.018 274.65 238.596 274.893 239.289 274.893C239.805 274.893 240.245 274.757 240.609 274.486C240.974 274.215 241.263 273.783 241.477 273.189ZM236.859 270.916H241.492C241.43 270.218 241.253 269.695 240.961 269.346C240.513 268.804 239.932 268.533 239.219 268.533C238.573 268.533 238.029 268.749 237.586 269.182C237.148 269.614 236.906 270.192 236.859 270.916ZM250.117 272.822L251.5 273.002C251.349 273.955 250.961 274.702 250.336 275.244C249.716 275.781 248.953 276.049 248.047 276.049C246.911 276.049 245.997 275.679 245.305 274.939C244.617 274.195 244.273 273.129 244.273 271.744C244.273 270.848 244.422 270.064 244.719 269.393C245.016 268.721 245.466 268.218 246.07 267.885C246.68 267.546 247.341 267.377 248.055 267.377C248.956 267.377 249.693 267.606 250.266 268.064C250.839 268.518 251.206 269.163 251.367 270.002L250 270.213C249.87 269.656 249.638 269.236 249.305 268.955C248.977 268.674 248.578 268.533 248.109 268.533C247.401 268.533 246.826 268.788 246.383 269.299C245.94 269.804 245.719 270.606 245.719 271.705C245.719 272.82 245.932 273.629 246.359 274.135C246.786 274.64 247.344 274.893 248.031 274.893C248.583 274.893 249.044 274.723 249.414 274.385C249.784 274.046 250.018 273.525 250.117 272.822ZM255.773 274.603L255.977 275.846C255.581 275.929 255.227 275.971 254.914 275.971C254.404 275.971 254.008 275.89 253.727 275.728C253.445 275.567 253.247 275.356 253.133 275.096C253.018 274.83 252.961 274.275 252.961 273.432V268.658H251.93V267.564H252.961V265.51L254.359 264.666V267.564H255.773V268.658H254.359V273.51C254.359 273.911 254.383 274.169 254.43 274.283C254.482 274.398 254.562 274.489 254.672 274.557C254.786 274.624 254.948 274.658 255.156 274.658C255.312 274.658 255.518 274.64 255.773 274.603ZM261.547 279.057L261.391 277.736C261.698 277.82 261.966 277.861 262.195 277.861C262.508 277.861 262.758 277.809 262.945 277.705C263.133 277.601 263.286 277.455 263.406 277.268C263.495 277.127 263.638 276.778 263.836 276.221C263.862 276.143 263.904 276.028 263.961 275.877L260.812 267.564H262.328L264.055 272.369C264.279 272.978 264.479 273.619 264.656 274.291C264.818 273.645 265.01 273.015 265.234 272.4L267.008 267.564H268.414L265.258 276.002C264.919 276.913 264.656 277.541 264.469 277.885C264.219 278.348 263.932 278.687 263.609 278.9C263.286 279.119 262.901 279.228 262.453 279.228C262.182 279.228 261.88 279.171 261.547 279.057ZM269.086 271.713C269.086 270.176 269.513 269.038 270.367 268.299C271.081 267.684 271.951 267.377 272.977 267.377C274.117 267.377 275.049 267.752 275.773 268.502C276.497 269.247 276.859 270.278 276.859 271.596C276.859 272.663 276.698 273.504 276.375 274.119C276.057 274.728 275.591 275.202 274.977 275.541C274.367 275.879 273.701 276.049 272.977 276.049C271.815 276.049 270.875 275.676 270.156 274.932C269.443 274.187 269.086 273.114 269.086 271.713ZM270.531 271.713C270.531 272.775 270.763 273.572 271.227 274.103C271.69 274.629 272.273 274.893 272.977 274.893C273.674 274.893 274.255 274.627 274.719 274.096C275.182 273.564 275.414 272.754 275.414 271.666C275.414 270.64 275.18 269.864 274.711 269.338C274.247 268.807 273.669 268.541 272.977 268.541C272.273 268.541 271.69 268.804 271.227 269.33C270.763 269.856 270.531 270.65 270.531 271.713ZM283.953 275.861V274.643C283.307 275.58 282.43 276.049 281.32 276.049C280.831 276.049 280.372 275.955 279.945 275.768C279.523 275.58 279.208 275.346 279 275.064C278.797 274.778 278.654 274.429 278.57 274.018C278.513 273.741 278.484 273.304 278.484 272.705V267.564H279.891V272.166C279.891 272.9 279.919 273.395 279.977 273.65C280.065 274.02 280.253 274.312 280.539 274.525C280.826 274.734 281.18 274.838 281.602 274.838C282.023 274.838 282.419 274.731 282.789 274.518C283.159 274.299 283.419 274.004 283.57 273.635C283.727 273.26 283.805 272.718 283.805 272.01V267.564H285.211V275.861H283.953ZM287.406 275.861V267.564H288.672V268.822C288.995 268.234 289.292 267.846 289.562 267.658C289.839 267.471 290.141 267.377 290.469 267.377C290.943 267.377 291.424 267.528 291.914 267.83L291.43 269.135C291.086 268.932 290.742 268.83 290.398 268.83C290.091 268.83 289.815 268.924 289.57 269.111C289.326 269.294 289.151 269.549 289.047 269.877C288.891 270.377 288.812 270.924 288.812 271.518V275.861H287.406ZM299.508 275.861L296.352 267.564H297.836L299.617 272.533C299.81 273.07 299.987 273.627 300.148 274.205C300.273 273.768 300.448 273.241 300.672 272.627L302.516 267.564H303.961L300.82 275.861H299.508ZM305.211 266.025V264.408H306.617V266.025H305.211ZM305.211 275.861V267.564H306.617V275.861H305.211ZM314.148 275.861V274.814C313.622 275.637 312.849 276.049 311.828 276.049C311.167 276.049 310.557 275.866 310 275.502C309.448 275.137 309.018 274.629 308.711 273.978C308.409 273.322 308.258 272.57 308.258 271.721C308.258 270.893 308.396 270.143 308.672 269.471C308.948 268.794 309.362 268.275 309.914 267.916C310.466 267.557 311.083 267.377 311.766 267.377C312.266 267.377 312.711 267.484 313.102 267.697C313.492 267.906 313.81 268.179 314.055 268.518V264.408H315.453V275.861H314.148ZM309.703 271.721C309.703 272.783 309.927 273.577 310.375 274.103C310.823 274.629 311.352 274.893 311.961 274.893C312.576 274.893 313.096 274.643 313.523 274.143C313.956 273.637 314.172 272.869 314.172 271.838C314.172 270.702 313.953 269.869 313.516 269.338C313.078 268.807 312.539 268.541 311.898 268.541C311.273 268.541 310.75 268.796 310.328 269.307C309.911 269.817 309.703 270.622 309.703 271.721ZM323.352 273.189L324.805 273.369C324.576 274.218 324.151 274.877 323.531 275.346C322.911 275.814 322.12 276.049 321.156 276.049C319.943 276.049 318.979 275.676 318.266 274.932C317.557 274.182 317.203 273.132 317.203 271.783C317.203 270.387 317.562 269.304 318.281 268.533C319 267.762 319.932 267.377 321.078 267.377C322.188 267.377 323.094 267.754 323.797 268.51C324.5 269.265 324.852 270.327 324.852 271.697C324.852 271.781 324.849 271.906 324.844 272.072H318.656C318.708 272.984 318.966 273.682 319.43 274.166C319.893 274.65 320.471 274.893 321.164 274.893C321.68 274.893 322.12 274.757 322.484 274.486C322.849 274.215 323.138 273.783 323.352 273.189ZM318.734 270.916H323.367C323.305 270.218 323.128 269.695 322.836 269.346C322.388 268.804 321.807 268.533 321.094 268.533C320.448 268.533 319.904 268.749 319.461 269.182C319.023 269.614 318.781 270.192 318.734 270.916ZM326.055 271.713C326.055 270.176 326.482 269.038 327.336 268.299C328.049 267.684 328.919 267.377 329.945 267.377C331.086 267.377 332.018 267.752 332.742 268.502C333.466 269.247 333.828 270.278 333.828 271.596C333.828 272.663 333.667 273.504 333.344 274.119C333.026 274.728 332.56 275.202 331.945 275.541C331.336 275.879 330.669 276.049 329.945 276.049C328.784 276.049 327.844 275.676 327.125 274.932C326.411 274.187 326.055 273.114 326.055 271.713ZM327.5 271.713C327.5 272.775 327.732 273.572 328.195 274.103C328.659 274.629 329.242 274.893 329.945 274.893C330.643 274.893 331.224 274.627 331.688 274.096C332.151 273.564 332.383 272.754 332.383 271.666C332.383 270.64 332.148 269.864 331.68 269.338C331.216 268.807 330.638 268.541 329.945 268.541C329.242 268.541 328.659 268.804 328.195 269.33C327.732 269.856 327.5 270.65 327.5 271.713ZM340.273 275.861V268.658H339.031V267.564H340.273V266.682C340.273 266.124 340.323 265.71 340.422 265.439C340.557 265.075 340.794 264.781 341.133 264.557C341.477 264.327 341.956 264.213 342.57 264.213C342.966 264.213 343.404 264.26 343.883 264.353L343.672 265.58C343.38 265.528 343.104 265.502 342.844 265.502C342.417 265.502 342.115 265.593 341.938 265.775C341.76 265.958 341.672 266.299 341.672 266.799V267.564H343.289V268.658H341.672V275.861H340.273ZM344.375 275.861V267.564H345.641V268.822C345.964 268.234 346.26 267.846 346.531 267.658C346.807 267.471 347.109 267.377 347.438 267.377C347.911 267.377 348.393 267.528 348.883 267.83L348.398 269.135C348.055 268.932 347.711 268.83 347.367 268.83C347.06 268.83 346.784 268.924 346.539 269.111C346.294 269.294 346.12 269.549 346.016 269.877C345.859 270.377 345.781 270.924 345.781 271.518V275.861H344.375ZM349.195 271.713C349.195 270.176 349.622 269.038 350.477 268.299C351.19 267.684 352.06 267.377 353.086 267.377C354.227 267.377 355.159 267.752 355.883 268.502C356.607 269.247 356.969 270.278 356.969 271.596C356.969 272.663 356.807 273.504 356.484 274.119C356.167 274.728 355.701 275.202 355.086 275.541C354.477 275.879 353.81 276.049 353.086 276.049C351.924 276.049 350.984 275.676 350.266 274.932C349.552 274.187 349.195 273.114 349.195 271.713ZM350.641 271.713C350.641 272.775 350.872 273.572 351.336 274.103C351.799 274.629 352.383 274.893 353.086 274.893C353.784 274.893 354.365 274.627 354.828 274.096C355.292 273.564 355.523 272.754 355.523 271.666C355.523 270.64 355.289 269.864 354.82 269.338C354.357 268.807 353.779 268.541 353.086 268.541C352.383 268.541 351.799 268.804 351.336 269.33C350.872 269.856 350.641 270.65 350.641 271.713ZM358.625 275.861V267.564H359.883V268.728C360.143 268.322 360.49 267.997 360.922 267.752C361.354 267.502 361.846 267.377 362.398 267.377C363.013 267.377 363.516 267.504 363.906 267.76C364.302 268.015 364.581 268.372 364.742 268.83C365.398 267.861 366.253 267.377 367.305 267.377C368.128 267.377 368.76 267.606 369.203 268.064C369.646 268.518 369.867 269.218 369.867 270.166V275.861H368.469V270.635C368.469 270.072 368.422 269.669 368.328 269.424C368.24 269.174 368.076 268.973 367.836 268.822C367.596 268.671 367.315 268.596 366.992 268.596C366.409 268.596 365.924 268.791 365.539 269.182C365.154 269.567 364.961 270.187 364.961 271.041V275.861H363.555V270.471C363.555 269.846 363.44 269.377 363.211 269.064C362.982 268.752 362.607 268.596 362.086 268.596C361.69 268.596 361.323 268.7 360.984 268.908C360.651 269.116 360.409 269.421 360.258 269.822C360.107 270.223 360.031 270.801 360.031 271.557V275.861H358.625ZM379.477 274.603L379.68 275.846C379.284 275.929 378.93 275.971 378.617 275.971C378.107 275.971 377.711 275.89 377.43 275.728C377.148 275.567 376.951 275.356 376.836 275.096C376.721 274.83 376.664 274.275 376.664 273.432V268.658H375.633V267.564H376.664V265.51L378.062 264.666V267.564H379.477V268.658H378.062V273.51C378.062 273.911 378.086 274.169 378.133 274.283C378.185 274.398 378.266 274.489 378.375 274.557C378.49 274.624 378.651 274.658 378.859 274.658C379.016 274.658 379.221 274.64 379.477 274.603ZM380.859 275.861V264.408H382.266V268.518C382.922 267.757 383.75 267.377 384.75 267.377C385.365 267.377 385.898 267.499 386.352 267.744C386.805 267.984 387.128 268.317 387.32 268.744C387.518 269.171 387.617 269.791 387.617 270.603V275.861H386.211V270.603C386.211 269.9 386.057 269.39 385.75 269.072C385.448 268.749 385.018 268.588 384.461 268.588C384.044 268.588 383.651 268.697 383.281 268.916C382.917 269.129 382.656 269.421 382.5 269.791C382.344 270.161 382.266 270.671 382.266 271.322V275.861H380.859ZM395.445 273.189L396.898 273.369C396.669 274.218 396.245 274.877 395.625 275.346C395.005 275.814 394.214 276.049 393.25 276.049C392.036 276.049 391.073 275.676 390.359 274.932C389.651 274.182 389.297 273.132 389.297 271.783C389.297 270.387 389.656 269.304 390.375 268.533C391.094 267.762 392.026 267.377 393.172 267.377C394.281 267.377 395.188 267.754 395.891 268.51C396.594 269.265 396.945 270.327 396.945 271.697C396.945 271.781 396.943 271.906 396.938 272.072H390.75C390.802 272.984 391.06 273.682 391.523 274.166C391.987 274.65 392.565 274.893 393.258 274.893C393.773 274.893 394.214 274.757 394.578 274.486C394.943 274.215 395.232 273.783 395.445 273.189ZM390.828 270.916H395.461C395.398 270.218 395.221 269.695 394.93 269.346C394.482 268.804 393.901 268.533 393.188 268.533C392.542 268.533 391.997 268.749 391.555 269.182C391.117 269.614 390.875 270.192 390.828 270.916ZM403.125 275.861V267.564H404.383V268.728C404.643 268.322 404.99 267.997 405.422 267.752C405.854 267.502 406.346 267.377 406.898 267.377C407.513 267.377 408.016 267.504 408.406 267.76C408.802 268.015 409.081 268.372 409.242 268.83C409.898 267.861 410.753 267.377 411.805 267.377C412.628 267.377 413.26 267.606 413.703 268.064C414.146 268.518 414.367 269.218 414.367 270.166V275.861H412.969V270.635C412.969 270.072 412.922 269.669 412.828 269.424C412.74 269.174 412.576 268.973 412.336 268.822C412.096 268.671 411.815 268.596 411.492 268.596C410.909 268.596 410.424 268.791 410.039 269.182C409.654 269.567 409.461 270.187 409.461 271.041V275.861H408.055V270.471C408.055 269.846 407.94 269.377 407.711 269.064C407.482 268.752 407.107 268.596 406.586 268.596C406.19 268.596 405.823 268.7 405.484 268.908C405.151 269.116 404.909 269.421 404.758 269.822C404.607 270.223 404.531 270.801 404.531 271.557V275.861H403.125ZM422.133 273.189L423.586 273.369C423.357 274.218 422.932 274.877 422.312 275.346C421.693 275.814 420.901 276.049 419.938 276.049C418.724 276.049 417.76 275.676 417.047 274.932C416.339 274.182 415.984 273.132 415.984 271.783C415.984 270.387 416.344 269.304 417.062 268.533C417.781 267.762 418.714 267.377 419.859 267.377C420.969 267.377 421.875 267.754 422.578 268.51C423.281 269.265 423.633 270.327 423.633 271.697C423.633 271.781 423.63 271.906 423.625 272.072H417.438C417.49 272.984 417.747 273.682 418.211 274.166C418.674 274.65 419.253 274.893 419.945 274.893C420.461 274.893 420.901 274.757 421.266 274.486C421.63 274.215 421.919 273.783 422.133 273.189ZM417.516 270.916H422.148C422.086 270.218 421.909 269.695 421.617 269.346C421.169 268.804 420.589 268.533 419.875 268.533C419.229 268.533 418.685 268.749 418.242 269.182C417.805 269.614 417.562 270.192 417.516 270.916ZM430.742 275.861V274.814C430.216 275.637 429.443 276.049 428.422 276.049C427.76 276.049 427.151 275.866 426.594 275.502C426.042 275.137 425.612 274.629 425.305 273.978C425.003 273.322 424.852 272.57 424.852 271.721C424.852 270.893 424.99 270.143 425.266 269.471C425.542 268.794 425.956 268.275 426.508 267.916C427.06 267.557 427.677 267.377 428.359 267.377C428.859 267.377 429.305 267.484 429.695 267.697C430.086 267.906 430.404 268.179 430.648 268.518V264.408H432.047V275.861H430.742ZM426.297 271.721C426.297 272.783 426.521 273.577 426.969 274.103C427.417 274.629 427.945 274.893 428.555 274.893C429.169 274.893 429.69 274.643 430.117 274.143C430.549 273.637 430.766 272.869 430.766 271.838C430.766 270.702 430.547 269.869 430.109 269.338C429.672 268.807 429.133 268.541 428.492 268.541C427.867 268.541 427.344 268.796 426.922 269.307C426.505 269.817 426.297 270.622 426.297 271.721ZM434.273 266.025V264.408H435.68V266.025H434.273ZM434.273 275.861V267.564H435.68V275.861H434.273ZM443.242 274.838C442.721 275.281 442.219 275.593 441.734 275.775C441.255 275.958 440.74 276.049 440.188 276.049C439.276 276.049 438.576 275.827 438.086 275.385C437.596 274.937 437.352 274.366 437.352 273.674C437.352 273.268 437.443 272.898 437.625 272.564C437.812 272.226 438.055 271.955 438.352 271.752C438.654 271.549 438.992 271.395 439.367 271.291C439.643 271.218 440.06 271.148 440.617 271.08C441.753 270.945 442.589 270.783 443.125 270.596C443.13 270.403 443.133 270.281 443.133 270.228C443.133 269.656 443 269.252 442.734 269.018C442.375 268.7 441.841 268.541 441.133 268.541C440.471 268.541 439.982 268.658 439.664 268.893C439.352 269.122 439.12 269.531 438.969 270.119L437.594 269.932C437.719 269.343 437.924 268.869 438.211 268.51C438.497 268.145 438.911 267.866 439.453 267.674C439.995 267.476 440.622 267.377 441.336 267.377C442.044 267.377 442.62 267.46 443.062 267.627C443.505 267.794 443.831 268.004 444.039 268.26C444.247 268.51 444.393 268.827 444.477 269.213C444.523 269.452 444.547 269.885 444.547 270.51V272.385C444.547 273.692 444.576 274.52 444.633 274.869C444.695 275.213 444.815 275.544 444.992 275.861H443.523C443.378 275.57 443.284 275.228 443.242 274.838ZM443.125 271.697C442.615 271.906 441.849 272.083 440.828 272.228C440.25 272.312 439.841 272.406 439.602 272.51C439.362 272.614 439.177 272.768 439.047 272.971C438.917 273.169 438.852 273.39 438.852 273.635C438.852 274.01 438.992 274.322 439.273 274.572C439.56 274.822 439.977 274.947 440.523 274.947C441.065 274.947 441.547 274.83 441.969 274.596C442.391 274.356 442.701 274.031 442.898 273.619C443.049 273.301 443.125 272.833 443.125 272.213V271.697ZM451.156 275.861V264.408H452.562V275.861H451.156ZM454.758 266.025V264.408H456.164V266.025H454.758ZM454.758 275.861V267.564H456.164V275.861H454.758ZM459.609 275.861H458.305V264.408H459.711V268.494C460.305 267.749 461.062 267.377 461.984 267.377C462.495 267.377 462.977 267.481 463.43 267.689C463.888 267.893 464.263 268.182 464.555 268.557C464.852 268.926 465.083 269.374 465.25 269.9C465.417 270.426 465.5 270.989 465.5 271.588C465.5 273.01 465.148 274.109 464.445 274.885C463.742 275.661 462.898 276.049 461.914 276.049C460.935 276.049 460.167 275.64 459.609 274.822V275.861ZM459.594 271.65C459.594 272.645 459.729 273.364 460 273.807C460.443 274.531 461.042 274.893 461.797 274.893C462.411 274.893 462.943 274.627 463.391 274.096C463.839 273.559 464.062 272.762 464.062 271.705C464.062 270.622 463.846 269.822 463.414 269.307C462.987 268.791 462.469 268.533 461.859 268.533C461.245 268.533 460.714 268.801 460.266 269.338C459.818 269.869 459.594 270.64 459.594 271.65ZM467.203 275.861V267.564H468.469V268.822C468.792 268.234 469.089 267.846 469.359 267.658C469.635 267.471 469.938 267.377 470.266 267.377C470.74 267.377 471.221 267.528 471.711 267.83L471.227 269.135C470.883 268.932 470.539 268.83 470.195 268.83C469.888 268.83 469.612 268.924 469.367 269.111C469.122 269.294 468.948 269.549 468.844 269.877C468.688 270.377 468.609 270.924 468.609 271.518V275.861H467.203ZM477.961 274.838C477.44 275.281 476.938 275.593 476.453 275.775C475.974 275.958 475.458 276.049 474.906 276.049C473.995 276.049 473.294 275.827 472.805 275.385C472.315 274.937 472.07 274.366 472.07 273.674C472.07 273.268 472.161 272.898 472.344 272.564C472.531 272.226 472.773 271.955 473.07 271.752C473.372 271.549 473.711 271.395 474.086 271.291C474.362 271.218 474.779 271.148 475.336 271.08C476.471 270.945 477.307 270.783 477.844 270.596C477.849 270.403 477.852 270.281 477.852 270.228C477.852 269.656 477.719 269.252 477.453 269.018C477.094 268.7 476.56 268.541 475.852 268.541C475.19 268.541 474.701 268.658 474.383 268.893C474.07 269.122 473.839 269.531 473.688 270.119L472.312 269.932C472.438 269.343 472.643 268.869 472.93 268.51C473.216 268.145 473.63 267.866 474.172 267.674C474.714 267.476 475.341 267.377 476.055 267.377C476.763 267.377 477.339 267.46 477.781 267.627C478.224 267.794 478.549 268.004 478.758 268.26C478.966 268.51 479.112 268.827 479.195 269.213C479.242 269.452 479.266 269.885 479.266 270.51V272.385C479.266 273.692 479.294 274.52 479.352 274.869C479.414 275.213 479.534 275.544 479.711 275.861H478.242C478.096 275.57 478.003 275.228 477.961 274.838ZM477.844 271.697C477.333 271.906 476.568 272.083 475.547 272.228C474.969 272.312 474.56 272.406 474.32 272.51C474.081 272.614 473.896 272.768 473.766 272.971C473.635 273.169 473.57 273.39 473.57 273.635C473.57 274.01 473.711 274.322 473.992 274.572C474.279 274.822 474.695 274.947 475.242 274.947C475.784 274.947 476.266 274.83 476.688 274.596C477.109 274.356 477.419 274.031 477.617 273.619C477.768 273.301 477.844 272.833 477.844 272.213V271.697ZM481.438 275.861V267.564H482.703V268.822C483.026 268.234 483.323 267.846 483.594 267.658C483.87 267.471 484.172 267.377 484.5 267.377C484.974 267.377 485.456 267.528 485.945 267.83L485.461 269.135C485.117 268.932 484.773 268.83 484.43 268.83C484.122 268.83 483.846 268.924 483.602 269.111C483.357 269.294 483.182 269.549 483.078 269.877C482.922 270.377 482.844 270.924 482.844 271.518V275.861H481.438ZM486.719 279.057L486.562 277.736C486.87 277.82 487.138 277.861 487.367 277.861C487.68 277.861 487.93 277.809 488.117 277.705C488.305 277.601 488.458 277.455 488.578 277.268C488.667 277.127 488.81 276.778 489.008 276.221C489.034 276.143 489.076 276.028 489.133 275.877L485.984 267.564H487.5L489.227 272.369C489.451 272.978 489.651 273.619 489.828 274.291C489.99 273.645 490.182 273.015 490.406 272.4L492.18 267.564H493.586L490.43 276.002C490.091 276.913 489.828 277.541 489.641 277.885C489.391 278.348 489.104 278.687 488.781 278.9C488.458 279.119 488.073 279.228 487.625 279.228C487.354 279.228 487.052 279.171 486.719 279.057Z" fill="#666666"/>
<defs>
<clipPath id="clip0_516_1261">
<rect width="44.5333" height="44.5333" fill="white" transform="translate(330 158.861)"/>
</clipPath>
</defs>
</svg>
