<svg width="288" height="224" viewBox="0 0 288 224" fill="none" xmlns="http://www.w3.org/2000/svg">
<path d="M158.183 154.229H98.7666V213.599H158.183V154.229Z" fill="#FFB81C" stroke="black" stroke-width="2" stroke-miterlimit="10"/>
<path d="M217.6 111.064H158.184V213.599H217.6V111.064Z" stroke="black" stroke-width="2" stroke-miterlimit="10"/>
<path d="M277.026 68.2256H217.61V213.608H277.026V68.2256Z" stroke="black" stroke-width="2" stroke-miterlimit="10"/>
<path d="M232.093 60.8493C245.786 60.8493 256.886 49.7575 256.886 36.0751C256.886 22.3926 245.786 11.3008 232.093 11.3008C218.4 11.3008 207.3 22.3926 207.3 36.0751C207.3 49.7575 218.4 60.8493 232.093 60.8493Z" fill="#00A6D6" stroke="black" stroke-width="2" stroke-miterlimit="10"/>
<path d="M34.6759 213.61C48.3688 213.61 59.469 202.518 59.469 188.835C59.469 175.153 48.3688 164.061 34.6759 164.061C20.9831 164.061 9.88281 175.153 9.88281 188.835C9.88281 202.518 20.9831 213.61 34.6759 213.61Z" stroke="black" stroke-width="2" stroke-miterlimit="10"/>
<path d="M35.583 156.355C35.583 156.355 41.9615 112.799 74.4001 112.002C106.839 111.205 118.427 140.476 118.427 140.476C118.427 140.476 120.841 90.5672 146.3 83.6697C171.759 76.7722 183.195 103.074 183.195 103.074C183.195 103.074 174.916 36.0747 202.035 36.0747" stroke="black" stroke-width="2" stroke-miterlimit="10"/>
</svg>
