<svg width="287" height="224" viewBox="0 0 287 224" fill="none" xmlns="http://www.w3.org/2000/svg">
<g clip-path="url(#clip0_513_16943)">
<path d="M264.963 84.5913H133.742V163.628H264.963V84.5913Z" fill="#EFF1F3" stroke="black" stroke-width="2" stroke-miterlimit="10"/>
<path d="M41.8083 14.125H1.4082V63.633H41.8083V14.125Z" stroke="black" stroke-width="2" stroke-miterlimit="10"/>
<path d="M49.4977 21.5049H9.09766V71.0129H49.4977V21.5049Z" fill="#00A6D6" stroke="black" stroke-width="2" stroke-miterlimit="10"/>
<path d="M256.518 93.0664H125.297V172.103H256.518V93.0664Z" fill="#EFF1F3" stroke="black" stroke-width="2" stroke-miterlimit="10"/>
<path d="M248.07 101.542H116.85V180.578H248.07V101.542Z" fill="#FFB81C" stroke="black" stroke-width="2" stroke-miterlimit="10"/>
<path d="M50.416 42.2163C50.416 42.2163 253.121 42.2163 265.29 42.2163C277.459 42.2163 286.499 51.7007 286.499 63.4038C286.499 75.1038 280.588 84.5913 265.29 84.5913" stroke="black" stroke-width="2" stroke-miterlimit="10"/>
<path d="M217.997 46.5757C220.717 46.5757 222.921 44.3721 222.921 41.6538C222.921 38.9355 220.717 36.7319 217.997 36.7319C215.277 36.7319 213.072 38.9355 213.072 41.6538C213.072 44.3721 215.277 46.5757 217.997 46.5757Z" fill="#EFF1F3" stroke="black" stroke-width="2" stroke-miterlimit="10"/>
<path d="M8.07031 116.16V204.38C8.07031 209.124 11.6001 212.97 16.3467 212.97H16.658C21.4046 212.97 25.2521 209.124 25.2521 204.38V152.075C25.2521 147.33 29.0996 143.485 33.8462 143.485C38.5928 143.485 42.4403 147.33 42.4403 152.075V186.363C42.4403 191.107 46.2877 194.952 51.0343 194.952H51.3711C56.1177 194.952 59.9652 191.107 59.9652 186.363V80.8434C59.9652 76.0993 63.8126 72.2539 68.5592 72.2539H68.6736C73.4202 72.2539 77.2677 76.0993 77.2677 80.8434V168.984C77.2677 173.728 81.1152 177.573 85.8618 177.573H86.297C91.0436 177.573 94.8911 173.728 94.8911 168.984V127.579C94.8911 122.835 98.7386 118.99 103.485 118.99H117.213" stroke="black" stroke-width="2" stroke-miterlimit="10"/>
<path d="M8.07134 121.413C10.9736 121.413 13.3263 119.062 13.3263 116.161C13.3263 113.26 10.9736 110.909 8.07134 110.909C5.16912 110.909 2.81641 113.26 2.81641 116.161C2.81641 119.062 5.16912 121.413 8.07134 121.413Z" fill="#EFF1F3" stroke="black" stroke-width="2" stroke-miterlimit="10"/>
</g>
<defs>
<clipPath id="clip0_513_16943">
<rect width="287" height="224" fill="white"/>
</clipPath>
</defs>
</svg>
