<svg width="288" height="224" viewBox="0 0 288 224" fill="none" xmlns="http://www.w3.org/2000/svg">
<path d="M268.895 19.8506H19.9238V204.603H268.895V19.8506Z" stroke="black" stroke-width="2" stroke-miterlimit="10"/>
<path d="M126.123 46.8179H51.9023V121.168H126.123V46.8179Z" fill="#FFB81C" stroke="black" stroke-width="2" stroke-miterlimit="10"/>
<path d="M92.0273 89.1929C92.0273 89.1929 100.555 89.1929 130.331 89.1929C160.105 89.1929 145.843 134.786 172.461 134.786C199.079 134.786 190.522 134.786 190.522 134.786" stroke="black" stroke-width="2" stroke-miterlimit="10"/>
<path d="M212.473 153.485C223.824 153.485 233.026 144.267 233.026 132.896C233.026 121.525 223.824 112.307 212.473 112.307C201.122 112.307 191.92 121.525 191.92 132.896C191.92 144.267 201.122 153.485 212.473 153.485Z" stroke="black" stroke-width="2" stroke-miterlimit="10"/>
<path d="M23.8472 200.908H16V208.769H23.8472V200.908Z" fill="black"/>
<path d="M23.8472 16H16V23.8608H23.8472V16Z" fill="black"/>
<path d="M272.818 200.908H264.971V208.769H272.818V200.908Z" fill="black"/>
<path d="M272.818 16H264.971V23.8608H272.818V16Z" fill="black"/>
<path d="M236.03 172.557L229.719 162.194L229.192 161.329L228.333 161.868L220.404 166.845L216.323 136.243L241.466 153.627L233.505 158.624L232.669 159.149L233.182 159.991L239.507 170.373L236.03 172.557Z" fill="#00A6D6" stroke="black" stroke-width="2"/>
</svg>
