<svg width="288" height="224" viewBox="0 0 288 224" fill="none" xmlns="http://www.w3.org/2000/svg">
<path d="M147.455 59.7588H27.4316V141.114H147.455V59.7588Z" stroke="black" stroke-width="2" stroke-miterlimit="10"/>
<path d="M261.418 6.33154H123.209V80.4009H261.418V6.33154Z" stroke="black" stroke-width="2" stroke-miterlimit="10"/>
<path d="M158.949 94.2646H94.5254V175.558H158.949V94.2646Z" stroke="black" stroke-width="2" stroke-miterlimit="10"/>
<path d="M132.531 183.028C132.531 183.028 159.65 183.028 166.689 183.028C173.729 183.028 169.495 171.688 156.491 169.408C143.487 167.127 126.22 162.665 112.12 163.31C98.0201 163.956 89.342 171.264 78.0833 178.21C66.8216 185.153 67.1238 204.93 67.1238 208.639V215.561H108.905V195.949H135.817C145.256 195.949 153.65 191.011 157.428 187.2C161.205 183.39 188.946 155.106 190.321 153.719C191.041 152.993 192.244 150.847 189.142 149.672C186.039 148.498 179.062 148.187 176.277 150.225C170.425 154.508 158.953 165.728 158.953 165.728" stroke="black" stroke-width="2" stroke-miterlimit="10"/>
<path d="M158.953 160.878C158.953 160.878 169.945 150.552 174.843 145.611C179.74 140.671 188.282 140.515 191.298 141.935C194.314 143.355 193.962 145.034 192.516 146.496C191.067 147.958 189.082 149.613 189.082 149.613" stroke="black" stroke-width="2" stroke-miterlimit="10"/>
<path d="M147.455 93.7583H94.1113V141.114H147.455V93.7583Z" fill="#FFB81C" stroke="black" stroke-width="2" stroke-miterlimit="10"/>
<path d="M147.456 59.7588H123.209V80.4011H147.456V59.7588Z" fill="#00A6D6" stroke="black" stroke-width="2" stroke-miterlimit="10"/>
<path d="M72.7812 59.3765V31.4487H120.063" stroke="black" stroke-width="2" stroke-miterlimit="10"/>
<path d="M117.164 28.7959L119.899 31.5546L117.146 34.3312" stroke="black" stroke-width="2" stroke-miterlimit="10"/>
<path d="M73.339 41.3524C78.6047 41.3524 82.8734 37.0463 82.8734 31.7343C82.8734 26.4224 78.6047 22.1162 73.339 22.1162C68.0734 22.1162 63.8047 26.4224 63.8047 31.7343C63.8047 37.0463 68.0734 41.3524 73.339 41.3524Z" fill="#FFB81C" stroke="black" stroke-width="2" stroke-miterlimit="10"/>
</svg>
