<svg width="340" height="173" viewBox="0 0 340 173" fill="none" xmlns="http://www.w3.org/2000/svg">
<g clip-path="url(#clip0_486_3770)">
<rect width="340" height="172" transform="translate(0 0.861267)" fill="#BFC6CE"/>
<path d="M0 174.293L339.435 0.861267" stroke="#E5E5E5" stroke-width="1.5"/>
<path d="M340 174.725L0.564786 1.29266" stroke="#E5E5E5" stroke-width="1.5"/>
<path d="M32.6016 142.385L33.9922 142.166C34.0703 142.723 34.2865 143.15 34.6406 143.447C35 143.744 35.5 143.893 36.1406 143.893C36.7865 143.893 37.2656 143.762 37.5781 143.502C37.8906 143.236 38.0469 142.926 38.0469 142.572C38.0469 142.254 37.9089 142.004 37.6328 141.822C37.4401 141.697 36.9609 141.538 36.1953 141.346C35.1641 141.085 34.4479 140.861 34.0469 140.674C33.651 140.481 33.349 140.218 33.1406 139.885C32.9375 139.546 32.8359 139.174 32.8359 138.768C32.8359 138.398 32.9193 138.057 33.0859 137.744C33.2578 137.426 33.4896 137.163 33.7812 136.955C34 136.794 34.2969 136.658 34.6719 136.549C35.0521 136.434 35.4583 136.377 35.8906 136.377C36.5417 136.377 37.112 136.471 37.6016 136.658C38.0964 136.846 38.4609 137.101 38.6953 137.424C38.9297 137.741 39.0911 138.169 39.1797 138.705L37.8047 138.893C37.7422 138.465 37.5599 138.132 37.2578 137.893C36.9609 137.653 36.5391 137.533 35.9922 137.533C35.3464 137.533 34.8854 137.64 34.6094 137.853C34.3333 138.067 34.1953 138.317 34.1953 138.603C34.1953 138.786 34.2526 138.95 34.3672 139.096C34.4818 139.247 34.6615 139.372 34.9062 139.471C35.0469 139.523 35.4609 139.643 36.1484 139.83C37.1432 140.096 37.8359 140.314 38.2266 140.486C38.6224 140.653 38.9323 140.898 39.1562 141.221C39.3802 141.544 39.4922 141.945 39.4922 142.424C39.4922 142.893 39.3542 143.335 39.0781 143.752C38.8073 144.163 38.4141 144.484 37.8984 144.713C37.3828 144.937 36.7995 145.049 36.1484 145.049C35.0703 145.049 34.2474 144.825 33.6797 144.377C33.1172 143.929 32.7578 143.265 32.6016 142.385ZM46.8438 142.189L48.2969 142.369C48.0677 143.218 47.6432 143.877 47.0234 144.346C46.4036 144.814 45.612 145.049 44.6484 145.049C43.4349 145.049 42.4714 144.676 41.7578 143.932C41.0495 143.182 40.6953 142.132 40.6953 140.783C40.6953 139.387 41.0547 138.304 41.7734 137.533C42.4922 136.762 43.4245 136.377 44.5703 136.377C45.6797 136.377 46.5859 136.754 47.2891 137.51C47.9922 138.265 48.3438 139.327 48.3438 140.697C48.3438 140.781 48.3411 140.906 48.3359 141.072H42.1484C42.2005 141.984 42.4583 142.682 42.9219 143.166C43.3854 143.65 43.9635 143.893 44.6562 143.893C45.1719 143.893 45.612 143.757 45.9766 143.486C46.3411 143.215 46.6302 142.783 46.8438 142.189ZM42.2266 139.916H46.8594C46.7969 139.218 46.6198 138.695 46.3281 138.346C45.8802 137.804 45.2995 137.533 44.5859 137.533C43.9401 137.533 43.3958 137.749 42.9531 138.182C42.5156 138.614 42.2734 139.192 42.2266 139.916ZM50.0391 144.861V133.408H51.4453V144.861H50.0391ZM59.3125 142.189L60.7656 142.369C60.5365 143.218 60.112 143.877 59.4922 144.346C58.8724 144.814 58.0807 145.049 57.1172 145.049C55.9036 145.049 54.9401 144.676 54.2266 143.932C53.5182 143.182 53.1641 142.132 53.1641 140.783C53.1641 139.387 53.5234 138.304 54.2422 137.533C54.9609 136.762 55.8932 136.377 57.0391 136.377C58.1484 136.377 59.0547 136.754 59.7578 137.51C60.4609 138.265 60.8125 139.327 60.8125 140.697C60.8125 140.781 60.8099 140.906 60.8047 141.072H54.6172C54.6693 141.984 54.9271 142.682 55.3906 143.166C55.8542 143.65 56.4323 143.893 57.125 143.893C57.6406 143.893 58.0807 143.757 58.4453 143.486C58.8099 143.215 59.099 142.783 59.3125 142.189ZM54.6953 139.916H59.3281C59.2656 139.218 59.0885 138.695 58.7969 138.346C58.349 137.804 57.7682 137.533 57.0547 137.533C56.4089 137.533 55.8646 137.749 55.4219 138.182C54.9844 138.614 54.7422 139.192 54.6953 139.916ZM67.9531 141.822L69.3359 142.002C69.1849 142.955 68.7969 143.702 68.1719 144.244C67.5521 144.781 66.7891 145.049 65.8828 145.049C64.7474 145.049 63.8333 144.679 63.1406 143.939C62.4531 143.195 62.1094 142.129 62.1094 140.744C62.1094 139.848 62.2578 139.064 62.5547 138.393C62.8516 137.721 63.3021 137.218 63.9062 136.885C64.5156 136.546 65.1771 136.377 65.8906 136.377C66.7917 136.377 67.5286 136.606 68.1016 137.064C68.6745 137.518 69.0417 138.163 69.2031 139.002L67.8359 139.213C67.7057 138.656 67.474 138.236 67.1406 137.955C66.8125 137.674 66.4141 137.533 65.9453 137.533C65.237 137.533 64.6615 137.788 64.2188 138.299C63.776 138.804 63.5547 139.606 63.5547 140.705C63.5547 141.82 63.7682 142.629 64.1953 143.135C64.6224 143.64 65.1797 143.893 65.8672 143.893C66.4193 143.893 66.8802 143.723 67.25 143.385C67.6198 143.046 67.8542 142.525 67.9531 141.822ZM73.6094 143.603L73.8125 144.846C73.4167 144.929 73.0625 144.971 72.75 144.971C72.2396 144.971 71.8438 144.89 71.5625 144.728C71.2812 144.567 71.0833 144.356 70.9688 144.096C70.8542 143.83 70.7969 143.275 70.7969 142.432V137.658H69.7656V136.564H70.7969V134.51L72.1953 133.666V136.564H73.6094V137.658H72.1953V142.51C72.1953 142.911 72.2188 143.169 72.2656 143.283C72.3177 143.398 72.3984 143.489 72.5078 143.557C72.6224 143.624 72.7839 143.658 72.9922 143.658C73.1484 143.658 73.3542 143.64 73.6094 143.603ZM79.3828 148.057L79.2266 146.736C79.5339 146.82 79.8021 146.861 80.0312 146.861C80.3438 146.861 80.5938 146.809 80.7812 146.705C80.9688 146.601 81.1224 146.455 81.2422 146.268C81.3307 146.127 81.474 145.778 81.6719 145.221C81.6979 145.143 81.7396 145.028 81.7969 144.877L78.6484 136.564H80.1641L81.8906 141.369C82.1146 141.978 82.3151 142.619 82.4922 143.291C82.6536 142.645 82.8464 142.015 83.0703 141.4L84.8438 136.564H86.25L83.0938 145.002C82.7552 145.913 82.4922 146.541 82.3047 146.885C82.0547 147.348 81.7682 147.687 81.4453 147.9C81.1224 148.119 80.737 148.228 80.2891 148.228C80.0182 148.228 79.7161 148.171 79.3828 148.057ZM86.9219 140.713C86.9219 139.176 87.349 138.038 88.2031 137.299C88.9167 136.684 89.7865 136.377 90.8125 136.377C91.9531 136.377 92.8854 136.752 93.6094 137.502C94.3333 138.247 94.6953 139.278 94.6953 140.596C94.6953 141.663 94.5339 142.504 94.2109 143.119C93.8932 143.728 93.4271 144.202 92.8125 144.541C92.2031 144.879 91.5365 145.049 90.8125 145.049C89.651 145.049 88.7109 144.676 87.9922 143.932C87.2786 143.187 86.9219 142.114 86.9219 140.713ZM88.3672 140.713C88.3672 141.775 88.599 142.572 89.0625 143.103C89.526 143.629 90.1094 143.893 90.8125 143.893C91.5104 143.893 92.0911 143.627 92.5547 143.096C93.0182 142.564 93.25 141.754 93.25 140.666C93.25 139.64 93.0156 138.864 92.5469 138.338C92.0833 137.807 91.5052 137.541 90.8125 137.541C90.1094 137.541 89.526 137.804 89.0625 138.33C88.599 138.856 88.3672 139.65 88.3672 140.713ZM101.789 144.861V143.643C101.143 144.58 100.266 145.049 99.1562 145.049C98.6667 145.049 98.2083 144.955 97.7812 144.768C97.3594 144.58 97.0443 144.346 96.8359 144.064C96.6328 143.778 96.4896 143.429 96.4062 143.018C96.349 142.741 96.3203 142.304 96.3203 141.705V136.564H97.7266V141.166C97.7266 141.9 97.7552 142.395 97.8125 142.65C97.901 143.02 98.0885 143.312 98.375 143.525C98.6615 143.734 99.0156 143.838 99.4375 143.838C99.8594 143.838 100.255 143.731 100.625 143.518C100.995 143.299 101.255 143.004 101.406 142.635C101.562 142.26 101.641 141.718 101.641 141.01V136.564H103.047V144.861H101.789ZM105.242 144.861V136.564H106.508V137.822C106.831 137.234 107.128 136.846 107.398 136.658C107.674 136.471 107.977 136.377 108.305 136.377C108.779 136.377 109.26 136.528 109.75 136.83L109.266 138.135C108.922 137.932 108.578 137.83 108.234 137.83C107.927 137.83 107.651 137.924 107.406 138.111C107.161 138.294 106.987 138.549 106.883 138.877C106.727 139.377 106.648 139.924 106.648 140.518V144.861H105.242ZM115.047 135.025V133.408H116.453V135.025H115.047ZM115.047 144.861V136.564H116.453V144.861H115.047ZM118.602 144.861V136.564H119.859V137.728C120.12 137.322 120.466 136.997 120.898 136.752C121.331 136.502 121.823 136.377 122.375 136.377C122.99 136.377 123.492 136.504 123.883 136.76C124.279 137.015 124.557 137.372 124.719 137.83C125.375 136.861 126.229 136.377 127.281 136.377C128.104 136.377 128.737 136.606 129.18 137.064C129.622 137.518 129.844 138.218 129.844 139.166V144.861H128.445V139.635C128.445 139.072 128.398 138.669 128.305 138.424C128.216 138.174 128.052 137.973 127.812 137.822C127.573 137.671 127.292 137.596 126.969 137.596C126.385 137.596 125.901 137.791 125.516 138.182C125.13 138.567 124.938 139.187 124.938 140.041V144.861H123.531V139.471C123.531 138.846 123.417 138.377 123.188 138.064C122.958 137.752 122.583 137.596 122.062 137.596C121.667 137.596 121.299 137.7 120.961 137.908C120.628 138.116 120.385 138.421 120.234 138.822C120.083 139.223 120.008 139.801 120.008 140.557V144.861H118.602ZM137.344 143.838C136.823 144.281 136.32 144.593 135.836 144.775C135.357 144.958 134.841 145.049 134.289 145.049C133.378 145.049 132.677 144.827 132.188 144.385C131.698 143.937 131.453 143.366 131.453 142.674C131.453 142.268 131.544 141.898 131.727 141.564C131.914 141.226 132.156 140.955 132.453 140.752C132.755 140.549 133.094 140.395 133.469 140.291C133.745 140.218 134.161 140.148 134.719 140.08C135.854 139.945 136.69 139.783 137.227 139.596C137.232 139.403 137.234 139.281 137.234 139.228C137.234 138.656 137.102 138.252 136.836 138.018C136.477 137.7 135.943 137.541 135.234 137.541C134.573 137.541 134.083 137.658 133.766 137.893C133.453 138.122 133.221 138.531 133.07 139.119L131.695 138.932C131.82 138.343 132.026 137.869 132.312 137.51C132.599 137.145 133.013 136.866 133.555 136.674C134.096 136.476 134.724 136.377 135.438 136.377C136.146 136.377 136.721 136.46 137.164 136.627C137.607 136.794 137.932 137.004 138.141 137.26C138.349 137.51 138.495 137.827 138.578 138.213C138.625 138.452 138.648 138.885 138.648 139.51V141.385C138.648 142.692 138.677 143.52 138.734 143.869C138.797 144.213 138.917 144.544 139.094 144.861H137.625C137.479 144.57 137.385 144.228 137.344 143.838ZM137.227 140.697C136.716 140.906 135.951 141.083 134.93 141.228C134.352 141.312 133.943 141.406 133.703 141.51C133.464 141.614 133.279 141.768 133.148 141.971C133.018 142.169 132.953 142.39 132.953 142.635C132.953 143.01 133.094 143.322 133.375 143.572C133.661 143.822 134.078 143.947 134.625 143.947C135.167 143.947 135.648 143.83 136.07 143.596C136.492 143.356 136.802 143.031 137 142.619C137.151 142.301 137.227 141.833 137.227 141.213V140.697ZM140.578 145.549L141.945 145.752C142.003 146.174 142.161 146.481 142.422 146.674C142.771 146.934 143.247 147.064 143.852 147.064C144.503 147.064 145.005 146.934 145.359 146.674C145.714 146.413 145.953 146.049 146.078 145.58C146.151 145.294 146.185 144.692 146.18 143.775C145.565 144.499 144.799 144.861 143.883 144.861C142.742 144.861 141.859 144.45 141.234 143.627C140.609 142.804 140.297 141.817 140.297 140.666C140.297 139.874 140.44 139.145 140.727 138.478C141.013 137.807 141.427 137.288 141.969 136.924C142.516 136.559 143.156 136.377 143.891 136.377C144.87 136.377 145.677 136.773 146.312 137.564V136.564H147.609V143.736C147.609 145.028 147.477 145.942 147.211 146.478C146.951 147.02 146.534 147.447 145.961 147.76C145.393 148.072 144.693 148.228 143.859 148.228C142.87 148.228 142.07 148.004 141.461 147.557C140.852 147.114 140.557 146.445 140.578 145.549ZM141.742 140.564C141.742 141.653 141.958 142.447 142.391 142.947C142.823 143.447 143.365 143.697 144.016 143.697C144.661 143.697 145.203 143.45 145.641 142.955C146.078 142.455 146.297 141.674 146.297 140.611C146.297 139.596 146.07 138.83 145.617 138.314C145.169 137.799 144.628 137.541 143.992 137.541C143.367 137.541 142.836 137.796 142.398 138.307C141.961 138.812 141.742 139.564 141.742 140.564ZM155.422 142.189L156.875 142.369C156.646 143.218 156.221 143.877 155.602 144.346C154.982 144.814 154.19 145.049 153.227 145.049C152.013 145.049 151.049 144.676 150.336 143.932C149.628 143.182 149.273 142.132 149.273 140.783C149.273 139.387 149.633 138.304 150.352 137.533C151.07 136.762 152.003 136.377 153.148 136.377C154.258 136.377 155.164 136.754 155.867 137.51C156.57 138.265 156.922 139.327 156.922 140.697C156.922 140.781 156.919 140.906 156.914 141.072H150.727C150.779 141.984 151.036 142.682 151.5 143.166C151.964 143.65 152.542 143.893 153.234 143.893C153.75 143.893 154.19 143.757 154.555 143.486C154.919 143.215 155.208 142.783 155.422 142.189ZM150.805 139.916H155.438C155.375 139.218 155.198 138.695 154.906 138.346C154.458 137.804 153.878 137.533 153.164 137.533C152.518 137.533 151.974 137.749 151.531 138.182C151.094 138.614 150.852 139.192 150.805 139.916ZM163.438 144.861V137.658H162.195V136.564H163.438V135.682C163.438 135.124 163.487 134.71 163.586 134.439C163.721 134.075 163.958 133.781 164.297 133.557C164.641 133.327 165.12 133.213 165.734 133.213C166.13 133.213 166.568 133.26 167.047 133.353L166.836 134.58C166.544 134.528 166.268 134.502 166.008 134.502C165.581 134.502 165.279 134.593 165.102 134.775C164.924 134.958 164.836 135.299 164.836 135.799V136.564H166.453V137.658H164.836V144.861H163.438ZM167.539 144.861V136.564H168.805V137.822C169.128 137.234 169.424 136.846 169.695 136.658C169.971 136.471 170.273 136.377 170.602 136.377C171.076 136.377 171.557 136.528 172.047 136.83L171.562 138.135C171.219 137.932 170.875 137.83 170.531 137.83C170.224 137.83 169.948 137.924 169.703 138.111C169.458 138.294 169.284 138.549 169.18 138.877C169.023 139.377 168.945 139.924 168.945 140.518V144.861H167.539ZM172.359 140.713C172.359 139.176 172.786 138.038 173.641 137.299C174.354 136.684 175.224 136.377 176.25 136.377C177.391 136.377 178.323 136.752 179.047 137.502C179.771 138.247 180.133 139.278 180.133 140.596C180.133 141.663 179.971 142.504 179.648 143.119C179.331 143.728 178.865 144.202 178.25 144.541C177.641 144.879 176.974 145.049 176.25 145.049C175.089 145.049 174.148 144.676 173.43 143.932C172.716 143.187 172.359 142.114 172.359 140.713ZM173.805 140.713C173.805 141.775 174.036 142.572 174.5 143.103C174.964 143.629 175.547 143.893 176.25 143.893C176.948 143.893 177.529 143.627 177.992 143.096C178.456 142.564 178.688 141.754 178.688 140.666C178.688 139.64 178.453 138.864 177.984 138.338C177.521 137.807 176.943 137.541 176.25 137.541C175.547 137.541 174.964 137.804 174.5 138.33C174.036 138.856 173.805 139.65 173.805 140.713ZM181.789 144.861V136.564H183.047V137.728C183.307 137.322 183.654 136.997 184.086 136.752C184.518 136.502 185.01 136.377 185.562 136.377C186.177 136.377 186.68 136.504 187.07 136.76C187.466 137.015 187.745 137.372 187.906 137.83C188.562 136.861 189.417 136.377 190.469 136.377C191.292 136.377 191.924 136.606 192.367 137.064C192.81 137.518 193.031 138.218 193.031 139.166V144.861H191.633V139.635C191.633 139.072 191.586 138.669 191.492 138.424C191.404 138.174 191.24 137.973 191 137.822C190.76 137.671 190.479 137.596 190.156 137.596C189.573 137.596 189.089 137.791 188.703 138.182C188.318 138.567 188.125 139.187 188.125 140.041V144.861H186.719V139.471C186.719 138.846 186.604 138.377 186.375 138.064C186.146 137.752 185.771 137.596 185.25 137.596C184.854 137.596 184.487 137.7 184.148 137.908C183.815 138.116 183.573 138.421 183.422 138.822C183.271 139.223 183.195 139.801 183.195 140.557V144.861H181.789ZM202.641 143.603L202.844 144.846C202.448 144.929 202.094 144.971 201.781 144.971C201.271 144.971 200.875 144.89 200.594 144.728C200.312 144.567 200.115 144.356 200 144.096C199.885 143.83 199.828 143.275 199.828 142.432V137.658H198.797V136.564H199.828V134.51L201.227 133.666V136.564H202.641V137.658H201.227V142.51C201.227 142.911 201.25 143.169 201.297 143.283C201.349 143.398 201.43 143.489 201.539 143.557C201.654 143.624 201.815 143.658 202.023 143.658C202.18 143.658 202.385 143.64 202.641 143.603ZM204.023 144.861V133.408H205.43V137.518C206.086 136.757 206.914 136.377 207.914 136.377C208.529 136.377 209.062 136.499 209.516 136.744C209.969 136.984 210.292 137.317 210.484 137.744C210.682 138.171 210.781 138.791 210.781 139.603V144.861H209.375V139.603C209.375 138.9 209.221 138.39 208.914 138.072C208.612 137.749 208.182 137.588 207.625 137.588C207.208 137.588 206.815 137.697 206.445 137.916C206.081 138.129 205.82 138.421 205.664 138.791C205.508 139.161 205.43 139.671 205.43 140.322V144.861H204.023ZM218.609 142.189L220.062 142.369C219.833 143.218 219.409 143.877 218.789 144.346C218.169 144.814 217.378 145.049 216.414 145.049C215.201 145.049 214.237 144.676 213.523 143.932C212.815 143.182 212.461 142.132 212.461 140.783C212.461 139.387 212.82 138.304 213.539 137.533C214.258 136.762 215.19 136.377 216.336 136.377C217.445 136.377 218.352 136.754 219.055 137.51C219.758 138.265 220.109 139.327 220.109 140.697C220.109 140.781 220.107 140.906 220.102 141.072H213.914C213.966 141.984 214.224 142.682 214.688 143.166C215.151 143.65 215.729 143.893 216.422 143.893C216.938 143.893 217.378 143.757 217.742 143.486C218.107 143.215 218.396 142.783 218.609 142.189ZM213.992 139.916H218.625C218.562 139.218 218.385 138.695 218.094 138.346C217.646 137.804 217.065 137.533 216.352 137.533C215.706 137.533 215.161 137.749 214.719 138.182C214.281 138.614 214.039 139.192 213.992 139.916ZM226.289 144.861V136.564H227.547V137.728C227.807 137.322 228.154 136.997 228.586 136.752C229.018 136.502 229.51 136.377 230.062 136.377C230.677 136.377 231.18 136.504 231.57 136.76C231.966 137.015 232.245 137.372 232.406 137.83C233.062 136.861 233.917 136.377 234.969 136.377C235.792 136.377 236.424 136.606 236.867 137.064C237.31 137.518 237.531 138.218 237.531 139.166V144.861H236.133V139.635C236.133 139.072 236.086 138.669 235.992 138.424C235.904 138.174 235.74 137.973 235.5 137.822C235.26 137.671 234.979 137.596 234.656 137.596C234.073 137.596 233.589 137.791 233.203 138.182C232.818 138.567 232.625 139.187 232.625 140.041V144.861H231.219V139.471C231.219 138.846 231.104 138.377 230.875 138.064C230.646 137.752 230.271 137.596 229.75 137.596C229.354 137.596 228.987 137.7 228.648 137.908C228.315 138.116 228.073 138.421 227.922 138.822C227.771 139.223 227.695 139.801 227.695 140.557V144.861H226.289ZM245.297 142.189L246.75 142.369C246.521 143.218 246.096 143.877 245.477 144.346C244.857 144.814 244.065 145.049 243.102 145.049C241.888 145.049 240.924 144.676 240.211 143.932C239.503 143.182 239.148 142.132 239.148 140.783C239.148 139.387 239.508 138.304 240.227 137.533C240.945 136.762 241.878 136.377 243.023 136.377C244.133 136.377 245.039 136.754 245.742 137.51C246.445 138.265 246.797 139.327 246.797 140.697C246.797 140.781 246.794 140.906 246.789 141.072H240.602C240.654 141.984 240.911 142.682 241.375 143.166C241.839 143.65 242.417 143.893 243.109 143.893C243.625 143.893 244.065 143.757 244.43 143.486C244.794 143.215 245.083 142.783 245.297 142.189ZM240.68 139.916H245.312C245.25 139.218 245.073 138.695 244.781 138.346C244.333 137.804 243.753 137.533 243.039 137.533C242.393 137.533 241.849 137.749 241.406 138.182C240.969 138.614 240.727 139.192 240.68 139.916ZM253.906 144.861V143.814C253.38 144.637 252.607 145.049 251.586 145.049C250.924 145.049 250.315 144.866 249.758 144.502C249.206 144.137 248.776 143.629 248.469 142.978C248.167 142.322 248.016 141.57 248.016 140.721C248.016 139.893 248.154 139.143 248.43 138.471C248.706 137.794 249.12 137.275 249.672 136.916C250.224 136.557 250.841 136.377 251.523 136.377C252.023 136.377 252.469 136.484 252.859 136.697C253.25 136.906 253.568 137.179 253.812 137.518V133.408H255.211V144.861H253.906ZM249.461 140.721C249.461 141.783 249.685 142.577 250.133 143.103C250.581 143.629 251.109 143.893 251.719 143.893C252.333 143.893 252.854 143.643 253.281 143.143C253.714 142.637 253.93 141.869 253.93 140.838C253.93 139.702 253.711 138.869 253.273 138.338C252.836 137.807 252.297 137.541 251.656 137.541C251.031 137.541 250.508 137.796 250.086 138.307C249.669 138.817 249.461 139.622 249.461 140.721ZM257.438 135.025V133.408H258.844V135.025H257.438ZM257.438 144.861V136.564H258.844V144.861H257.438ZM266.406 143.838C265.885 144.281 265.383 144.593 264.898 144.775C264.419 144.958 263.904 145.049 263.352 145.049C262.44 145.049 261.74 144.827 261.25 144.385C260.76 143.937 260.516 143.366 260.516 142.674C260.516 142.268 260.607 141.898 260.789 141.564C260.977 141.226 261.219 140.955 261.516 140.752C261.818 140.549 262.156 140.395 262.531 140.291C262.807 140.218 263.224 140.148 263.781 140.08C264.917 139.945 265.753 139.783 266.289 139.596C266.294 139.403 266.297 139.281 266.297 139.228C266.297 138.656 266.164 138.252 265.898 138.018C265.539 137.7 265.005 137.541 264.297 137.541C263.635 137.541 263.146 137.658 262.828 137.893C262.516 138.122 262.284 138.531 262.133 139.119L260.758 138.932C260.883 138.343 261.089 137.869 261.375 137.51C261.661 137.145 262.076 136.866 262.617 136.674C263.159 136.476 263.786 136.377 264.5 136.377C265.208 136.377 265.784 136.46 266.227 136.627C266.669 136.794 266.995 137.004 267.203 137.26C267.411 137.51 267.557 137.827 267.641 138.213C267.688 138.452 267.711 138.885 267.711 139.51V141.385C267.711 142.692 267.74 143.52 267.797 143.869C267.859 144.213 267.979 144.544 268.156 144.861H266.688C266.542 144.57 266.448 144.228 266.406 143.838ZM266.289 140.697C265.779 140.906 265.013 141.083 263.992 141.228C263.414 141.312 263.005 141.406 262.766 141.51C262.526 141.614 262.341 141.768 262.211 141.971C262.081 142.169 262.016 142.39 262.016 142.635C262.016 143.01 262.156 143.322 262.438 143.572C262.724 143.822 263.141 143.947 263.688 143.947C264.229 143.947 264.711 143.83 265.133 143.596C265.555 143.356 265.865 143.031 266.062 142.619C266.214 142.301 266.289 141.833 266.289 141.213V140.697ZM274.32 144.861V133.408H275.727V144.861H274.32ZM277.922 135.025V133.408H279.328V135.025H277.922ZM277.922 144.861V136.564H279.328V144.861H277.922ZM282.773 144.861H281.469V133.408H282.875V137.494C283.469 136.749 284.227 136.377 285.148 136.377C285.659 136.377 286.141 136.481 286.594 136.689C287.052 136.893 287.427 137.182 287.719 137.557C288.016 137.926 288.247 138.374 288.414 138.9C288.581 139.426 288.664 139.989 288.664 140.588C288.664 142.01 288.312 143.109 287.609 143.885C286.906 144.661 286.062 145.049 285.078 145.049C284.099 145.049 283.331 144.64 282.773 143.822V144.861ZM282.758 140.65C282.758 141.645 282.893 142.364 283.164 142.807C283.607 143.531 284.206 143.893 284.961 143.893C285.576 143.893 286.107 143.627 286.555 143.096C287.003 142.559 287.227 141.762 287.227 140.705C287.227 139.622 287.01 138.822 286.578 138.307C286.151 137.791 285.633 137.533 285.023 137.533C284.409 137.533 283.878 137.801 283.43 138.338C282.982 138.869 282.758 139.64 282.758 140.65ZM290.367 144.861V136.564H291.633V137.822C291.956 137.234 292.253 136.846 292.523 136.658C292.799 136.471 293.102 136.377 293.43 136.377C293.904 136.377 294.385 136.528 294.875 136.83L294.391 138.135C294.047 137.932 293.703 137.83 293.359 137.83C293.052 137.83 292.776 137.924 292.531 138.111C292.286 138.294 292.112 138.549 292.008 138.877C291.852 139.377 291.773 139.924 291.773 140.518V144.861H290.367ZM301.125 143.838C300.604 144.281 300.102 144.593 299.617 144.775C299.138 144.958 298.622 145.049 298.07 145.049C297.159 145.049 296.458 144.827 295.969 144.385C295.479 143.937 295.234 143.366 295.234 142.674C295.234 142.268 295.326 141.898 295.508 141.564C295.695 141.226 295.938 140.955 296.234 140.752C296.536 140.549 296.875 140.395 297.25 140.291C297.526 140.218 297.943 140.148 298.5 140.08C299.635 139.945 300.471 139.783 301.008 139.596C301.013 139.403 301.016 139.281 301.016 139.228C301.016 138.656 300.883 138.252 300.617 138.018C300.258 137.7 299.724 137.541 299.016 137.541C298.354 137.541 297.865 137.658 297.547 137.893C297.234 138.122 297.003 138.531 296.852 139.119L295.477 138.932C295.602 138.343 295.807 137.869 296.094 137.51C296.38 137.145 296.794 136.866 297.336 136.674C297.878 136.476 298.505 136.377 299.219 136.377C299.927 136.377 300.503 136.46 300.945 136.627C301.388 136.794 301.714 137.004 301.922 137.26C302.13 137.51 302.276 137.827 302.359 138.213C302.406 138.452 302.43 138.885 302.43 139.51V141.385C302.43 142.692 302.458 143.52 302.516 143.869C302.578 144.213 302.698 144.544 302.875 144.861H301.406C301.26 144.57 301.167 144.228 301.125 143.838ZM301.008 140.697C300.497 140.906 299.732 141.083 298.711 141.228C298.133 141.312 297.724 141.406 297.484 141.51C297.245 141.614 297.06 141.768 296.93 141.971C296.799 142.169 296.734 142.39 296.734 142.635C296.734 143.01 296.875 143.322 297.156 143.572C297.443 143.822 297.859 143.947 298.406 143.947C298.948 143.947 299.43 143.83 299.852 143.596C300.273 143.356 300.583 143.031 300.781 142.619C300.932 142.301 301.008 141.833 301.008 141.213V140.697ZM304.602 144.861V136.564H305.867V137.822C306.19 137.234 306.487 136.846 306.758 136.658C307.034 136.471 307.336 136.377 307.664 136.377C308.138 136.377 308.62 136.528 309.109 136.83L308.625 138.135C308.281 137.932 307.938 137.83 307.594 137.83C307.286 137.83 307.01 137.924 306.766 138.111C306.521 138.294 306.346 138.549 306.242 138.877C306.086 139.377 306.008 139.924 306.008 140.518V144.861H304.602ZM309.883 148.057L309.727 146.736C310.034 146.82 310.302 146.861 310.531 146.861C310.844 146.861 311.094 146.809 311.281 146.705C311.469 146.601 311.622 146.455 311.742 146.268C311.831 146.127 311.974 145.778 312.172 145.221C312.198 145.143 312.24 145.028 312.297 144.877L309.148 136.564H310.664L312.391 141.369C312.615 141.978 312.815 142.619 312.992 143.291C313.154 142.645 313.346 142.015 313.57 141.4L315.344 136.564H316.75L313.594 145.002C313.255 145.913 312.992 146.541 312.805 146.885C312.555 147.348 312.268 147.687 311.945 147.9C311.622 148.119 311.237 148.228 310.789 148.228C310.518 148.228 310.216 148.171 309.883 148.057Z" fill="#666666"/>
</g>
<defs>
<clipPath id="clip0_486_3770">
<rect width="340" height="172" fill="white" transform="translate(0 0.861267)"/>
</clipPath>
</defs>
</svg>
