<svg xmlns="http://www.w3.org/2000/svg" fill="none" viewBox="0 0 97 24"><path fill="#000" d="M.734.82h6.34c1.43 0 2.52.11 3.27.328a5.745 5.745 0 012.59 1.582c.718.758 1.265 1.688 1.64 2.79.375 1.093.563 2.445.563 4.054 0 1.414-.176 2.633-.528 3.656-.43 1.25-1.043 2.262-1.84 3.036-.601.586-1.414 1.043-2.437 1.37-.766.243-1.789.364-3.07.364H.734V.82zm3.47 2.907v11.379h2.589c.969 0 1.668-.055 2.098-.165.562-.14 1.027-.379 1.394-.714.375-.336.68-.887.914-1.653.235-.773.352-1.824.352-3.152s-.117-2.348-.352-3.059c-.234-.71-.562-1.265-.984-1.664-.422-.398-.957-.668-1.606-.808-.484-.11-1.433-.164-2.847-.164H4.203zm12.422.14V.82h3.293v3.047h-3.293zm0 14.133V5.555h3.293V18h-3.293zm4.935.82l3.762.457c.063.438.207.739.434.903.312.234.804.351 1.476.351.86 0 1.504-.129 1.934-.386.289-.172.508-.45.656-.832.102-.274.152-.778.152-1.512v-1.817C28.992 17.328 27.75 18 26.25 18c-1.672 0-2.996-.707-3.973-2.121-.765-1.117-1.148-2.508-1.148-4.172 0-2.086.5-3.68 1.5-4.781 1.008-1.102 2.258-1.653 3.75-1.653 1.539 0 2.808.676 3.808 2.028V5.555h3.082v11.168c0 1.468-.12 2.566-.363 3.293-.242.726-.582 1.297-1.02 1.71-.437.415-1.023.739-1.757.973-.727.235-1.649.352-2.766.352-2.11 0-3.605-.363-4.488-1.09-.883-.719-1.324-1.633-1.324-2.742 0-.11.004-.242.011-.399zm2.942-7.3c0 1.32.254 2.289.762 2.906.515.61 1.148.914 1.898.914.805 0 1.484-.313 2.039-.938.555-.632.832-1.566.832-2.8 0-1.29-.266-2.247-.797-2.872s-1.203-.937-2.015-.937c-.79 0-1.442.309-1.957.926-.508.61-.762 1.543-.762 2.8zm10.595-7.653V.82h3.293v3.047h-3.293zm0 14.133V5.555h3.293V18h-3.293z"/><path fill="#00A6D6" d="M40.361 18V.82h5.567c2.109 0 3.484.086 4.125.258.984.258 1.808.82 2.472 1.688.664.859.996 1.972.996 3.34 0 1.054-.191 1.94-.574 2.66-.383.718-.871 1.285-1.465 1.699-.586.406-1.183.676-1.793.808-.828.165-2.027.247-3.597.247H43.83V18h-3.47zM43.83 3.727v4.875h1.898c1.367 0 2.282-.09 2.742-.27.461-.18.82-.46 1.079-.844a2.29 2.29 0 00.398-1.336c0-.625-.184-1.14-.55-1.547a2.398 2.398 0 00-1.395-.761c-.414-.078-1.246-.117-2.496-.117H43.83zm18.282 10.312l3.282.55c-.422 1.204-1.09 2.122-2.004 2.755-.906.625-2.043.937-3.41.937-2.164 0-3.766-.707-4.805-2.12-.82-1.134-1.23-2.563-1.23-4.29 0-2.062.539-3.676 1.617-4.84 1.078-1.172 2.441-1.758 4.09-1.758 1.851 0 3.312.614 4.382 1.84 1.07 1.219 1.582 3.09 1.535 5.614h-8.25c.024.976.29 1.738.797 2.285.508.539 1.141.808 1.899.808.516 0 .95-.14 1.3-.422.352-.28.618-.734.797-1.359zm.188-3.328c-.023-.953-.27-1.676-.738-2.168-.469-.5-1.04-.75-1.711-.75-.719 0-1.313.262-1.782.785-.468.524-.699 1.235-.69 2.133H62.3zM78.239 18H75.18v-1.828c-.508.71-1.11 1.242-1.804 1.594-.688.343-1.383.515-2.086.515-1.43 0-2.657-.574-3.68-1.722-1.016-1.157-1.523-2.766-1.523-4.829 0-2.109.496-3.71 1.488-4.804.992-1.102 2.246-1.653 3.762-1.653 1.39 0 2.593.579 3.609 1.735V.82h3.293V18zm-8.79-6.492c0 1.328.184 2.289.552 2.883.53.859 1.273 1.289 2.226 1.289.758 0 1.402-.32 1.934-.961.531-.649.797-1.614.797-2.895 0-1.43-.258-2.457-.774-3.082-.515-.633-1.176-.949-1.98-.949-.781 0-1.438.312-1.969.937-.523.618-.785 1.543-.785 2.778zm10.608-7.64V.82h3.293v3.047h-3.293zm0 14.132V5.555h3.293V18h-3.293zm7.7-8.648l-2.988-.54c.336-1.203.914-2.093 1.734-2.671.82-.579 2.04-.868 3.657-.868 1.468 0 2.562.176 3.28.528.72.344 1.224.785 1.513 1.324.296.531.445 1.512.445 2.941l-.035 3.844c0 1.094.05 1.902.152 2.426A7.3 7.3 0 0096.113 18h-3.258a12.134 12.134 0 01-.316-.973 5.95 5.95 0 00-.118-.386 5.936 5.936 0 01-1.804 1.23 5.17 5.17 0 01-2.051.41c-1.281 0-2.293-.347-3.035-1.043-.735-.695-1.102-1.574-1.102-2.636 0-.704.168-1.329.504-1.875a3.251 3.251 0 011.406-1.266c.61-.297 1.485-.555 2.625-.774 1.54-.289 2.606-.558 3.2-.808V9.55c0-.633-.157-1.082-.47-1.348-.312-.273-.901-.41-1.769-.41-.586 0-1.043.117-1.37.352-.329.226-.595.628-.798 1.207zm4.407 2.671c-.422.141-1.09.309-2.004.504-.914.196-1.512.387-1.793.575-.43.304-.645.691-.645 1.16 0 .46.172.86.516 1.195.344.336.781.504 1.312.504.594 0 1.16-.195 1.7-.586.398-.297.66-.66.785-1.09.086-.281.129-.816.129-1.605v-.657z"/></svg>