<svg xmlns="http://www.w3.org/2000/svg" fill="none" viewBox="0 0 185 72"><g fill="#000" clip-path="url(#a)"><path d="M53.617 64.686c4.642 0 7.055-3.147 7.055-7.406V35.433h9.84v22.403c-.186 9.813-7.983 13.7-16.895 13.7-8.911 0-16.894-3.887-16.894-13.7V35.433h9.84V57.28c-.186 4.444 2.413 7.406 7.054 7.406zm-42.515 6.11h9.84V42.283h10.953v-6.85H.148v6.85h10.954v28.513zM34.68 18.214c-2.413.741-4.827.186-4.827-2.962 0-4.814 11.511-8.887 13.182-13.146.371-1.11.371-1.851 0-1.851s0 .555-.928 1.296c-4.828 4.814-12.81 4.814-18.937 7.406-4.085 1.851-15.781 7.406-12.996 19.626.186.555.557 2.592.928 2.592s.371-1.111.371-2.592c0-7.406 8.54-9.443 11.511-14.257.371-.555.928-1.296 1.114-.926v.926c-.928 3.888-5.013 6.48-3.899 9.258 1.485 3.703 5.941.925 7.24-1.482.372-.555.558-1.11.743-.925.186 0 .186.74 0 1.481-.742 4.258-1.67 6.665-4.827 9.072-.928.74-2.599.926-2.413 1.482 0 .185.742.185 1.3 0 8.354-.556 15.223-10.184 17.08-16.664.185-.37.185-.926 0-1.11-.186-.186-.557.184-.928.555-1.114.925-2.414 1.851-3.714 2.221zm84.102 37.956c0-3.888 2.414-7.406 6.313-7.406 4.455 0 6.312 3.147 6.312 7.406h-12.625zm17.452 3.332v-2.221c0-6.85-3.899-11.665-10.954-11.665-7.797 0-11.51 6.11-11.51 13.331 0 7.22 3.156 12.775 11.139 12.775 5.941 0 10.211-2.777 10.954-8.331h-5.013c-.557 3.517-2.414 4.999-5.941 4.999-4.827 0-6.312-4.259-6.312-8.702h17.637v-.186zm10.397-24.069h-4.642v35.363h4.642V35.433zm14.666 35.363V49.504h5.755v-3.332h-5.755v-3.889c0-2.777 1.299-3.332 4.084-3.332.743 0 1.485.185 2.413.185v-3.888c-1.113-.185-2.227-.556-3.341-.556-4.456 0-7.798 2.222-7.798 6.85v4.63h-4.827v3.332h4.827v21.478h4.642v-.186zm8.355-24.624v3.332h4.27v15.738c0 3.333 0 6.48 7.055 6.48 1.114 0 2.043-.185 3.156-.37v-3.518c-.742.185-1.67.37-2.413.37-1.671 0-2.971-.925-2.971-2.592V49.69h5.756v-3.333h-5.756V39.69l-4.641 1.482v5.184l-4.456-.185zm-89.3 24.624h12.253c15.224 0 16.709-12.776 16.709-17.775 0-4.813-1.671-17.774-16.71-17.774H80.353v35.549zm5.012-31.105h7.24c8.17 0 11.697 6.11 11.697 13.516 0 7.405-3.342 13.515-11.696 13.515h-7.24V39.691z"/></g><defs><clipPath id="a"><path fill="#fff" d="M0 0h185v72H0z"/></clipPath></defs></svg>