<svg width="402" height="124" viewBox="0 0 402 124" fill="none" xmlns="http://www.w3.org/2000/svg">
<path fill-rule="evenodd" clip-rule="evenodd" d="M1 5C1 2.79086 2.79086 1 5 1H397C399.209 1 401 2.79086 401 5V109C401 111.209 399.209 113 397 113H42.9811C41.7327 113 40.5559 113.583 39.7994 114.576L36.4139 119.019C36.4136 119.02 36.4133 119.02 36.413 119.02L33.381 123L30.1664 119.164L26.199 114.431C26.1983 114.43 26.1976 114.429 26.1968 114.428C25.4369 113.523 24.3154 113 23.1333 113H5C2.79086 113 1 111.209 1 109V5Z" fill="#E5F5F1"/>
<path d="M39.7994 114.576L40.1971 114.879L39.7994 114.576ZM36.4139 119.019L36.811 119.323L36.8116 119.322L36.4139 119.019ZM36.413 119.02L36.0158 118.717L36.0152 118.717L36.413 119.02ZM33.381 123L32.9977 123.321L33.3996 123.801L33.7787 123.303L33.381 123ZM30.1664 119.164L30.5496 118.843L30.1664 119.164ZM26.199 114.431L25.8153 114.751L25.8158 114.752L26.199 114.431ZM26.1968 114.428L26.5801 114.107L26.5798 114.107L26.1968 114.428ZM5 0.5C2.51472 0.5 0.5 2.51472 0.5 5H1.5C1.5 3.067 3.067 1.5 5 1.5V0.5ZM397 0.5H5V1.5H397V0.5ZM401.5 5C401.5 2.51472 399.485 0.5 397 0.5V1.5C398.933 1.5 400.5 3.067 400.5 5H401.5ZM401.5 109V5H400.5V109H401.5ZM397 113.5C399.485 113.5 401.5 111.485 401.5 109H400.5C400.5 110.933 398.933 112.5 397 112.5V113.5ZM42.9811 113.5H397V112.5H42.9811V113.5ZM40.1971 114.879C40.8591 114.01 41.8888 113.5 42.9811 113.5V112.5C41.5767 112.5 40.2528 113.156 39.4017 114.273L40.1971 114.879ZM36.8116 119.322L40.1971 114.879L39.4017 114.273L36.0161 118.716L36.8116 119.322ZM36.8101 119.324C36.8106 119.324 36.811 119.323 36.8111 119.323C36.8113 119.323 36.8112 119.323 36.811 119.323L36.0167 118.716C36.0162 118.716 36.0158 118.717 36.0157 118.717C36.0155 118.717 36.0156 118.717 36.0158 118.717L36.8101 119.324ZM36.0152 118.717L32.9832 122.697L33.7787 123.303L36.8107 119.324L36.0152 118.717ZM33.7642 122.679L30.5496 118.843L29.7832 119.486L32.9977 123.321L33.7642 122.679ZM25.8158 114.752L29.7832 119.486L30.5496 118.843L26.5822 114.109L25.8158 114.752ZM25.8136 114.749C25.8143 114.75 25.815 114.751 25.8152 114.751C25.8156 114.752 25.8155 114.751 25.8153 114.751L26.5827 114.11C26.5818 114.109 26.581 114.108 26.5806 114.108C26.5801 114.107 26.5801 114.107 26.5801 114.107L25.8136 114.749ZM23.1333 113.5C24.1676 113.5 25.1489 113.957 25.8139 114.75L26.5798 114.107C25.7248 113.088 24.4632 112.5 23.1333 112.5V113.5ZM5 113.5H23.1333V112.5H5V113.5ZM0.5 109C0.5 111.485 2.51471 113.5 5 113.5V112.5C3.067 112.5 1.5 110.933 1.5 109H0.5ZM0.5 5V109H1.5V5H0.5Z" fill="#009B77"/>
</svg>
