<svg width="340" height="181" viewBox="0 0 340 181" fill="none" xmlns="http://www.w3.org/2000/svg">
<rect width="340" height="180" transform="translate(0 0.861267)" fill="#BFC6CE"/>
<g clip-path="url(#clip0_492_3503)">
<path d="M187.927 88.9327C189.411 89.7897 189.411 91.9323 187.927 92.7894L161.207 108.216C159.722 109.073 157.867 108.002 157.867 106.288L157.867 75.4342C157.867 73.7201 159.722 72.6488 161.207 73.5059L187.927 88.9327Z" fill="white"/>
</g>
<path d="M30.7656 147.385L32.1562 147.166C32.2344 147.723 32.4505 148.15 32.8047 148.447C33.1641 148.744 33.6641 148.893 34.3047 148.893C34.9505 148.893 35.4297 148.762 35.7422 148.502C36.0547 148.236 36.2109 147.926 36.2109 147.572C36.2109 147.254 36.0729 147.004 35.7969 146.822C35.6042 146.697 35.125 146.538 34.3594 146.346C33.3281 146.085 32.612 145.861 32.2109 145.674C31.8151 145.481 31.513 145.218 31.3047 144.885C31.1016 144.546 31 144.174 31 143.768C31 143.398 31.0833 143.057 31.25 142.744C31.4219 142.426 31.6536 142.163 31.9453 141.955C32.1641 141.794 32.4609 141.658 32.8359 141.549C33.2161 141.434 33.6224 141.377 34.0547 141.377C34.7057 141.377 35.276 141.471 35.7656 141.658C36.2604 141.846 36.625 142.101 36.8594 142.424C37.0938 142.741 37.2552 143.169 37.3438 143.705L35.9688 143.893C35.9062 143.465 35.724 143.132 35.4219 142.893C35.125 142.653 34.7031 142.533 34.1562 142.533C33.5104 142.533 33.0495 142.64 32.7734 142.853C32.4974 143.067 32.3594 143.317 32.3594 143.603C32.3594 143.786 32.4167 143.95 32.5312 144.096C32.6458 144.247 32.8255 144.372 33.0703 144.471C33.2109 144.523 33.625 144.643 34.3125 144.83C35.3073 145.096 36 145.314 36.3906 145.486C36.7865 145.653 37.0964 145.898 37.3203 146.221C37.5443 146.544 37.6562 146.945 37.6562 147.424C37.6562 147.893 37.5182 148.335 37.2422 148.752C36.9714 149.163 36.5781 149.484 36.0625 149.713C35.5469 149.937 34.9635 150.049 34.3125 150.049C33.2344 150.049 32.4115 149.825 31.8438 149.377C31.2812 148.929 30.9219 148.265 30.7656 147.385ZM45.0078 147.189L46.4609 147.369C46.2318 148.218 45.8073 148.877 45.1875 149.346C44.5677 149.814 43.776 150.049 42.8125 150.049C41.599 150.049 40.6354 149.676 39.9219 148.932C39.2135 148.182 38.8594 147.132 38.8594 145.783C38.8594 144.387 39.2188 143.304 39.9375 142.533C40.6562 141.762 41.5885 141.377 42.7344 141.377C43.8438 141.377 44.75 141.754 45.4531 142.51C46.1562 143.265 46.5078 144.327 46.5078 145.697C46.5078 145.781 46.5052 145.906 46.5 146.072H40.3125C40.3646 146.984 40.6224 147.682 41.0859 148.166C41.5495 148.65 42.1276 148.893 42.8203 148.893C43.3359 148.893 43.776 148.757 44.1406 148.486C44.5052 148.215 44.7943 147.783 45.0078 147.189ZM40.3906 144.916H45.0234C44.9609 144.218 44.7839 143.695 44.4922 143.346C44.0443 142.804 43.4635 142.533 42.75 142.533C42.1042 142.533 41.5599 142.749 41.1172 143.182C40.6797 143.614 40.4375 144.192 40.3906 144.916ZM48.2031 149.861V138.408H49.6094V149.861H48.2031ZM57.4766 147.189L58.9297 147.369C58.7005 148.218 58.276 148.877 57.6562 149.346C57.0365 149.814 56.2448 150.049 55.2812 150.049C54.0677 150.049 53.1042 149.676 52.3906 148.932C51.6823 148.182 51.3281 147.132 51.3281 145.783C51.3281 144.387 51.6875 143.304 52.4062 142.533C53.125 141.762 54.0573 141.377 55.2031 141.377C56.3125 141.377 57.2188 141.754 57.9219 142.51C58.625 143.265 58.9766 144.327 58.9766 145.697C58.9766 145.781 58.974 145.906 58.9688 146.072H52.7812C52.8333 146.984 53.0911 147.682 53.5547 148.166C54.0182 148.65 54.5964 148.893 55.2891 148.893C55.8047 148.893 56.2448 148.757 56.6094 148.486C56.974 148.215 57.263 147.783 57.4766 147.189ZM52.8594 144.916H57.4922C57.4297 144.218 57.2526 143.695 56.9609 143.346C56.513 142.804 55.9323 142.533 55.2188 142.533C54.5729 142.533 54.0286 142.749 53.5859 143.182C53.1484 143.614 52.9062 144.192 52.8594 144.916ZM66.1172 146.822L67.5 147.002C67.349 147.955 66.9609 148.702 66.3359 149.244C65.7161 149.781 64.9531 150.049 64.0469 150.049C62.9115 150.049 61.9974 149.679 61.3047 148.939C60.6172 148.195 60.2734 147.129 60.2734 145.744C60.2734 144.848 60.4219 144.064 60.7188 143.393C61.0156 142.721 61.4661 142.218 62.0703 141.885C62.6797 141.546 63.3411 141.377 64.0547 141.377C64.9557 141.377 65.6927 141.606 66.2656 142.064C66.8385 142.518 67.2057 143.163 67.3672 144.002L66 144.213C65.8698 143.656 65.638 143.236 65.3047 142.955C64.9766 142.674 64.5781 142.533 64.1094 142.533C63.401 142.533 62.8255 142.788 62.3828 143.299C61.9401 143.804 61.7188 144.606 61.7188 145.705C61.7188 146.82 61.9323 147.629 62.3594 148.135C62.7865 148.64 63.3438 148.893 64.0312 148.893C64.5833 148.893 65.0443 148.723 65.4141 148.385C65.7839 148.046 66.0182 147.525 66.1172 146.822ZM71.7734 148.603L71.9766 149.846C71.5807 149.929 71.2266 149.971 70.9141 149.971C70.4036 149.971 70.0078 149.89 69.7266 149.728C69.4453 149.567 69.2474 149.356 69.1328 149.096C69.0182 148.83 68.9609 148.275 68.9609 147.432V142.658H67.9297V141.564H68.9609V139.51L70.3594 138.666V141.564H71.7734V142.658H70.3594V147.51C70.3594 147.911 70.3828 148.169 70.4297 148.283C70.4818 148.398 70.5625 148.489 70.6719 148.557C70.7865 148.624 70.9479 148.658 71.1562 148.658C71.3125 148.658 71.5182 148.64 71.7734 148.603ZM77.5469 153.057L77.3906 151.736C77.6979 151.82 77.9661 151.861 78.1953 151.861C78.5078 151.861 78.7578 151.809 78.9453 151.705C79.1328 151.601 79.2865 151.455 79.4062 151.268C79.4948 151.127 79.638 150.778 79.8359 150.221C79.862 150.143 79.9036 150.028 79.9609 149.877L76.8125 141.564H78.3281L80.0547 146.369C80.2786 146.978 80.4792 147.619 80.6562 148.291C80.8177 147.645 81.0104 147.015 81.2344 146.4L83.0078 141.564H84.4141L81.2578 150.002C80.9193 150.913 80.6562 151.541 80.4688 151.885C80.2188 152.348 79.9323 152.687 79.6094 152.9C79.2865 153.119 78.901 153.228 78.4531 153.228C78.1823 153.228 77.8802 153.171 77.5469 153.057ZM85.0859 145.713C85.0859 144.176 85.513 143.038 86.3672 142.299C87.0807 141.684 87.9505 141.377 88.9766 141.377C90.1172 141.377 91.0495 141.752 91.7734 142.502C92.4974 143.247 92.8594 144.278 92.8594 145.596C92.8594 146.663 92.6979 147.504 92.375 148.119C92.0573 148.728 91.5911 149.202 90.9766 149.541C90.3672 149.879 89.7005 150.049 88.9766 150.049C87.8151 150.049 86.875 149.676 86.1562 148.932C85.4427 148.187 85.0859 147.114 85.0859 145.713ZM86.5312 145.713C86.5312 146.775 86.763 147.572 87.2266 148.103C87.6901 148.629 88.2734 148.893 88.9766 148.893C89.6745 148.893 90.2552 148.627 90.7188 148.096C91.1823 147.564 91.4141 146.754 91.4141 145.666C91.4141 144.64 91.1797 143.864 90.7109 143.338C90.2474 142.807 89.6693 142.541 88.9766 142.541C88.2734 142.541 87.6901 142.804 87.2266 143.33C86.763 143.856 86.5312 144.65 86.5312 145.713ZM99.9531 149.861V148.643C99.3073 149.58 98.4297 150.049 97.3203 150.049C96.8307 150.049 96.3724 149.955 95.9453 149.768C95.5234 149.58 95.2083 149.346 95 149.064C94.7969 148.778 94.6536 148.429 94.5703 148.018C94.513 147.741 94.4844 147.304 94.4844 146.705V141.564H95.8906V146.166C95.8906 146.9 95.9193 147.395 95.9766 147.65C96.0651 148.02 96.2526 148.312 96.5391 148.525C96.8255 148.734 97.1797 148.838 97.6016 148.838C98.0234 148.838 98.4193 148.731 98.7891 148.518C99.1589 148.299 99.4193 148.004 99.5703 147.635C99.7266 147.26 99.8047 146.718 99.8047 146.01V141.564H101.211V149.861H99.9531ZM103.406 149.861V141.564H104.672V142.822C104.995 142.234 105.292 141.846 105.562 141.658C105.839 141.471 106.141 141.377 106.469 141.377C106.943 141.377 107.424 141.528 107.914 141.83L107.43 143.135C107.086 142.932 106.742 142.83 106.398 142.83C106.091 142.83 105.815 142.924 105.57 143.111C105.326 143.294 105.151 143.549 105.047 143.877C104.891 144.377 104.812 144.924 104.812 145.518V149.861H103.406ZM115.508 149.861L112.352 141.564H113.836L115.617 146.533C115.81 147.07 115.987 147.627 116.148 148.205C116.273 147.768 116.448 147.241 116.672 146.627L118.516 141.564H119.961L116.82 149.861H115.508ZM121.211 140.025V138.408H122.617V140.025H121.211ZM121.211 149.861V141.564H122.617V149.861H121.211ZM130.148 149.861V148.814C129.622 149.637 128.849 150.049 127.828 150.049C127.167 150.049 126.557 149.866 126 149.502C125.448 149.137 125.018 148.629 124.711 147.978C124.409 147.322 124.258 146.57 124.258 145.721C124.258 144.893 124.396 144.143 124.672 143.471C124.948 142.794 125.362 142.275 125.914 141.916C126.466 141.557 127.083 141.377 127.766 141.377C128.266 141.377 128.711 141.484 129.102 141.697C129.492 141.906 129.81 142.179 130.055 142.518V138.408H131.453V149.861H130.148ZM125.703 145.721C125.703 146.783 125.927 147.577 126.375 148.103C126.823 148.629 127.352 148.893 127.961 148.893C128.576 148.893 129.096 148.643 129.523 148.143C129.956 147.637 130.172 146.869 130.172 145.838C130.172 144.702 129.953 143.869 129.516 143.338C129.078 142.807 128.539 142.541 127.898 142.541C127.273 142.541 126.75 142.796 126.328 143.307C125.911 143.817 125.703 144.622 125.703 145.721ZM139.352 147.189L140.805 147.369C140.576 148.218 140.151 148.877 139.531 149.346C138.911 149.814 138.12 150.049 137.156 150.049C135.943 150.049 134.979 149.676 134.266 148.932C133.557 148.182 133.203 147.132 133.203 145.783C133.203 144.387 133.562 143.304 134.281 142.533C135 141.762 135.932 141.377 137.078 141.377C138.188 141.377 139.094 141.754 139.797 142.51C140.5 143.265 140.852 144.327 140.852 145.697C140.852 145.781 140.849 145.906 140.844 146.072H134.656C134.708 146.984 134.966 147.682 135.43 148.166C135.893 148.65 136.471 148.893 137.164 148.893C137.68 148.893 138.12 148.757 138.484 148.486C138.849 148.215 139.138 147.783 139.352 147.189ZM134.734 144.916H139.367C139.305 144.218 139.128 143.695 138.836 143.346C138.388 142.804 137.807 142.533 137.094 142.533C136.448 142.533 135.904 142.749 135.461 143.182C135.023 143.614 134.781 144.192 134.734 144.916ZM142.055 145.713C142.055 144.176 142.482 143.038 143.336 142.299C144.049 141.684 144.919 141.377 145.945 141.377C147.086 141.377 148.018 141.752 148.742 142.502C149.466 143.247 149.828 144.278 149.828 145.596C149.828 146.663 149.667 147.504 149.344 148.119C149.026 148.728 148.56 149.202 147.945 149.541C147.336 149.879 146.669 150.049 145.945 150.049C144.784 150.049 143.844 149.676 143.125 148.932C142.411 148.187 142.055 147.114 142.055 145.713ZM143.5 145.713C143.5 146.775 143.732 147.572 144.195 148.103C144.659 148.629 145.242 148.893 145.945 148.893C146.643 148.893 147.224 148.627 147.688 148.096C148.151 147.564 148.383 146.754 148.383 145.666C148.383 144.64 148.148 143.864 147.68 143.338C147.216 142.807 146.638 142.541 145.945 142.541C145.242 142.541 144.659 142.804 144.195 143.33C143.732 143.856 143.5 144.65 143.5 145.713ZM156.273 149.861V142.658H155.031V141.564H156.273V140.682C156.273 140.124 156.323 139.71 156.422 139.439C156.557 139.075 156.794 138.781 157.133 138.557C157.477 138.327 157.956 138.213 158.57 138.213C158.966 138.213 159.404 138.26 159.883 138.353L159.672 139.58C159.38 139.528 159.104 139.502 158.844 139.502C158.417 139.502 158.115 139.593 157.938 139.775C157.76 139.958 157.672 140.299 157.672 140.799V141.564H159.289V142.658H157.672V149.861H156.273ZM160.375 149.861V141.564H161.641V142.822C161.964 142.234 162.26 141.846 162.531 141.658C162.807 141.471 163.109 141.377 163.438 141.377C163.911 141.377 164.393 141.528 164.883 141.83L164.398 143.135C164.055 142.932 163.711 142.83 163.367 142.83C163.06 142.83 162.784 142.924 162.539 143.111C162.294 143.294 162.12 143.549 162.016 143.877C161.859 144.377 161.781 144.924 161.781 145.518V149.861H160.375ZM165.195 145.713C165.195 144.176 165.622 143.038 166.477 142.299C167.19 141.684 168.06 141.377 169.086 141.377C170.227 141.377 171.159 141.752 171.883 142.502C172.607 143.247 172.969 144.278 172.969 145.596C172.969 146.663 172.807 147.504 172.484 148.119C172.167 148.728 171.701 149.202 171.086 149.541C170.477 149.879 169.81 150.049 169.086 150.049C167.924 150.049 166.984 149.676 166.266 148.932C165.552 148.187 165.195 147.114 165.195 145.713ZM166.641 145.713C166.641 146.775 166.872 147.572 167.336 148.103C167.799 148.629 168.383 148.893 169.086 148.893C169.784 148.893 170.365 148.627 170.828 148.096C171.292 147.564 171.523 146.754 171.523 145.666C171.523 144.64 171.289 143.864 170.82 143.338C170.357 142.807 169.779 142.541 169.086 142.541C168.383 142.541 167.799 142.804 167.336 143.33C166.872 143.856 166.641 144.65 166.641 145.713ZM174.625 149.861V141.564H175.883V142.728C176.143 142.322 176.49 141.997 176.922 141.752C177.354 141.502 177.846 141.377 178.398 141.377C179.013 141.377 179.516 141.504 179.906 141.76C180.302 142.015 180.581 142.372 180.742 142.83C181.398 141.861 182.253 141.377 183.305 141.377C184.128 141.377 184.76 141.606 185.203 142.064C185.646 142.518 185.867 143.218 185.867 144.166V149.861H184.469V144.635C184.469 144.072 184.422 143.669 184.328 143.424C184.24 143.174 184.076 142.973 183.836 142.822C183.596 142.671 183.315 142.596 182.992 142.596C182.409 142.596 181.924 142.791 181.539 143.182C181.154 143.567 180.961 144.187 180.961 145.041V149.861H179.555V144.471C179.555 143.846 179.44 143.377 179.211 143.064C178.982 142.752 178.607 142.596 178.086 142.596C177.69 142.596 177.323 142.7 176.984 142.908C176.651 143.116 176.409 143.421 176.258 143.822C176.107 144.223 176.031 144.801 176.031 145.557V149.861H174.625ZM195.477 148.603L195.68 149.846C195.284 149.929 194.93 149.971 194.617 149.971C194.107 149.971 193.711 149.89 193.43 149.728C193.148 149.567 192.951 149.356 192.836 149.096C192.721 148.83 192.664 148.275 192.664 147.432V142.658H191.633V141.564H192.664V139.51L194.062 138.666V141.564H195.477V142.658H194.062V147.51C194.062 147.911 194.086 148.169 194.133 148.283C194.185 148.398 194.266 148.489 194.375 148.557C194.49 148.624 194.651 148.658 194.859 148.658C195.016 148.658 195.221 148.64 195.477 148.603ZM196.859 149.861V138.408H198.266V142.518C198.922 141.757 199.75 141.377 200.75 141.377C201.365 141.377 201.898 141.499 202.352 141.744C202.805 141.984 203.128 142.317 203.32 142.744C203.518 143.171 203.617 143.791 203.617 144.603V149.861H202.211V144.603C202.211 143.9 202.057 143.39 201.75 143.072C201.448 142.749 201.018 142.588 200.461 142.588C200.044 142.588 199.651 142.697 199.281 142.916C198.917 143.129 198.656 143.421 198.5 143.791C198.344 144.161 198.266 144.671 198.266 145.322V149.861H196.859ZM211.445 147.189L212.898 147.369C212.669 148.218 212.245 148.877 211.625 149.346C211.005 149.814 210.214 150.049 209.25 150.049C208.036 150.049 207.073 149.676 206.359 148.932C205.651 148.182 205.297 147.132 205.297 145.783C205.297 144.387 205.656 143.304 206.375 142.533C207.094 141.762 208.026 141.377 209.172 141.377C210.281 141.377 211.188 141.754 211.891 142.51C212.594 143.265 212.945 144.327 212.945 145.697C212.945 145.781 212.943 145.906 212.938 146.072H206.75C206.802 146.984 207.06 147.682 207.523 148.166C207.987 148.65 208.565 148.893 209.258 148.893C209.773 148.893 210.214 148.757 210.578 148.486C210.943 148.215 211.232 147.783 211.445 147.189ZM206.828 144.916H211.461C211.398 144.218 211.221 143.695 210.93 143.346C210.482 142.804 209.901 142.533 209.188 142.533C208.542 142.533 207.997 142.749 207.555 143.182C207.117 143.614 206.875 144.192 206.828 144.916ZM219.125 149.861V141.564H220.383V142.728C220.643 142.322 220.99 141.997 221.422 141.752C221.854 141.502 222.346 141.377 222.898 141.377C223.513 141.377 224.016 141.504 224.406 141.76C224.802 142.015 225.081 142.372 225.242 142.83C225.898 141.861 226.753 141.377 227.805 141.377C228.628 141.377 229.26 141.606 229.703 142.064C230.146 142.518 230.367 143.218 230.367 144.166V149.861H228.969V144.635C228.969 144.072 228.922 143.669 228.828 143.424C228.74 143.174 228.576 142.973 228.336 142.822C228.096 142.671 227.815 142.596 227.492 142.596C226.909 142.596 226.424 142.791 226.039 143.182C225.654 143.567 225.461 144.187 225.461 145.041V149.861H224.055V144.471C224.055 143.846 223.94 143.377 223.711 143.064C223.482 142.752 223.107 142.596 222.586 142.596C222.19 142.596 221.823 142.7 221.484 142.908C221.151 143.116 220.909 143.421 220.758 143.822C220.607 144.223 220.531 144.801 220.531 145.557V149.861H219.125ZM238.133 147.189L239.586 147.369C239.357 148.218 238.932 148.877 238.312 149.346C237.693 149.814 236.901 150.049 235.938 150.049C234.724 150.049 233.76 149.676 233.047 148.932C232.339 148.182 231.984 147.132 231.984 145.783C231.984 144.387 232.344 143.304 233.062 142.533C233.781 141.762 234.714 141.377 235.859 141.377C236.969 141.377 237.875 141.754 238.578 142.51C239.281 143.265 239.633 144.327 239.633 145.697C239.633 145.781 239.63 145.906 239.625 146.072H233.438C233.49 146.984 233.747 147.682 234.211 148.166C234.674 148.65 235.253 148.893 235.945 148.893C236.461 148.893 236.901 148.757 237.266 148.486C237.63 148.215 237.919 147.783 238.133 147.189ZM233.516 144.916H238.148C238.086 144.218 237.909 143.695 237.617 143.346C237.169 142.804 236.589 142.533 235.875 142.533C235.229 142.533 234.685 142.749 234.242 143.182C233.805 143.614 233.562 144.192 233.516 144.916ZM246.742 149.861V148.814C246.216 149.637 245.443 150.049 244.422 150.049C243.76 150.049 243.151 149.866 242.594 149.502C242.042 149.137 241.612 148.629 241.305 147.978C241.003 147.322 240.852 146.57 240.852 145.721C240.852 144.893 240.99 144.143 241.266 143.471C241.542 142.794 241.956 142.275 242.508 141.916C243.06 141.557 243.677 141.377 244.359 141.377C244.859 141.377 245.305 141.484 245.695 141.697C246.086 141.906 246.404 142.179 246.648 142.518V138.408H248.047V149.861H246.742ZM242.297 145.721C242.297 146.783 242.521 147.577 242.969 148.103C243.417 148.629 243.945 148.893 244.555 148.893C245.169 148.893 245.69 148.643 246.117 148.143C246.549 147.637 246.766 146.869 246.766 145.838C246.766 144.702 246.547 143.869 246.109 143.338C245.672 142.807 245.133 142.541 244.492 142.541C243.867 142.541 243.344 142.796 242.922 143.307C242.505 143.817 242.297 144.622 242.297 145.721ZM250.273 140.025V138.408H251.68V140.025H250.273ZM250.273 149.861V141.564H251.68V149.861H250.273ZM259.242 148.838C258.721 149.281 258.219 149.593 257.734 149.775C257.255 149.958 256.74 150.049 256.188 150.049C255.276 150.049 254.576 149.827 254.086 149.385C253.596 148.937 253.352 148.366 253.352 147.674C253.352 147.268 253.443 146.898 253.625 146.564C253.812 146.226 254.055 145.955 254.352 145.752C254.654 145.549 254.992 145.395 255.367 145.291C255.643 145.218 256.06 145.148 256.617 145.08C257.753 144.945 258.589 144.783 259.125 144.596C259.13 144.403 259.133 144.281 259.133 144.228C259.133 143.656 259 143.252 258.734 143.018C258.375 142.7 257.841 142.541 257.133 142.541C256.471 142.541 255.982 142.658 255.664 142.893C255.352 143.122 255.12 143.531 254.969 144.119L253.594 143.932C253.719 143.343 253.924 142.869 254.211 142.51C254.497 142.145 254.911 141.866 255.453 141.674C255.995 141.476 256.622 141.377 257.336 141.377C258.044 141.377 258.62 141.46 259.062 141.627C259.505 141.794 259.831 142.004 260.039 142.26C260.247 142.51 260.393 142.827 260.477 143.213C260.523 143.452 260.547 143.885 260.547 144.51V146.385C260.547 147.692 260.576 148.52 260.633 148.869C260.695 149.213 260.815 149.544 260.992 149.861H259.523C259.378 149.57 259.284 149.228 259.242 148.838ZM259.125 145.697C258.615 145.906 257.849 146.083 256.828 146.228C256.25 146.312 255.841 146.406 255.602 146.51C255.362 146.614 255.177 146.768 255.047 146.971C254.917 147.169 254.852 147.39 254.852 147.635C254.852 148.01 254.992 148.322 255.273 148.572C255.56 148.822 255.977 148.947 256.523 148.947C257.065 148.947 257.547 148.83 257.969 148.596C258.391 148.356 258.701 148.031 258.898 147.619C259.049 147.301 259.125 146.833 259.125 146.213V145.697ZM267.156 149.861V138.408H268.562V149.861H267.156ZM270.758 140.025V138.408H272.164V140.025H270.758ZM270.758 149.861V141.564H272.164V149.861H270.758ZM275.609 149.861H274.305V138.408H275.711V142.494C276.305 141.749 277.062 141.377 277.984 141.377C278.495 141.377 278.977 141.481 279.43 141.689C279.888 141.893 280.263 142.182 280.555 142.557C280.852 142.926 281.083 143.374 281.25 143.9C281.417 144.426 281.5 144.989 281.5 145.588C281.5 147.01 281.148 148.109 280.445 148.885C279.742 149.661 278.898 150.049 277.914 150.049C276.935 150.049 276.167 149.64 275.609 148.822V149.861ZM275.594 145.65C275.594 146.645 275.729 147.364 276 147.807C276.443 148.531 277.042 148.893 277.797 148.893C278.411 148.893 278.943 148.627 279.391 148.096C279.839 147.559 280.062 146.762 280.062 145.705C280.062 144.622 279.846 143.822 279.414 143.307C278.987 142.791 278.469 142.533 277.859 142.533C277.245 142.533 276.714 142.801 276.266 143.338C275.818 143.869 275.594 144.64 275.594 145.65ZM283.203 149.861V141.564H284.469V142.822C284.792 142.234 285.089 141.846 285.359 141.658C285.635 141.471 285.938 141.377 286.266 141.377C286.74 141.377 287.221 141.528 287.711 141.83L287.227 143.135C286.883 142.932 286.539 142.83 286.195 142.83C285.888 142.83 285.612 142.924 285.367 143.111C285.122 143.294 284.948 143.549 284.844 143.877C284.688 144.377 284.609 144.924 284.609 145.518V149.861H283.203ZM293.961 148.838C293.44 149.281 292.938 149.593 292.453 149.775C291.974 149.958 291.458 150.049 290.906 150.049C289.995 150.049 289.294 149.827 288.805 149.385C288.315 148.937 288.07 148.366 288.07 147.674C288.07 147.268 288.161 146.898 288.344 146.564C288.531 146.226 288.773 145.955 289.07 145.752C289.372 145.549 289.711 145.395 290.086 145.291C290.362 145.218 290.779 145.148 291.336 145.08C292.471 144.945 293.307 144.783 293.844 144.596C293.849 144.403 293.852 144.281 293.852 144.228C293.852 143.656 293.719 143.252 293.453 143.018C293.094 142.7 292.56 142.541 291.852 142.541C291.19 142.541 290.701 142.658 290.383 142.893C290.07 143.122 289.839 143.531 289.688 144.119L288.312 143.932C288.438 143.343 288.643 142.869 288.93 142.51C289.216 142.145 289.63 141.866 290.172 141.674C290.714 141.476 291.341 141.377 292.055 141.377C292.763 141.377 293.339 141.46 293.781 141.627C294.224 141.794 294.549 142.004 294.758 142.26C294.966 142.51 295.112 142.827 295.195 143.213C295.242 143.452 295.266 143.885 295.266 144.51V146.385C295.266 147.692 295.294 148.52 295.352 148.869C295.414 149.213 295.534 149.544 295.711 149.861H294.242C294.096 149.57 294.003 149.228 293.961 148.838ZM293.844 145.697C293.333 145.906 292.568 146.083 291.547 146.228C290.969 146.312 290.56 146.406 290.32 146.51C290.081 146.614 289.896 146.768 289.766 146.971C289.635 147.169 289.57 147.39 289.57 147.635C289.57 148.01 289.711 148.322 289.992 148.572C290.279 148.822 290.695 148.947 291.242 148.947C291.784 148.947 292.266 148.83 292.688 148.596C293.109 148.356 293.419 148.031 293.617 147.619C293.768 147.301 293.844 146.833 293.844 146.213V145.697ZM297.438 149.861V141.564H298.703V142.822C299.026 142.234 299.323 141.846 299.594 141.658C299.87 141.471 300.172 141.377 300.5 141.377C300.974 141.377 301.456 141.528 301.945 141.83L301.461 143.135C301.117 142.932 300.773 142.83 300.43 142.83C300.122 142.83 299.846 142.924 299.602 143.111C299.357 143.294 299.182 143.549 299.078 143.877C298.922 144.377 298.844 144.924 298.844 145.518V149.861H297.438ZM302.719 153.057L302.562 151.736C302.87 151.82 303.138 151.861 303.367 151.861C303.68 151.861 303.93 151.809 304.117 151.705C304.305 151.601 304.458 151.455 304.578 151.268C304.667 151.127 304.81 150.778 305.008 150.221C305.034 150.143 305.076 150.028 305.133 149.877L301.984 141.564H303.5L305.227 146.369C305.451 146.978 305.651 147.619 305.828 148.291C305.99 147.645 306.182 147.015 306.406 146.4L308.18 141.564H309.586L306.43 150.002C306.091 150.913 305.828 151.541 305.641 151.885C305.391 152.348 305.104 152.687 304.781 152.9C304.458 153.119 304.073 153.228 303.625 153.228C303.354 153.228 303.052 153.171 302.719 153.057Z" fill="#666666"/>
<defs>
<clipPath id="clip0_492_3503">
<rect width="44.5333" height="44.5333" fill="white" transform="translate(147 68.8613)"/>
</clipPath>
</defs>
</svg>
