<svg>

<symbol id="download-icon" fill="none" viewBox="0 0 24 24" xmlns="http://www.w3.org/2000/svg">
        <path stroke="#fff" stroke-linecap="round" stroke-linejoin="round" stroke-width="1.5"
                d="M12 3v16m6-6l-6 6-6-6M4 23h16" />
</symbol>

<symbol id="arrow-right" fill="none" viewBox="0 0 12 12" xmlns="http://www.w3.org/2000/svg">
        <path fill="#000" fill-rule="evenodd"
                d="M3.151 11.153a.488.488 0 010-.707L7.752 6l-4.6-4.447a.488.488 0 010-.707.53.53 0 01.732 0l4.966 4.8a.492.492 0 010 .707l-4.966 4.8a.53.53 0 01-.732 0z"
                clip-rule="evenodd" />
</symbol>

<symbol id="tutorial-icon" fill="none" viewBox="0 0 17 16" xmlns="http://www.w3.org/2000/svg">
        <path stroke="#000" d="M1 6h15v4H1z" />
        <rect width="15" height="13" x="1" y="1.5" stroke="#000" rx="1.5" />
</symbol>

<symbol id="play-video" viewBox="0 0 35 42" fill="none" xmlns="http://www.w3.org/2000/svg">
<path d="M0.5 39.8915V2.1085C0.5 0.537624 2.2279 -0.420061 3.56 0.4125L33.7864 19.304C35.0397 20.0873 35.0397 21.9127 33.7864 22.696L3.56 41.5875C2.2279 42.4201 0.5 41.4624 0.5 39.8915Z" fill="white"/>
</symbol>

<symbol id="infobox"  viewBox="0 0 24 24" fill="none" xmlns="http://www.w3.org/2000/svg">
<path d="M12 22C17.5 22 22 17.5 22 12C22 6.5 17.5 2 12 2C6.5 2 2 6.5 2 12C2 17.5 6.5 22 12 22Z" stroke="#00A6D6" stroke-width="1.5" stroke-linecap="round" stroke-linejoin="round"/>
<path d="M11.998 16V11" stroke="#00A6D6" stroke-width="1.5" stroke-linecap="round" stroke-linejoin="round"/>
<path d="M12.0039 8H11.9949" stroke="#00A6D6" stroke-width="2" stroke-linecap="round" stroke-linejoin="round"/>
</symbol>
<symbol id="arrow"  viewBox="0 0 9 14" fill="none" xmlns="http://www.w3.org/2000/svg">
<path d="M1.42969 1L8.06234 7.00005L1.42969 13" stroke="#00A6D6" stroke-width="1.5" stroke-linecap="round" stroke-linejoin="round"/>
</symbol>
<symbol id="arrow-large"  viewBox="0 0 14 22" fill="none" xmlns="http://www.w3.org/2000/svg">
<path d="M1.71191 1L12.7663 11.0001L1.71191 21" stroke="#00A6D6" stroke-width="2" stroke-linecap="round" stroke-linejoin="round"/>
</symbol>

<symbol id="line"  viewBox="0 0 30 2" fill="none" xmlns="http://www.w3.org/2000/svg">
<path d="M1.00195 0.976562L29 1.00639" stroke="#00A6D6" stroke-width="1.5" stroke-linecap="round" stroke-linejoin="round"/>
</symbol>
<symbol id="line-large"  viewBox="0 0 38 3" fill="none" xmlns="http://www.w3.org/2000/svg">
<path d="M1 1.96094H37.0001" stroke="#00A6D6" stroke-width="2" stroke-linecap="round" stroke-linejoin="round"/>
</symbol>

<symbol id="select"  viewBox="0 0 20 20" fill="none" xmlns="http://www.w3.org/2000/svg">
<path fill-rule="evenodd" clip-rule="evenodd" d="M18.5303 14.5303C18.2374 14.8232 17.7626 14.8232 17.4697 14.5303L10 7.06066L2.53033 14.5303C2.23744 14.8232 1.76256 14.8232 1.46967 14.5303C1.17678 14.2374 1.17678 13.7626 1.46967 13.4697L9.46967 5.46967C9.76256 5.17678 10.2374 5.17678 10.5303 5.46967L18.5303 13.4697C18.8232 13.7626 18.8232 14.2374 18.5303 14.5303Z" fill="#67676B"/>
</symbol>
<symbol id="sort"  viewBox="0 0 24 25" fill="none" xmlns="http://www.w3.org/2000/svg">
<g clip-path="url(#clip0_1463_8073)">
<g clip-path="url(#clip1_1463_8073)">
<path fill-rule="evenodd" clip-rule="evenodd" d="M1.9111 18.3605C2.10636 18.1585 2.42294 18.1585 2.6182 18.3605L7.06465 22.9603L11.5111 18.3605C11.7064 18.1585 12.0229 18.1585 12.2182 18.3605C12.4135 18.5625 12.4135 18.89 12.2182 19.092L7.4182 24.0575C7.32443 24.1545 7.19726 24.209 7.06465 24.209C6.93204 24.209 6.80486 24.1545 6.7111 24.0575L1.9111 19.092C1.71583 18.89 1.71583 18.5625 1.9111 18.3605Z" fill="black"/>
<path fill-rule="evenodd" clip-rule="evenodd" d="M7.56445 10.856L7.56445 23.209L6.56445 23.209L6.56445 10.856C6.56445 10.4987 6.78831 10.209 7.06445 10.209C7.3406 10.209 7.56445 10.4987 7.56445 10.856Z" fill="black"/>
<path fill-rule="evenodd" clip-rule="evenodd" d="M21.6172 6.05749C21.422 6.25948 21.1054 6.25948 20.9101 6.05749L16.4637 1.45772L12.0172 6.05749C11.822 6.25948 11.5054 6.25948 11.3101 6.05749C11.1149 5.85549 11.1149 5.52799 11.3101 5.326L16.1101 0.360481C16.2039 0.26348 16.3311 0.208984 16.4637 0.208984C16.5963 0.208984 16.7235 0.26348 16.8172 0.360481L21.6172 5.326C21.8125 5.52799 21.8125 5.85549 21.6172 6.05749Z" fill="black"/>
<path fill-rule="evenodd" clip-rule="evenodd" d="M15.9648 13.5619V1.20898H16.9648V13.5619C16.9648 13.9193 16.741 14.209 16.4648 14.209C16.1887 14.209 15.9648 13.9193 15.9648 13.5619Z" fill="black"/>
</g>
</g>
<defs>
<clipPath id="clip0_1463_8073">
<rect width="24" height="24" fill="white" transform="translate(0 0.208984)"/>
</clipPath>
<clipPath id="clip1_1463_8073">
<rect width="24" height="24" fill="white" transform="translate(-0.235352 0.208984)"/>
</clipPath>
</defs>
</symbol>

<symbol id="filter" viewBox="0 0 24 25" fill="none" xmlns="http://www.w3.org/2000/svg">
<path d="M3.08 6.76898L3.72 9.00898C3.83 9.39898 4.06 9.74898 4.37 10.009L10.25 14.839C10.71 15.219 10.98 15.789 10.98 16.389V21.339C10.98 22.349 12.32 22.719 12.84 21.849L13.75 20.099C13.9 19.809 13.98 19.499 13.98 19.169V16.329C13.98 15.759 14.23 15.209 14.66 14.829L20.14 9.98898C20.43 9.73898 20.63 9.40898 20.74 9.03898L21.39 6.75898C21.76 5.47898 20.8 4.20898 19.47 4.20898H5C3.67 4.21898 2.71 5.48898 3.08 6.76898Z" stroke="black" stroke-width="1.5"/>
</symbol>



</svg>