<svg>

<symbol id="download-icon" fill="none" viewBox="0 0 24 24" xmlns="http://www.w3.org/2000/svg">
        <path stroke="#fff" stroke-linecap="round" stroke-linejoin="round" stroke-width="1.5"
                d="M12 3v16m6-6l-6 6-6-6M4 23h16" />
</symbol>

<symbol id="arrow-right" fill="none" viewBox="0 0 12 12" xmlns="http://www.w3.org/2000/svg">
        <path fill="#000" fill-rule="evenodd"
                d="M3.151 11.153a.488.488 0 010-.707L7.752 6l-4.6-4.447a.488.488 0 010-.707.53.53 0 01.732 0l4.966 4.8a.492.492 0 010 .707l-4.966 4.8a.53.53 0 01-.732 0z"
                clip-rule="evenodd" />
</symbol>

<symbol id="tutorial-icon" fill="none" viewBox="0 0 17 16" xmlns="http://www.w3.org/2000/svg">
        <path stroke="#000" d="M1 6h15v4H1z" />
        <rect width="15" height="13" x="1" y="1.5" stroke="#000" rx="1.5" />
</symbol>

<symbol id="play-video" viewBox="0 0 35 42" fill="none" xmlns="http://www.w3.org/2000/svg">
<path d="M0.5 39.8915V2.1085C0.5 0.537624 2.2279 -0.420061 3.56 0.4125L33.7864 19.304C35.0397 20.0873 35.0397 21.9127 33.7864 22.696L3.56 41.5875C2.2279 42.4201 0.5 41.4624 0.5 39.8915Z" fill="white"/>
</symbol>

<symbol id="infobox"  viewBox="0 0 24 24" fill="none" xmlns="http://www.w3.org/2000/svg">
<path d="M12 22C17.5 22 22 17.5 22 12C22 6.5 17.5 2 12 2C6.5 2 2 6.5 2 12C2 17.5 6.5 22 12 22Z" stroke="#00A6D6" stroke-width="1.5" stroke-linecap="round" stroke-linejoin="round"/>
<path d="M11.998 16V11" stroke="#00A6D6" stroke-width="1.5" stroke-linecap="round" stroke-linejoin="round"/>
<path d="M12.0039 8H11.9949" stroke="#00A6D6" stroke-width="2" stroke-linecap="round" stroke-linejoin="round"/>
</symbol>
<symbol id="arrow"  viewBox="0 0 9 14" fill="none" xmlns="http://www.w3.org/2000/svg">
<path d="M1.42969 1L8.06234 7.00005L1.42969 13" stroke="#00A6D6" stroke-width="1.5" stroke-linecap="round" stroke-linejoin="round"/>
</symbol>
<symbol id="arrow-large"  viewBox="0 0 14 22" fill="none" xmlns="http://www.w3.org/2000/svg">
<path d="M1.71191 1L12.7663 11.0001L1.71191 21" stroke="#00A6D6" stroke-width="2" stroke-linecap="round" stroke-linejoin="round"/>
</symbol>

<symbol id="line"  viewBox="0 0 30 2" fill="none" xmlns="http://www.w3.org/2000/svg">
<path d="M1.00195 0.976562L29 1.00639" stroke="#00A6D6" stroke-width="1.5" stroke-linecap="round" stroke-linejoin="round"/>
</symbol>
<symbol id="line-large"  viewBox="0 0 38 3" fill="none" xmlns="http://www.w3.org/2000/svg">
<path d="M1 1.96094H37.0001" stroke="#00A6D6" stroke-width="2" stroke-linecap="round" stroke-linejoin="round"/>
</symbol>

<symbol id="select"  viewBox="0 0 20 20" fill="none" xmlns="http://www.w3.org/2000/svg">
<path fill-rule="evenodd" clip-rule="evenodd" d="M18.5303 14.5303C18.2374 14.8232 17.7626 14.8232 17.4697 14.5303L10 7.06066L2.53033 14.5303C2.23744 14.8232 1.76256 14.8232 1.46967 14.5303C1.17678 14.2374 1.17678 13.7626 1.46967 13.4697L9.46967 5.46967C9.76256 5.17678 10.2374 5.17678 10.5303 5.46967L18.5303 13.4697C18.8232 13.7626 18.8232 14.2374 18.5303 14.5303Z" fill="#67676B"/>
</symbol>




</svg>