<svg>

<symbol id="download-icon" fill="none" viewBox="0 0 24 24" xmlns="http://www.w3.org/2000/svg">
        <path stroke="#fff" stroke-linecap="round" stroke-linejoin="round" stroke-width="1.5"
                d="M12 3v16m6-6l-6 6-6-6M4 23h16" />
</symbol>

<symbol id="arrow-right" fill="none" viewBox="0 0 12 12" xmlns="http://www.w3.org/2000/svg">
        <path fill="#000" fill-rule="evenodd"
                d="M3.151 11.153a.488.488 0 010-.707L7.752 6l-4.6-4.447a.488.488 0 010-.707.53.53 0 01.732 0l4.966 4.8a.492.492 0 010 .707l-4.966 4.8a.53.53 0 01-.732 0z"
                clip-rule="evenodd" />
</symbol>

<symbol id="tutorial-icon" fill="none" viewBox="0 0 17 16" xmlns="http://www.w3.org/2000/svg">
        <path stroke="#000" d="M1 6h15v4H1z" />
        <rect width="15" height="13" x="1" y="1.5" stroke="#000" rx="1.5" />
</symbol>

<symbol id="play-video"  viewBox="0 0 120 120" fill="none" xmlns="http://www.w3.org/2000/svg">
<circle cx="60" cy="60" r="59" fill="#00A6D6" stroke="white" stroke-width="2"/>
<path d="M46.5 78.8915V41.1085C46.5 39.5376 48.2279 38.5799 49.56 39.4125L79.7864 58.304C81.0397 59.0873 81.0397 60.9127 79.7864 61.696L49.56 80.5875C48.2279 81.4201 46.5 80.4624 46.5 78.8915Z" fill="white"/>
</symbol>
<symbol id="infobox"  viewBox="0 0 24 24" fill="none" xmlns="http://www.w3.org/2000/svg">
<path d="M12 22C17.5 22 22 17.5 22 12C22 6.5 17.5 2 12 2C6.5 2 2 6.5 2 12C2 17.5 6.5 22 12 22Z" stroke="#00A6D6" stroke-width="1.5" stroke-linecap="round" stroke-linejoin="round"/>
<path d="M11.998 16V11" stroke="#00A6D6" stroke-width="1.5" stroke-linecap="round" stroke-linejoin="round"/>
<path d="M12.0039 8H11.9949" stroke="#00A6D6" stroke-width="2" stroke-linecap="round" stroke-linejoin="round"/>
</symbol>
<symbol id="arrow"  viewBox="0 0 9 14" fill="none" xmlns="http://www.w3.org/2000/svg">
<path d="M1.42969 1L8.06234 7.00005L1.42969 13" stroke="#00A6D6" stroke-width="1.5" stroke-linecap="round" stroke-linejoin="round"/>
</symbol>

<symbol id="line" width="30" height="2" viewBox="0 0 30 2" fill="none" xmlns="http://www.w3.org/2000/svg">
<path d="M1.00195 0.976562L29 1.00639" stroke="#00A6D6" stroke-width="1.5" stroke-linecap="round" stroke-linejoin="round"/>
</symbol>





</svg>