<svg xmlns="http://www.w3.org/2000/svg" fill="none" viewBox="0 0 375 621"><path fill="#fff" d="M358.865 351.198c-74.814 25.581-152.528 4.991-151.948-102.949 0-164.718 358.99-302.606 408.866-446.11 12.179-35.564 13.339-65.513-2.899-64.265-11.599.624-2.32 18.718-27.838 45.547C436.578-56.229 187.199-56.852-4.185 35.489c-125.27 60.522-492.96 246.452-408.287 661.366 4.06 19.966 15.079 85.479 26.098 85.479 12.759 0 12.759-39.307 12.759-86.726-2.9-247.076 269.098-315.709 357.83-477.307 10.44-19.342 28.998-46.171 33.058-33.692 2.32 6.239.58 14.973-2.9 32.443-27.838 132.898-156.587 217.753-120.05 312.59 47.556 122.915 183.845 31.197 226.181-48.043 11.02-21.837 17.399-35.564 24.938-33.068 5.8 1.872 5.22 26.829 1.74 49.29C124.564 640.701 94.406 720.565-3.026 802.3c-31.317 26.205-80.033 31.197-73.653 51.163 1.74 4.991 22.345 3.69 39.436 2.495 258.659-18.094 474.981-345.657 532.397-560.29 4.148-15.509 7.539-29.325 1.739-34.316-7.539-6.239-19.138 8.111-30.737 19.342-29.578 28.7-70.174 58.026-107.291 70.504z" opacity=".6"/></svg>