<svg xmlns="http://www.w3.org/2000/svg" fill="none" viewBox="0 0 1440 320"><path fill="#fff" d="M1204.38 265.689c-230.24 73.14-469.408 14.27-467.623-294.346 0-470.952 1104.813-865.194 1258.303-1275.493 37.48-101.68 41.05-187.31-8.92-183.74-35.7 1.78-7.14 53.51-85.67 130.22C1443.55-899.204 676.073-900.986 87.079-636.968-298.445-463.929-1430.03 67.674-1169.44 1253.97c12.49 57.09 46.4 244.4 80.31 244.4 39.27 0 39.27-112.39 39.27-247.96-8.92-706.43 828.162-902.662 1101.241-1364.694 32.127-55.301 89.242-132.008 101.735-96.33 7.14 17.839 1.786 42.812-8.923 92.761-85.672 379.973-481.904 622.586-369.46 893.74 146.356 351.433 565.792 89.195 696.085-137.362 33.911-62.436 53.545-101.682 76.747-94.547 17.849 5.352 16.064 76.707 5.355 140.928-69.609 408.514-162.421 636.854-462.272 870.544-96.381 74.93-246.307 89.2-226.674 146.29 5.355 14.27 68.769 10.55 121.37 7.13C781.377 1657.14 1447.12 720.586 1623.82 106.922c12.77-44.344 23.2-83.845 5.35-98.116-23.2-17.84-58.9 23.19-94.59 55.3-91.03 82.061-215.97 165.905-330.2 201.583z" opacity=".6"/></svg>