<svg width="204" height="160" viewBox="0 0 204 160" fill="none" xmlns="http://www.w3.org/2000/svg">
<path d="M112.045 109.187H69.959V151.219H112.045V109.187Z" fill="#FFB81C" stroke="black" stroke-miterlimit="10"/>
<path d="M154.133 78.6279H112.047V151.219H154.133V78.6279Z" stroke="black" stroke-miterlimit="10"/>
<path d="M196.227 48.3018H154.141V151.227H196.227V48.3018Z" stroke="black" stroke-miterlimit="10"/>
<path d="M164.398 43.0786C174.097 43.0786 181.96 35.226 181.96 25.5393C181.96 15.8526 174.097 8 164.398 8C154.699 8 146.836 15.8526 146.836 25.5393C146.836 35.226 154.699 43.0786 164.398 43.0786Z" fill="#00A6D6" stroke="black" stroke-miterlimit="10"/>
<path d="M24.5618 151.227C34.2609 151.227 42.1236 143.374 42.1236 133.688C42.1236 124.001 34.2609 116.148 24.5618 116.148C14.8627 116.148 7 124.001 7 133.688C7 143.374 14.8627 151.227 24.5618 151.227Z" stroke="black" stroke-miterlimit="10"/>
<path d="M25.2031 110.694C25.2031 110.694 29.7212 79.8568 52.6985 79.2928C75.6759 78.7287 83.8843 99.4514 83.8843 99.4514C83.8843 99.4514 85.594 64.1178 103.628 59.2346C121.661 54.3514 129.762 72.9724 129.762 72.9724C129.762 72.9724 123.897 25.5391 143.107 25.5391" stroke="black" stroke-miterlimit="10"/>
</svg>
