<svg width="204" height="160" viewBox="0 0 204 160" fill="none" xmlns="http://www.w3.org/2000/svg">
<path d="M104.28 41.124H14V102.222H104.28V41.124Z" stroke="black" stroke-miterlimit="10"/>
<path d="M190.001 1H86.043V56.6269H190.001V1Z" stroke="black" stroke-miterlimit="10"/>
<path d="M112.925 67.0391H64.4668V128.092H112.925V67.0391Z" stroke="black" stroke-miterlimit="10"/>
<path d="M93.0522 133.701C93.0522 133.701 113.45 133.701 118.745 133.701C124.041 133.701 120.856 125.185 111.075 123.472C101.293 121.759 88.3053 118.408 77.6995 118.893C67.0937 119.378 60.5662 124.866 52.0976 130.083C43.6268 135.297 43.8541 150.15 43.8541 152.936V158.134H75.2815V143.405H95.5236C102.624 143.405 108.937 139.697 111.779 136.835C114.62 133.973 135.486 112.731 136.521 111.69C137.062 111.145 137.967 109.533 135.634 108.651C133.3 107.769 128.052 107.535 125.957 109.066C121.556 112.283 112.927 120.709 112.927 120.709" stroke="black" stroke-miterlimit="10"/>
<path d="M112.926 117.066C112.926 117.066 121.194 109.311 124.878 105.6C128.561 101.89 134.986 101.773 137.255 102.839C139.524 103.906 139.259 105.167 138.171 106.265C137.081 107.362 135.588 108.606 135.588 108.606" stroke="black" stroke-miterlimit="10"/>
<path d="M104.279 66.6582H64.1543V102.223H104.279V66.6582Z" fill="#FFB81C" stroke="black" stroke-miterlimit="10"/>
<path d="M104.281 41.124H86.043V56.6266H104.281V41.124Z" fill="#00A6D6" stroke="black" stroke-miterlimit="10"/>
<path d="M48.1094 40.8374V19.8633H83.6741" stroke="black" stroke-miterlimit="10"/>
<path d="M81.4958 17.8711L83.5528 19.9429L81.4824 22.0282" stroke="black" stroke-miterlimit="10"/>
<path d="M48.529 27.3011C52.4897 27.3011 55.7005 24.0671 55.7005 20.0778C55.7005 16.0885 52.4897 12.8545 48.529 12.8545C44.5682 12.8545 41.3574 16.0885 41.3574 20.0778C41.3574 24.0671 44.5682 27.3011 48.529 27.3011Z" fill="#FFB81C" stroke="black" stroke-miterlimit="10"/>
</svg>
