<svg width="204" height="160" viewBox="0 0 204 160" fill="none" xmlns="http://www.w3.org/2000/svg">
<path d="M188.209 59.8877H95V115.843H188.209V59.8877Z" fill="#EFF1F3" stroke="black" stroke-miterlimit="10"/>
<path d="M29.6971 10H1V45.0499H29.6971V10Z" stroke="black" stroke-miterlimit="10"/>
<path d="M35.158 15.2246H6.46094V50.2745H35.158V15.2246Z" fill="#00A6D6" stroke="black" stroke-miterlimit="10"/>
<path d="M182.209 65.8877H89V121.843H182.209V65.8877Z" fill="#EFF1F3" stroke="black" stroke-miterlimit="10"/>
<path d="M176.209 71.8877H83V127.843H176.209V71.8877Z" fill="#FFB81C" stroke="black" stroke-miterlimit="10"/>
<path d="M35.5 29.8877H187.857C196.219 29.8877 203 36.6023 203 44.8877C203 53.1709 196.221 59.8877 187.857 59.8877H186.592" stroke="black" stroke-miterlimit="10"/>
<path d="M154.848 32.974C156.779 32.974 158.346 31.4139 158.346 29.4894C158.346 27.565 156.779 26.0049 154.848 26.0049C152.916 26.0049 151.35 27.565 151.35 29.4894C151.35 31.4139 152.916 32.974 154.848 32.974Z" fill="#EFF1F3" stroke="black" stroke-miterlimit="10"/>
<path d="M5.73242 82.2376V144.694C5.73242 148.053 8.23969 150.775 11.6113 150.775H11.8325C15.2041 150.775 17.937 148.053 17.937 144.694V107.663C17.937 104.305 20.67 101.582 24.0416 101.582C27.4132 101.582 30.1461 104.305 30.1461 107.663V131.938C30.1461 135.297 32.8791 138.019 36.2507 138.019H36.4899C39.8615 138.019 42.5945 135.297 42.5945 131.938V57.2344C42.5945 53.8758 45.3274 51.1533 48.699 51.1533H48.7803C52.1519 51.1533 54.8848 53.8758 54.8848 57.2344V119.635C54.8848 122.993 57.6178 125.716 60.9894 125.716H61.2986C64.6702 125.716 67.4031 122.993 67.4031 119.635V90.3217C67.4031 86.9631 70.1361 84.2407 73.5077 84.2407H83.2592" stroke="black" stroke-miterlimit="10"/>
<path d="M5.73269 85.9562C7.7942 85.9562 9.46539 84.2914 9.46539 82.2379C9.46539 80.1843 7.7942 78.5195 5.73269 78.5195C3.67118 78.5195 2 80.1843 2 82.2379C2 84.2914 3.67118 85.9562 5.73269 85.9562Z" fill="#EFF1F3" stroke="black" stroke-miterlimit="10"/>
</svg>
